Karrik-Regular.ufo
<glyph name="quotedbl" format="2">
  <advance width="323"/>
  <unicode hex="0022"/>
  <outline>
    <contour>
      <point x="31" y="389" type="line"/>
      <point x="127" y="389" type="line"/>
      <point x="137" y="680" type="line"/>
      <point x="21" y="680" type="line"/>
    </contour>
    <contour>
      <point x="196" y="389" type="line"/>
      <point x="292" y="389" type="line"/>
      <point x="302" y="680" type="line"/>
      <point x="186" y="680" type="line"/>
    </contour>
  </outline>
</glyph>
<glyph name="dollar" format="2">
  <advance width="646"/>
  <unicode hex="0024"/>
  <outline>
    <contour>
      <point x="570" y="465" type="line"/>
      <point x="579" y="581"/>
      <point x="518" y="670"/>
      <point x="371" y="687" type="curve"/>
      <point x="371" y="760" type="line"/>
      <point x="281" y="760" type="line"/>
      <point x="281" y="688" type="line"/>
      <point x="156" y="675"/>
      <point x="77" y="594"/>
      <point x="77" y="490" type="curve" smooth="yes"/>
      <point x="77" y="334"/>
      <point x="182" y="304"/>
      <point x="281" y="286" type="curve"/>
      <point x="281" y="84" type="line"/>
      <point x="202" y="99"/>
      <point x="194" y="157"/>
      <point x="190" y="223" type="curve"/>
      <point x="64" y="223" type="line"/>
      <point x="49" y="117"/>
      <point x="118" y="7"/>
      <point x="281" y="-8" type="curve"/>
      <point x="281" y="-80" type="line"/>
      <point x="371" y="-80" type="line"/>
      <point x="371" y="-7" type="line"/>
      <point x="498" y="9"/>
      <point x="582" y="87"/>
      <point x="582" y="210" type="curve" smooth="yes"/>
      <point x="582" y="370"/>
      <point x="472" y="396"/>
      <point x="371" y="411" type="curve"/>
      <point x="371" y="593" type="line"/>
      <point x="435" y="573"/>
      <point x="445" y="513"/>
      <point x="450" y="465" type="curve"/>
    </contour>
    <contour>
      <point x="203" y="506" type="curve" smooth="yes"/>
      <point x="203" y="550"/>
      <point x="228" y="585"/>
      <point x="281" y="596" type="curve"/>
      <point x="281" y="427" type="line"/>
      <point x="235" y="438"/>
      <point x="203" y="458"/>
    </contour>
    <contour>
      <point x="457" y="180" type="curve" smooth="yes"/>
      <point x="457" y="137"/>
      <point x="434" y="97"/>
      <point x="371" y="84" type="curve"/>
      <point x="371" y="268" type="line"/>
      <point x="421" y="255"/>
      <point x="457" y="233"/>
    </contour>
  </outline>
</glyph>
<glyph name="ampersand" format="2">
  <advance width="573"/>
  <unicode hex="0026"/>
  <outline>
    <contour>
      <point x="429" y="0" type="line"/>
      <point x="573" y="0" type="line"/>
      <point x="481" y="118" type="line"/>
      <point x="519" y="174"/>
      <point x="542" y="245"/>
      <point x="546" y="325" type="curve"/>
      <point x="426" y="325" type="line"/>
      <point x="426" y="282"/>
      <point x="421" y="242"/>
      <point x="409" y="209" type="curve"/>
      <point x="305" y="343" type="line"/>
      <point x="378" y="376"/>
      <point x="446" y="422"/>
      <point x="446" y="532" type="curve"/>
      <point x="446" y="622"/>
      <point x="384" y="690"/>
      <point x="276" y="690" type="curve"/>
      <point x="174" y="690"/>
      <point x="98" y="618"/>
      <point x="98" y="510" type="curve" smooth="yes"/>
      <point x="98" y="454"/>
      <point x="115" y="415"/>
      <point x="141" y="375" type="curve"/>
      <point x="72" y="344"/>
      <point x="10" y="295"/>
      <point x="10" y="182" type="curve"/>
      <point x="10" y="62"/>
      <point x="104" y="-10"/>
      <point x="234" y="-10" type="curve"/>
      <point x="298" y="-10"/>
      <point x="354" y="7"/>
      <point x="400" y="37" type="curve"/>
    </contour>
    <contour>
      <point x="208" y="516" type="curve" smooth="yes"/>
      <point x="208" y="554"/>
      <point x="230" y="580"/>
      <point x="272" y="580" type="curve" smooth="yes"/>
      <point x="314" y="580"/>
      <point x="336" y="554"/>
      <point x="336" y="516" type="curve" smooth="yes"/>
      <point x="336" y="463"/>
      <point x="298" y="437"/>
      <point x="248" y="417" type="curve"/>
      <point x="223" y="450"/>
      <point x="208" y="481"/>
    </contour>
    <contour>
      <point x="120" y="190" type="curve"/>
      <point x="120" y="244"/>
      <point x="154" y="274"/>
      <point x="200" y="297" type="curve"/>
      <point x="338" y="118" type="line"/>
      <point x="312" y="103"/>
      <point x="280" y="95"/>
      <point x="240" y="95" type="curve"/>
      <point x="162" y="95"/>
      <point x="120" y="134"/>
    </contour>
  </outline>
</glyph>
<glyph name="quotesingle" format="2">
  <advance width="158"/>
  <unicode hex="0027"/>
  <outline>
    <contour>
      <point x="31" y="389" type="line"/>
      <point x="127" y="389" type="line"/>
      <point x="137" y="680" type="line"/>
      <point x="21" y="680" type="line"/>
    </contour>
  </outline>
</glyph>
<glyph name="parenleft" format="2">
  <advance width="291"/>
  <unicode hex="0028"/>
  <outline>
    <contour>
      <point x="166" y="-165" type="curve"/>
      <point x="266" y="-165" type="line"/>
      <point x="202" y="-52"/>
      <point x="155" y="119"/>
      <point x="155" y="249" type="curve" smooth="yes"/>
      <point x="155" y="379"/>
      <point x="193" y="515"/>
      <point x="266" y="665" type="curve"/>
      <point x="166" y="665" type="line"/>
      <point x="88" y="507"/>
      <point x="53" y="393"/>
      <point x="54" y="250" type="curve" smooth="yes"/>
      <point x="55" y="107"/>
      <point x="99" y="-47"/>
    </contour>
  </outline>
</glyph>
<glyph name="parenright" format="2">
  <advance width="291"/>
  <unicode hex="0029"/>
  <outline>
    <contour>
      <point x="125" y="665" type="curve"/>
      <point x="25" y="665" type="line"/>
      <point x="89" y="552"/>
      <point x="136" y="381"/>
      <point x="136" y="251" type="curve" smooth="yes"/>
      <point x="136" y="121"/>
      <point x="98" y="-15"/>
      <point x="25" y="-165" type="curve"/>
      <point x="125" y="-165" type="line"/>
      <point x="203" y="-7"/>
      <point x="238" y="107"/>
      <point x="237" y="250" type="curve" smooth="yes"/>
      <point x="236" y="393"/>
      <point x="192" y="547"/>
    </contour>
  </outline>
</glyph>
<glyph name="asterisk" format="2">
  <advance width="340"/>
  <unicode hex="002A"/>
  <outline>
    <contour>
      <point x="50" y="396" type="line"/>
      <point x="120" y="356" type="line"/>
      <point x="170" y="442" type="line"/>
      <point x="220" y="356" type="line"/>
      <point x="290" y="396" type="line"/>
      <point x="240" y="483" type="line"/>
      <point x="340" y="483" type="line"/>
      <point x="340" y="563" type="line"/>
      <point x="240" y="563" type="line"/>
      <point x="290" y="650" type="line"/>
      <point x="220" y="690" type="line"/>
      <point x="170" y="604" type="line"/>
      <point x="120" y="690" type="line"/>
      <point x="50" y="650" type="line"/>
      <point x="100" y="563" type="line"/>
      <point x="0" y="563" type="line"/>
      <point x="0" y="483" type="line"/>
      <point x="100" y="483" type="line"/>
    </contour>
  </outline>
</glyph>
<glyph name="plus" format="2">
  <advance width="688"/>
  <unicode hex="002B"/>
  <outline>
    <contour>
      <point x="70" y="282" type="line"/>
      <point x="294" y="282" type="line"/>
      <point x="294" y="58" type="line"/>
      <point x="394" y="58" type="line"/>
      <point x="394" y="282" type="line"/>
      <point x="618" y="282" type="line"/>
      <point x="618" y="382" type="line"/>
      <point x="394" y="382" type="line"/>
      <point x="394" y="606" type="line"/>
      <point x="294" y="606" type="line"/>
      <point x="294" y="382" type="line"/>
      <point x="70" y="382" type="line"/>
    </contour>
  </outline>
</glyph>
<glyph name="comma" format="2">
  <advance width="230"/>
  <unicode hex="002C"/>
  <outline>
    <contour>
      <point x="45" y="140" type="line"/>
      <point x="45" y="0" type="line"/>
      <point x="115" y="0" type="line"/>
      <point x="115" y="-40"/>
      <point x="90" y="-70"/>
      <point x="44" y="-70" type="curve"/>
      <point x="44" y="-140" type="line"/>
      <point x="140" y="-140"/>
      <point x="185" y="-100"/>
      <point x="185" y="2" type="curve" smooth="yes"/>
      <point x="185" y="140" type="line"/>
    </contour>
  </outline>
</glyph>
<glyph name="hyphen" format="2">
  <advance width="351"/>
  <unicode hex="002D"/>
  <outline>
    <contour>
      <point x="22" y="205" type="line"/>
      <point x="329" y="205" type="line"/>
      <point x="329" y="295" type="line"/>
      <point x="22" y="295" type="line"/>
    </contour>
  </outline>
</glyph>
<glyph name="period" format="2">
  <advance width="230"/>
  <unicode hex="002E"/>
  <outline>
    <contour>
      <point x="45" y="140" type="line"/>
      <point x="45" y="0" type="line"/>
      <point x="185" y="0" type="line"/>
      <point x="185" y="140" type="line"/>
    </contour>
  </outline>
</glyph>
<glyph name="slash" format="2">
  <advance width="342"/>
  <unicode hex="002F"/>
  <outline>
    <contour>
      <point x="-31" y="-112" type="line"/>
      <point x="64" y="-112" type="line"/>
      <point x="373" y="731" type="line"/>
      <point x="278" y="731" type="line"/>
    </contour>
  </outline>
</glyph>
<glyph name="zero" format="2">
  <advance width="646"/>
  <unicode hex="0030"/>
  <outline>
    <contour>
      <point x="322" y="-10" type="curve" smooth="yes"/>
      <point x="471" y="-10"/>
      <point x="596" y="105"/>
      <point x="596" y="340" type="curve" smooth="yes"/>
      <point x="596" y="575"/>
      <point x="472" y="690"/>
      <point x="322" y="690" type="curve" smooth="yes"/>
      <point x="173" y="690"/>
      <point x="50" y="575"/>
      <point x="50" y="340" type="curve" smooth="yes"/>
      <point x="50" y="105"/>
      <point x="174" y="-10"/>
    </contour>
    <contour>
      <point x="322" y="113" type="curve" smooth="yes"/>
      <point x="221" y="113"/>
      <point x="174" y="205"/>
      <point x="174" y="340" type="curve" smooth="yes"/>
      <point x="174" y="475"/>
      <point x="221" y="567"/>
      <point x="322" y="567" type="curve" smooth="yes"/>
      <point x="423" y="567"/>
      <point x="471" y="475"/>
      <point x="471" y="340" type="curve" smooth="yes"/>
      <point x="471" y="205"/>
      <point x="423" y="113"/>
    </contour>
  </outline>
</glyph>
<glyph name="one" format="2">
  <advance width="646"/>
  <unicode hex="0031"/>
  <outline>
    <contour>
      <point x="100" y="0" type="line"/>
      <point x="580" y="0" type="line"/>
      <point x="580" y="97" type="line"/>
      <point x="407" y="97" type="line"/>
      <point x="407" y="680" type="line"/>
      <point x="317" y="680" type="line"/>
      <point x="304" y="630"/>
      <point x="276" y="580"/>
      <point x="129" y="570" type="curve"/>
      <point x="129" y="490" type="line"/>
      <point x="288" y="490" type="line"/>
      <point x="288" y="97" type="line"/>
      <point x="100" y="97" type="line"/>
    </contour>
  </outline>
</glyph>
<glyph name="two" format="2">
  <advance width="646"/>
  <unicode hex="0032"/>
  <outline>
    <contour>
      <point x="85" y="0" type="line"/>
      <point x="559" y="0" type="line"/>
      <point x="559" y="120" type="line"/>
      <point x="266" y="120" type="line"/>
      <point x="410" y="236" type="line" smooth="yes"/>
      <point x="493" y="303"/>
      <point x="556" y="378"/>
      <point x="556" y="490" type="curve"/>
      <point x="556" y="595"/>
      <point x="478" y="690"/>
      <point x="329" y="690" type="curve"/>
      <point x="180" y="690"/>
      <point x="71" y="594"/>
      <point x="81" y="429" type="curve"/>
      <point x="201" y="429" type="line"/>
      <point x="202" y="527"/>
      <point x="242" y="580"/>
      <point x="320" y="580" type="curve"/>
      <point x="397" y="580"/>
      <point x="434" y="530"/>
      <point x="434" y="476" type="curve"/>
      <point x="434" y="410"/>
      <point x="387" y="368"/>
      <point x="311" y="301" type="curve" smooth="yes"/>
      <point x="85" y="100" type="line"/>
    </contour>
  </outline>
</glyph>
<glyph name="three" format="2">
  <advance width="646"/>
  <unicode hex="0033"/>
  <outline>
    <contour>
      <point x="263" y="401" type="line"/>
      <point x="263" y="311" type="line"/>
      <point x="319" y="311" type="line" smooth="yes"/>
      <point x="396" y="311"/>
      <point x="432" y="266"/>
      <point x="432" y="210" type="curve"/>
      <point x="432" y="146"/>
      <point x="395" y="100"/>
      <point x="316" y="100" type="curve"/>
      <point x="228" y="100"/>
      <point x="186" y="161"/>
      <point x="189" y="231" type="curve"/>
      <point x="69" y="231" type="line"/>
      <point x="59" y="116"/>
      <point x="148" y="-10"/>
      <point x="317" y="-10" type="curve"/>
      <point x="476" y="-10"/>
      <point x="564" y="95"/>
      <point x="564" y="210" type="curve"/>
      <point x="564" y="275"/>
      <point x="535" y="324"/>
      <point x="464" y="358" type="curve"/>
      <point x="525" y="387"/>
      <point x="550" y="446"/>
      <point x="550" y="509" type="curve"/>
      <point x="550" y="592"/>
      <point x="476" y="690"/>
      <point x="327" y="690" type="curve"/>
      <point x="158" y="690"/>
      <point x="69" y="564"/>
      <point x="79" y="449" type="curve"/>
      <point x="199" y="449" type="line"/>
      <point x="206" y="526"/>
      <point x="229" y="580"/>
      <point x="316" y="580" type="curve"/>
      <point x="395" y="580"/>
      <point x="422" y="541"/>
      <point x="422" y="494" type="curve"/>
      <point x="422" y="442"/>
      <point x="380" y="401"/>
      <point x="319" y="401" type="curve" smooth="yes"/>
    </contour>
  </outline>
</glyph>
<glyph name="four" format="2">
  <advance width="646"/>
  <unicode hex="0034"/>
  <outline>
    <contour>
      <point x="60" y="162" type="line"/>
      <point x="357" y="162" type="line"/>
      <point x="357" y="0" type="line"/>
      <point x="486" y="0" type="line"/>
      <point x="486" y="162" type="line"/>
      <point x="606" y="162" type="line"/>
      <point x="606" y="262" type="line"/>
      <point x="486" y="262" type="line"/>
      <point x="486" y="680" type="line"/>
      <point x="357" y="680" type="line"/>
      <point x="60" y="262" type="line"/>
    </contour>
    <contour>
      <point x="173" y="262" type="line"/>
      <point x="357" y="514" type="line"/>
      <point x="357" y="262" type="line"/>
    </contour>
  </outline>
</glyph>
<glyph name="five" format="2">
  <advance width="646"/>
  <unicode hex="0035"/>
  <outline>
    <contour>
      <point x="221" y="297" type="line"/>
      <point x="229" y="324"/>
      <point x="261" y="364"/>
      <point x="325" y="364" type="curve"/>
      <point x="409" y="364"/>
      <point x="443" y="299"/>
      <point x="443" y="229" type="curve" smooth="yes"/>
      <point x="443" y="159"/>
      <point x="401" y="100"/>
      <point x="323" y="100" type="curve"/>
      <point x="247" y="100"/>
      <point x="199" y="148"/>
      <point x="207" y="237" type="curve"/>
      <point x="97" y="237" type="line"/>
      <point x="72" y="86"/>
      <point x="194" y="-10"/>
      <point x="317" y="-10" type="curve"/>
      <point x="465" y="-10"/>
      <point x="567" y="95"/>
      <point x="567" y="230" type="curve"/>
      <point x="567" y="363"/>
      <point x="486" y="457"/>
      <point x="359" y="457" type="curve" smooth="yes"/>
      <point x="300" y="457"/>
      <point x="257" y="443"/>
      <point x="223" y="419" type="curve"/>
      <point x="235" y="560" type="line"/>
      <point x="543" y="560" type="line"/>
      <point x="543" y="680" type="line"/>
      <point x="133" y="679" type="line"/>
      <point x="130" y="530"/>
      <point x="118" y="430"/>
      <point x="97" y="297" type="curve"/>
    </contour>
  </outline>
</glyph>
<glyph name="six" format="2">
  <advance width="646"/>
  <unicode hex="0036"/>
  <outline>
    <contour>
      <point x="576" y="230" type="curve"/>
      <point x="576" y="363"/>
      <point x="495" y="463"/>
      <point x="368" y="463" type="curve" smooth="yes"/>
      <point x="283" y="463"/>
      <point x="232" y="430"/>
      <point x="193" y="384" type="curve"/>
      <point x="199" y="521"/>
      <point x="255" y="581"/>
      <point x="342" y="581" type="curve" smooth="yes"/>
      <point x="424" y="581"/>
      <point x="444" y="531"/>
      <point x="450" y="499" type="curve"/>
      <point x="570" y="499" type="line"/>
      <point x="570" y="594"/>
      <point x="500" y="690"/>
      <point x="362" y="690" type="curve" smooth="yes"/>
      <point x="193" y="690"/>
      <point x="80" y="555"/>
      <point x="80" y="330" type="curve"/>
      <point x="80" y="125"/>
      <point x="180" y="-10"/>
      <point x="338" y="-10" type="curve"/>
      <point x="484" y="-10"/>
      <point x="576" y="95"/>
    </contour>
    <contour>
      <point x="340" y="346" type="curve" smooth="yes"/>
      <point x="420" y="346"/>
      <point x="452" y="287"/>
      <point x="452" y="217" type="curve" smooth="yes"/>
      <point x="452" y="147"/>
      <point x="420" y="88"/>
      <point x="340" y="88" type="curve" smooth="yes"/>
      <point x="260" y="88"/>
      <point x="228" y="147"/>
      <point x="228" y="217" type="curve" smooth="yes"/>
      <point x="228" y="287"/>
      <point x="260" y="346"/>
    </contour>
  </outline>
</glyph>
<glyph name="seven" format="2">
  <advance width="646"/>
  <unicode hex="0037"/>
  <outline>
    <contour>
      <point x="78" y="680" type="line"/>
      <point x="78" y="560" type="line"/>
      <point x="408" y="560" type="line"/>
      <point x="304" y="458"/>
      <point x="186" y="253"/>
      <point x="186" y="0" type="curve"/>
      <point x="344" y="0" type="line"/>
      <point x="344" y="371"/>
      <point x="458" y="500"/>
      <point x="588" y="600" type="curve"/>
      <point x="588" y="680" type="line"/>
    </contour>
  </outline>
</glyph>
<glyph name="eight" format="2">
  <advance width="646"/>
  <unicode hex="0038"/>
  <outline>
    <contour>
      <point x="322" y="-10" type="curve" smooth="yes"/>
      <point x="464" y="-10"/>
      <point x="566" y="67"/>
      <point x="566" y="192" type="curve" smooth="yes"/>
      <point x="566" y="268"/>
      <point x="529" y="326"/>
      <point x="467" y="360" type="curve"/>
      <point x="515" y="390"/>
      <point x="546" y="438"/>
      <point x="546" y="500" type="curve"/>
      <point x="546" y="611"/>
      <point x="462" y="690"/>
      <point x="322" y="690" type="curve" smooth="yes"/>
      <point x="183" y="690"/>
      <point x="100" y="611"/>
      <point x="100" y="500" type="curve"/>
      <point x="100" y="438"/>
      <point x="131" y="390"/>
      <point x="179" y="359" type="curve"/>
      <point x="119" y="325"/>
      <point x="80" y="267"/>
      <point x="80" y="192" type="curve" smooth="yes"/>
      <point x="80" y="67"/>
      <point x="188" y="-10"/>
    </contour>
    <contour>
      <point x="322" y="413" type="curve" smooth="yes"/>
      <point x="261" y="413"/>
      <point x="224" y="441"/>
      <point x="224" y="496" type="curve" smooth="yes"/>
      <point x="224" y="551"/>
      <point x="261" y="579"/>
      <point x="322" y="579" type="curve" smooth="yes"/>
      <point x="383" y="579"/>
      <point x="421" y="551"/>
      <point x="421" y="496" type="curve" smooth="yes"/>
      <point x="421" y="441"/>
      <point x="383" y="413"/>
    </contour>
    <contour>
      <point x="322" y="89" type="curve" smooth="yes"/>
      <point x="251" y="89"/>
      <point x="204" y="133"/>
      <point x="204" y="194" type="curve" smooth="yes"/>
      <point x="204" y="255"/>
      <point x="251" y="300"/>
      <point x="322" y="300" type="curve" smooth="yes"/>
      <point x="393" y="300"/>
      <point x="441" y="255"/>
      <point x="441" y="194" type="curve" smooth="yes"/>
      <point x="441" y="133"/>
      <point x="393" y="89"/>
    </contour>
  </outline>
</glyph>
<glyph name="nine" format="2">
  <advance width="646"/>
  <unicode hex="0039"/>
  <outline>
    <contour>
      <point x="78" y="450" type="curve"/>
      <point x="78" y="317"/>
      <point x="149" y="217"/>
      <point x="286" y="217" type="curve" smooth="yes"/>
      <point x="369" y="217"/>
      <point x="421" y="249"/>
      <point x="459" y="294" type="curve"/>
      <point x="446" y="166"/>
      <point x="388" y="99"/>
      <point x="302" y="99" type="curve" smooth="yes"/>
      <point x="230" y="99"/>
      <point x="206" y="149"/>
      <point x="204" y="181" type="curve"/>
      <point x="84" y="181" type="line"/>
      <point x="74" y="76"/>
      <point x="154" y="-10"/>
      <point x="292" y="-10" type="curve" smooth="yes"/>
      <point x="461" y="-10"/>
      <point x="574" y="125"/>
      <point x="574" y="350" type="curve"/>
      <point x="574" y="555"/>
      <point x="474" y="690"/>
      <point x="318" y="690" type="curve"/>
      <point x="170" y="690"/>
      <point x="78" y="585"/>
    </contour>
    <contour>
      <point x="317" y="320" type="curve" smooth="yes"/>
      <point x="237" y="320"/>
      <point x="205" y="379"/>
      <point x="205" y="449" type="curve" smooth="yes"/>
      <point x="205" y="519"/>
      <point x="237" y="578"/>
      <point x="317" y="578" type="curve" smooth="yes"/>
      <point x="397" y="578"/>
      <point x="429" y="519"/>
      <point x="429" y="449" type="curve" smooth="yes"/>
      <point x="429" y="379"/>
      <point x="397" y="320"/>
    </contour>
  </outline>
</glyph>
<glyph name="colon" format="2">
  <advance width="230"/>
  <unicode hex="003A"/>
  <outline>
    <contour>
      <point x="45" y="500" type="line"/>
      <point x="45" y="360" type="line"/>
      <point x="185" y="360" type="line"/>
      <point x="185" y="500" type="line"/>
    </contour>
    <contour>
      <point x="45" y="140" type="line"/>
      <point x="45" y="0" type="line"/>
      <point x="185" y="0" type="line"/>
      <point x="185" y="140" type="line"/>
    </contour>
  </outline>
</glyph>
<glyph name="semicolon" format="2">
  <advance width="230"/>
  <unicode hex="003B"/>
  <outline>
    <contour>
      <point x="45" y="500" type="line"/>
      <point x="45" y="360" type="line"/>
      <point x="185" y="360" type="line"/>
      <point x="185" y="500" type="line"/>
    </contour>
    <contour>
      <point x="45" y="140" type="line"/>
      <point x="45" y="0" type="line"/>
      <point x="115" y="0" type="line"/>
      <point x="115" y="-40"/>
      <point x="90" y="-70"/>
      <point x="44" y="-70" type="curve"/>
      <point x="44" y="-140" type="line"/>
      <point x="140" y="-140"/>
      <point x="185" y="-100"/>
      <point x="185" y="2" type="curve" smooth="yes"/>
      <point x="185" y="140" type="line"/>
    </contour>
  </outline>
</glyph>
<glyph name="less" format="2">
  <advance width="688"/>
  <unicode hex="003C"/>
  <outline>
    <contour>
      <point x="600" y="604" type="line"/>
      <point x="58" y="393" type="line"/>
      <point x="58" y="271" type="line"/>
      <point x="600" y="60" type="line"/>
      <point x="600" y="170" type="line"/>
      <point x="165" y="332" type="line"/>
      <point x="600" y="494" type="line"/>
    </contour>
  </outline>
</glyph>
<glyph name="equal" format="2">
  <advance width="688"/>
  <unicode hex="003D"/>
  <outline>
    <contour>
      <point x="70" y="412" type="line"/>
      <point x="618" y="412" type="line"/>
      <point x="618" y="522" type="line"/>
      <point x="70" y="522" type="line"/>
    </contour>
    <contour>
      <point x="70" y="143" type="line"/>
      <point x="618" y="143" type="line"/>
      <point x="618" y="253" type="line"/>
      <point x="70" y="253" type="line"/>
    </contour>
  </outline>
</glyph>
<glyph name="greater" format="2">
  <advance width="688"/>
  <unicode hex="003E"/>
  <outline>
    <contour>
      <point x="86" y="604" type="line"/>
      <point x="86" y="494" type="line"/>
      <point x="521" y="332" type="line"/>
      <point x="86" y="170" type="line"/>
      <point x="86" y="60" type="line"/>
      <point x="628" y="271" type="line"/>
      <point x="628" y="393" type="line"/>
    </contour>
  </outline>
</glyph>
<glyph name="question" format="2">
  <advance width="499"/>
  <unicode hex="003F"/>
  <outline>
    <contour>
      <point x="186" y="216" type="line"/>
      <point x="328" y="216" type="line"/>
      <point x="325" y="232" type="line" smooth="yes"/>
      <point x="311" y="305"/>
      <point x="474" y="360"/>
      <point x="474" y="508" type="curve" smooth="yes"/>
      <point x="474" y="607"/>
      <point x="388" y="690"/>
      <point x="243" y="690" type="curve" smooth="yes"/>
      <point x="106" y="690"/>
      <point x="24" y="616"/>
      <point x="12" y="481" type="curve"/>
      <point x="148" y="452" type="line"/>
      <point x="146" y="535"/>
      <point x="175" y="578"/>
      <point x="238" y="578" type="curve" smooth="yes"/>
      <point x="299" y="578"/>
      <point x="330" y="544"/>
      <point x="330" y="486" type="curve" smooth="yes"/>
      <point x="330" y="375"/>
      <point x="186" y="323"/>
      <point x="186" y="230" type="curve" smooth="yes"/>
    </contour>
    <contour>
      <point x="182" y="140" type="line"/>
      <point x="182" y="0" type="line"/>
      <point x="322" y="0" type="line"/>
      <point x="322" y="140" type="line"/>
    </contour>
  </outline>
</glyph>
<glyph name="at" format="2">
  <advance width="856"/>
  <unicode hex="0040"/>
  <anchor x="410.0" y="430.0" name="top"/>
  <anchor x="410.0" y="465.0" name="center"/>
  <anchor x="333.0" y="430.0" name="top"/>
  <outline>
    <contour>
      <point x="650" y="-10" type="curve"/>
      <point x="756" y="-10"/>
      <point x="816" y="95"/>
      <point x="816" y="270" type="curve"/>
      <point x="816" y="492"/>
      <point x="658" y="654"/>
      <point x="428" y="654" type="curve" smooth="yes"/>
      <point x="198" y="654"/>
      <point x="40" y="492"/>
      <point x="40" y="250" type="curve"/>
      <point x="40" y="125"/>
      <point x="74" y="46"/>
      <point x="102" y="0" type="curve"/>
      <point x="231" y="0" type="line"/>
      <point x="196" y="40"/>
      <point x="130" y="105"/>
      <point x="130" y="260" type="curve"/>
      <point x="130" y="460"/>
      <point x="263" y="556"/>
      <point x="428" y="556" type="curve" smooth="yes"/>
      <point x="593" y="556"/>
      <point x="726" y="460"/>
      <point x="726" y="250" type="curve"/>
      <point x="726" y="135"/>
      <point x="686" y="94"/>
      <point x="656" y="94" type="curve"/>
      <point x="626" y="94"/>
      <point x="620" y="102"/>
      <point x="620" y="137" type="curve" smooth="yes"/>
      <point x="620" y="301" type="line"/>
      <point x="620" y="399"/>
      <point x="548" y="460"/>
      <point x="426" y="460" type="curve" smooth="yes"/>
      <point x="293" y="460"/>
      <point x="222" y="388"/>
      <point x="222" y="310" type="curve"/>
      <point x="344" y="310" type="line"/>
      <point x="342" y="352"/>
      <point x="371" y="380"/>
      <point x="423" y="380" type="curve"/>
      <point x="477" y="380"/>
      <point x="510" y="344"/>
      <point x="510" y="290" type="curve" smooth="yes"/>
      <point x="510" y="276" type="line"/>
      <point x="454" y="276" type="line" smooth="yes"/>
      <point x="316" y="276"/>
      <point x="224" y="240"/>
      <point x="224" y="140" type="curve"/>
      <point x="224" y="64"/>
      <point x="284" y="-10"/>
      <point x="396" y="-10" type="curve" smooth="yes"/>
      <point x="474" y="-10"/>
      <point x="524" y="26"/>
      <point x="542" y="46" type="curve"/>
      <point x="564" y="4"/>
      <point x="590" y="-10"/>
    </contour>
    <contour>
      <point x="340" y="130" type="curve"/>
      <point x="340" y="176"/>
      <point x="376" y="194"/>
      <point x="510" y="190" type="curve"/>
      <point x="510" y="150" type="line"/>
      <point x="510" y="110"/>
      <point x="478" y="70"/>
      <point x="416" y="70" type="curve"/>
      <point x="376" y="70"/>
      <point x="340" y="90"/>
    </contour>
  </outline>
</glyph>
<glyph name="A" format="2">
  <advance width="616"/>
  <unicode hex="0041"/>
  <anchor x="308.0" y="430.0" name="top"/>
  <anchor x="550.0" y="0.0" name="bottom"/>
  <outline>
    <contour>
      <point x="493" y="0" type="line"/>
      <point x="619" y="0" type="line"/>
      <point x="359" y="680" type="line"/>
      <point x="257" y="680" type="line"/>
      <point x="-3" y="0" type="line"/>
      <point x="123" y="0" type="line"/>
      <point x="196" y="187" type="line"/>
      <point x="420" y="187" type="line"/>
    </contour>
    <contour>
      <point x="238" y="297" type="line"/>
      <point x="308" y="476" type="line"/>
      <point x="378" y="297" type="line"/>
    </contour>
  </outline>
</glyph>
<glyph name="B" format="2">
  <advance width="640"/>
  <unicode hex="0042"/>
  <outline>
    <contour>
      <point x="86" y="0" type="line"/>
      <point x="368" y="0" type="line" smooth="yes"/>
      <point x="525" y="0"/>
      <point x="600" y="83"/>
      <point x="600" y="199" type="curve" smooth="yes"/>
      <point x="600" y="250"/>
      <point x="581" y="312"/>
      <point x="509" y="350" type="curve"/>
      <point x="552" y="386"/>
      <point x="585" y="432"/>
      <point x="585" y="502" type="curve" smooth="yes"/>
      <point x="585" y="599"/>
      <point x="525" y="680"/>
      <point x="363" y="680" type="curve" smooth="yes"/>
      <point x="86" y="680" type="line"/>
    </contour>
    <contour>
      <point x="364" y="567" type="line" smooth="yes"/>
      <point x="428" y="567"/>
      <point x="465" y="543"/>
      <point x="465" y="486" type="curve" smooth="yes"/>
      <point x="465" y="427"/>
      <point x="434" y="402"/>
      <point x="361" y="402" type="curve" smooth="yes"/>
      <point x="205" y="402" type="line"/>
      <point x="205" y="567" type="line"/>
    </contour>
    <contour>
      <point x="361" y="289" type="line" smooth="yes"/>
      <point x="436" y="289"/>
      <point x="481" y="259"/>
      <point x="481" y="199" type="curve" smooth="yes"/>
      <point x="481" y="143"/>
      <point x="445" y="113"/>
      <point x="384" y="113" type="curve" smooth="yes"/>
      <point x="205" y="113" type="line"/>
      <point x="205" y="289" type="line"/>
    </contour>
  </outline>
</glyph>
<glyph name="C" format="2">
  <advance width="682"/>
  <unicode hex="0043"/>
  <anchor x="341.0" y="430.0" name="top"/>
  <anchor x="341.0" y="0.0" name="bottom"/>
  <outline>
    <contour>
      <point x="519" y="282" type="line"/>
      <point x="479" y="153"/>
      <point x="435" y="109"/>
      <point x="346" y="109" type="curve" smooth="yes"/>
      <point x="243" y="109"/>
      <point x="174" y="184"/>
      <point x="174" y="340" type="curve" smooth="yes"/>
      <point x="174" y="496"/>
      <point x="242" y="571"/>
      <point x="346" y="571" type="curve" smooth="yes"/>
      <point x="434" y="571"/>
      <point x="499" y="518"/>
      <point x="510" y="391" type="curve"/>
      <point x="644" y="391" type="line"/>
      <point x="629" y="585"/>
      <point x="519" y="690"/>
      <point x="351" y="690" type="curve" smooth="yes"/>
      <point x="183" y="690"/>
      <point x="50" y="572"/>
      <point x="50" y="340" type="curve" smooth="yes"/>
      <point x="50" y="108"/>
      <point x="191" y="-10"/>
      <point x="351" y="-10" type="curve" smooth="yes"/>
      <point x="522" y="-10"/>
      <point x="637" y="105"/>
      <point x="644" y="282" type="curve"/>
    </contour>
  </outline>
</glyph>
<glyph name="E" format="2">
  <advance width="558"/>
  <unicode hex="0045"/>
  <anchor x="279.0" y="430.0" name="top"/>
  <anchor x="476.0" y="0.0" name="bottom"/>
  <outline>
    <contour>
      <point x="86" y="0" type="line"/>
      <point x="502" y="0" type="line"/>
      <point x="502" y="113" type="line"/>
      <point x="205" y="113" type="line"/>
      <point x="205" y="315" type="line"/>
      <point x="486" y="315" type="line"/>
      <point x="486" y="428" type="line"/>
      <point x="205" y="428" type="line"/>
      <point x="205" y="567" type="line"/>
      <point x="502" y="567" type="line"/>
      <point x="502" y="680" type="line"/>
      <point x="86" y="680" type="line"/>
    </contour>
  </outline>
</glyph>
<glyph name="F" format="2">
  <advance width="521"/>
  <unicode hex="0046"/>
  <outline>
    <contour>
      <point x="86" y="0" type="line"/>
      <point x="211" y="0" type="line"/>
      <point x="206" y="14"/>
      <point x="205" y="34"/>
      <point x="205" y="58" type="curve" smooth="yes"/>
      <point x="205" y="315" type="line"/>
      <point x="464" y="315" type="line"/>
      <point x="464" y="428" type="line"/>
      <point x="205" y="428" type="line"/>
      <point x="205" y="567" type="line"/>
      <point x="491" y="567" type="line"/>
      <point x="491" y="680" type="line"/>
      <point x="86" y="680" type="line"/>
    </contour>
  </outline>
</glyph>
<glyph name="G" format="2">
  <advance width="697"/>
  <unicode hex="0047"/>
  <anchor x="348.5" y="430.0" name="top"/>
  <anchor x="348.5" y="0.0" name="bottom"/>
  <outline>
    <contour>
      <point x="355" y="247" type="line"/>
      <point x="516" y="247" type="line"/>
      <point x="504" y="152"/>
      <point x="462" y="109"/>
      <point x="376" y="109" type="curve" smooth="yes"/>
      <point x="252" y="109"/>
      <point x="174" y="195"/>
      <point x="174" y="340" type="curve" smooth="yes"/>
      <point x="174" y="485"/>
      <point x="245" y="571"/>
      <point x="355" y="571" type="curve" smooth="yes"/>
      <point x="432" y="571"/>
      <point x="482" y="529"/>
      <point x="489" y="471" type="curve"/>
      <point x="629" y="471" type="line"/>
      <point x="608" y="624"/>
      <point x="494" y="690"/>
      <point x="362" y="690" type="curve" smooth="yes"/>
      <point x="184" y="690"/>
      <point x="50" y="561"/>
      <point x="50" y="340" type="curve" smooth="yes"/>
      <point x="50" y="120"/>
      <point x="188" y="-10"/>
      <point x="361" y="-10" type="curve" smooth="yes"/>
      <point x="428" y="-10"/>
      <point x="483" y="10"/>
      <point x="517" y="43" type="curve"/>
      <point x="518" y="29"/>
      <point x="518" y="15"/>
      <point x="519" y="0" type="curve"/>
      <point x="632" y="0" type="line"/>
      <point x="635" y="361" type="line"/>
      <point x="355" y="361" type="line"/>
    </contour>
  </outline>
</glyph>
<glyph name="I" format="2">
  <advance width="291"/>
  <unicode hex="0049"/>
  <anchor x="145.5" y="430.0" name="top"/>
  <anchor x="145.5" y="0.0" name="bottom"/>
  <outline>
    <contour>
      <point x="86" y="0" type="line"/>
      <point x="205" y="0" type="line"/>
      <point x="205" y="680" type="line"/>
      <point x="86" y="680" type="line"/>
    </contour>
  </outline>
</glyph>
<glyph name="J" format="2">
  <advance width="458"/>
  <unicode hex="004A"/>
  <anchor x="315.0" y="430.0" name="top"/>
  <outline>
    <contour>
      <point x="264" y="680" type="line"/>
      <point x="264" y="160" type="line" smooth="yes"/>
      <point x="264" y="129"/>
      <point x="244" y="102"/>
      <point x="195" y="102" type="curve" smooth="yes"/>
      <point x="148" y="102"/>
      <point x="128" y="127"/>
      <point x="128" y="170" type="curve"/>
      <point x="128" y="290" type="line"/>
      <point x="24" y="290" type="line"/>
      <point x="22" y="263"/>
      <point x="14" y="221"/>
      <point x="14" y="176" type="curve" smooth="yes"/>
      <point x="14" y="28"/>
      <point x="113" y="-10"/>
      <point x="196" y="-10" type="curve" smooth="yes"/>
      <point x="273" y="-10"/>
      <point x="382" y="27"/>
      <point x="382" y="166" type="curve" smooth="yes"/>
      <point x="382" y="680" type="line"/>
    </contour>
  </outline>
</glyph>
<glyph name="K" format="2">
  <advance width="604"/>
  <unicode hex="004B"/>
  <anchor x="302.0" y="0.0" name="bottom"/>
  <outline>
    <contour>
      <point x="86" y="0" type="line"/>
      <point x="205" y="0" type="line"/>
      <point x="205" y="246" type="line"/>
      <point x="268" y="322" type="line"/>
      <point x="426" y="0" type="line"/>
      <point x="564" y="0" type="line"/>
      <point x="356" y="428" type="line"/>
      <point x="566" y="680" type="line"/>
      <point x="423" y="680" type="line"/>
      <point x="205" y="436" type="line"/>
      <point x="205" y="680" type="line"/>
      <point x="86" y="680" type="line"/>
    </contour>
  </outline>
</glyph>
<glyph name="L" format="2">
  <advance width="524"/>
  <unicode hex="004C"/>
  <anchor x="160.0" y="430.0" name="top"/>
  <anchor x="262.0" y="465.0" name="center"/>
  <anchor x="262.0" y="0.0" name="bottom"/>
  <outline>
    <contour>
      <point x="86" y="0" type="line"/>
      <point x="475" y="0" type="line"/>
      <point x="475" y="113" type="line"/>
      <point x="205" y="113" type="line"/>
      <point x="205" y="680" type="line"/>
      <point x="86" y="680" type="line"/>
    </contour>
  </outline>
</glyph>
<glyph name="M" format="2">
  <advance width="851"/>
  <unicode hex="004D"/>
  <outline>
    <contour>
      <point x="86" y="0" type="line"/>
      <point x="200" y="0" type="line"/>
      <point x="200" y="562" type="line"/>
      <point x="373" y="0" type="line"/>
      <point x="470" y="0" type="line"/>
      <point x="651" y="568" type="line"/>
      <point x="651" y="0" type="line"/>
      <point x="765" y="0" type="line"/>
      <point x="765" y="680" type="line"/>
      <point x="565" y="680" type="line"/>
      <point x="422" y="241" type="line"/>
      <point x="286" y="680" type="line"/>
      <point x="86" y="680" type="line"/>
    </contour>
  </outline>
</glyph>
<glyph name="N" format="2">
  <advance width="661"/>
  <unicode hex="004E"/>
  <anchor x="330.5" y="430.0" name="top"/>
  <anchor x="330.5" y="0.0" name="bottom"/>
  <outline>
    <contour>
      <point x="86" y="0" type="line"/>
      <point x="201" y="0" type="line"/>
      <point x="201" y="443" type="line"/>
      <point x="445" y="0" type="line"/>
      <point x="575" y="0" type="line"/>
      <point x="575" y="680" type="line"/>
      <point x="460" y="680" type="line"/>
      <point x="460" y="237" type="line"/>
      <point x="216" y="680" type="line"/>
      <point x="86" y="680" type="line"/>
    </contour>
  </outline>
</glyph>
<glyph name="O" format="2">
  <advance width="705"/>
  <unicode hex="004F"/>
  <anchor x="352.5" y="430.0" name="top"/>
  <outline>
    <contour>
      <point x="352" y="-10" type="curve" smooth="yes"/>
      <point x="521" y="-10"/>
      <point x="656" y="125"/>
      <point x="656" y="340" type="curve" smooth="yes"/>
      <point x="656" y="555"/>
      <point x="522" y="690"/>
      <point x="352" y="690" type="curve" smooth="yes"/>
      <point x="183" y="690"/>
      <point x="50" y="555"/>
      <point x="50" y="340" type="curve" smooth="yes"/>
      <point x="50" y="125"/>
      <point x="184" y="-10"/>
    </contour>
    <contour>
      <point x="352" y="109" type="curve" smooth="yes"/>
      <point x="247" y="109"/>
      <point x="174" y="195"/>
      <point x="174" y="340" type="curve" smooth="yes"/>
      <point x="174" y="485"/>
      <point x="247" y="571"/>
      <point x="352" y="571" type="curve" smooth="yes"/>
      <point x="457" y="571"/>
      <point x="531" y="485"/>
      <point x="531" y="340" type="curve" smooth="yes"/>
      <point x="531" y="195"/>
      <point x="457" y="109"/>
    </contour>
  </outline>
</glyph>
<glyph name="Q" format="2">
  <advance width="709"/>
  <unicode hex="0051"/>
  <outline>
    <contour>
      <point x="356" y="-10" type="curve" smooth="yes"/>
      <point x="393" y="-10"/>
      <point x="428" y="-4"/>
      <point x="460" y="9" type="curve"/>
      <point x="488" y="-30" type="line"/>
      <point x="628" y="-30" type="line"/>
      <point x="556" y="69" type="line"/>
      <point x="620" y="129"/>
      <point x="660" y="223"/>
      <point x="660" y="340" type="curve" smooth="yes"/>
      <point x="660" y="555"/>
      <point x="526" y="690"/>
      <point x="356" y="690" type="curve" smooth="yes"/>
      <point x="187" y="690"/>
      <point x="54" y="555"/>
      <point x="54" y="340" type="curve" smooth="yes"/>
      <point x="54" y="125"/>
      <point x="188" y="-10"/>
    </contour>
    <contour>
      <point x="356" y="109" type="curve" smooth="yes"/>
      <point x="251" y="109"/>
      <point x="178" y="195"/>
      <point x="178" y="340" type="curve" smooth="yes"/>
      <point x="178" y="485"/>
      <point x="251" y="571"/>
      <point x="356" y="571" type="curve" smooth="yes"/>
      <point x="461" y="571"/>
      <point x="535" y="485"/>
      <point x="535" y="340" type="curve" smooth="yes"/>
      <point x="535" y="266"/>
      <point x="516" y="208"/>
      <point x="483" y="168" type="curve"/>
      <point x="426" y="247" type="line"/>
      <point x="288" y="247" type="line"/>
      <point x="386" y="111" type="line"/>
      <point x="376" y="110"/>
      <point x="366" y="109"/>
    </contour>
  </outline>
</glyph>
<glyph name="R" format="2">
  <advance width="624"/>
  <unicode hex="0052"/>
  <anchor x="312.0" y="430.0" name="top"/>
  <anchor x="312.0" y="0.0" name="bottom"/>
  <outline>
    <contour>
      <point x="86" y="0" type="line"/>
      <point x="205" y="0" type="line"/>
      <point x="205" y="292" type="line"/>
      <point x="323" y="292" type="line"/>
      <point x="383" y="292"/>
      <point x="405" y="253"/>
      <point x="413" y="199" type="curve" smooth="yes"/>
      <point x="424" y="122" type="line" smooth="yes"/>
      <point x="433" y="59"/>
      <point x="446" y="16"/>
      <point x="482" y="0" type="curve"/>
      <point x="639" y="0" type="line"/>
      <point x="591" y="32"/>
      <point x="560" y="88"/>
      <point x="550" y="145" type="curve" smooth="yes"/>
      <point x="535" y="230" type="line" smooth="yes"/>
      <point x="528" y="270"/>
      <point x="510" y="308"/>
      <point x="468" y="328" type="curve"/>
      <point x="535" y="359"/>
      <point x="586" y="409"/>
      <point x="586" y="486" type="curve" smooth="yes"/>
      <point x="586" y="607"/>
      <point x="516" y="680"/>
      <point x="368" y="680" type="curve" smooth="yes"/>
      <point x="86" y="680" type="line"/>
    </contour>
    <contour>
      <point x="368" y="567" type="line" smooth="yes"/>
      <point x="427" y="567"/>
      <point x="462" y="538"/>
      <point x="462" y="486" type="curve" smooth="yes"/>
      <point x="462" y="434"/>
      <point x="433" y="405"/>
      <point x="365" y="405" type="curve" smooth="yes"/>
      <point x="205" y="405" type="line"/>
      <point x="205" y="567" type="line"/>
    </contour>
  </outline>
</glyph>
<glyph name="S" format="2">
  <advance width="588"/>
  <unicode hex="0053"/>
  <anchor x="294.0" y="430.0" name="top"/>
  <anchor x="294.0" y="0.0" name="bottom"/>
  <outline>
    <contour>
      <point x="542" y="465" type="line"/>
      <point x="552" y="594"/>
      <point x="475" y="690"/>
      <point x="290" y="690" type="curve" smooth="yes"/>
      <point x="144" y="690"/>
      <point x="49" y="604"/>
      <point x="49" y="490" type="curve" smooth="yes"/>
      <point x="49" y="193"/>
      <point x="429" y="353"/>
      <point x="429" y="180" type="curve" smooth="yes"/>
      <point x="429" y="128"/>
      <point x="395" y="80"/>
      <point x="297" y="80" type="curve" smooth="yes"/>
      <point x="177" y="80"/>
      <point x="167" y="146"/>
      <point x="162" y="223" type="curve"/>
      <point x="36" y="223" type="line"/>
      <point x="20" y="109"/>
      <point x="101" y="-10"/>
      <point x="293" y="-10" type="curve"/>
      <point x="447" y="-10"/>
      <point x="554" y="72"/>
      <point x="554" y="210" type="curve" smooth="yes"/>
      <point x="554" y="507"/>
      <point x="175" y="342"/>
      <point x="175" y="506" type="curve" smooth="yes"/>
      <point x="175" y="560"/>
      <point x="213" y="600"/>
      <point x="293" y="600" type="curve" smooth="yes"/>
      <point x="402" y="600"/>
      <point x="416" y="524"/>
      <point x="422" y="465" type="curve"/>
    </contour>
  </outline>
</glyph>
<glyph name="T" format="2">
  <advance width="542"/>
  <unicode hex="0054"/>
  <anchor x="271.0" y="430.0" name="top"/>
  <anchor x="271.0" y="465.0" name="center"/>
  <anchor x="271.0" y="0.0" name="bottom"/>
  <outline>
    <contour>
      <point x="211" y="0" type="line"/>
      <point x="331" y="0" type="line"/>
      <point x="331" y="560" type="line"/>
      <point x="509" y="560" type="line"/>
      <point x="509" y="680" type="line"/>
      <point x="33" y="680" type="line"/>
      <point x="33" y="560" type="line"/>
      <point x="211" y="560" type="line"/>
    </contour>
  </outline>
</glyph>
<glyph name="U" format="2">
  <advance width="637"/>
  <unicode hex="0055"/>
  <anchor x="318.5" y="430.0" name="top"/>
  <anchor x="334.0" y="0.0" name="bottom"/>
  <outline>
    <contour>
      <point x="557" y="680" type="line"/>
      <point x="438" y="680" type="line"/>
      <point x="438" y="203" type="line" smooth="yes"/>
      <point x="438" y="141"/>
      <point x="388" y="110"/>
      <point x="318" y="110" type="curve" smooth="yes"/>
      <point x="238" y="110"/>
      <point x="199" y="153"/>
      <point x="199" y="215" type="curve" smooth="yes"/>
      <point x="199" y="680" type="line"/>
      <point x="81" y="680" type="line"/>
      <point x="81" y="208" type="line" smooth="yes"/>
      <point x="81" y="89"/>
      <point x="165" y="-10"/>
      <point x="317" y="-10" type="curve" smooth="yes"/>
      <point x="459" y="-10"/>
      <point x="557" y="75"/>
      <point x="557" y="198" type="curve" smooth="yes"/>
    </contour>
  </outline>
</glyph>
<glyph name="V" format="2">
  <advance width="633"/>
  <unicode hex="0056"/>
  <outline>
    <contour>
      <point x="153" y="680" type="line"/>
      <point x="27" y="680" type="line"/>
      <point x="261" y="0" type="line"/>
      <point x="373" y="0" type="line"/>
      <point x="606" y="680" type="line"/>
      <point x="480" y="680" type="line"/>
      <point x="317" y="227" type="line"/>
    </contour>
  </outline>
</glyph>
<glyph name="W" format="2">
  <advance width="841"/>
  <unicode hex="0057"/>
  <anchor x="420.5" y="430.0" name="top"/>
  <outline>
    <contour>
      <point x="121" y="680" type="line"/>
      <point x="-4" y="680" type="line"/>
      <point x="163" y="0" type="line"/>
      <point x="306" y="0" type="line"/>
      <point x="420" y="536" type="line"/>
      <point x="536" y="0" type="line"/>
      <point x="680" y="0" type="line"/>
      <point x="845" y="680" type="line"/>
      <point x="725" y="680" type="line"/>
      <point x="610" y="184" type="line"/>
      <point x="509" y="680" type="line"/>
      <point x="336" y="680" type="line"/>
      <point x="233" y="187" type="line"/>
    </contour>
  </outline>
</glyph>
<glyph name="X" format="2">
  <advance width="605"/>
  <unicode hex="0058"/>
  <outline>
    <contour>
      <point x="33" y="680" type="line"/>
      <point x="227" y="361" type="line"/>
      <point x="23" y="0" type="line"/>
      <point x="156" y="0" type="line"/>
      <point x="297" y="246" type="line"/>
      <point x="447" y="0" type="line"/>
      <point x="582" y="0" type="line"/>
      <point x="367" y="353" type="line"/>
      <point x="571" y="680" type="line"/>
      <point x="438" y="680" type="line"/>
      <point x="298" y="466" type="line"/>
      <point x="168" y="680" type="line"/>
    </contour>
  </outline>
</glyph>
<glyph name="Y" format="2">
  <advance width="602"/>
  <unicode hex="0059"/>
  <anchor x="301.0" y="430.0" name="top"/>
  <outline>
    <contour>
      <point x="241" y="0" type="line"/>
      <point x="360" y="0" type="line"/>
      <point x="360" y="332" type="line"/>
      <point x="602" y="680" type="line"/>
      <point x="459" y="680" type="line"/>
      <point x="302" y="465" type="line"/>
      <point x="149" y="680" type="line"/>
      <point x="0" y="680" type="line"/>
      <point x="241" y="332" type="line"/>
    </contour>
  </outline>
</glyph>
<glyph name="Z" format="2">
  <advance width="546"/>
  <unicode hex="005A"/>
  <anchor x="273.0" y="430.0" name="top"/>
  <outline>
    <contour>
      <point x="42" y="0" type="line"/>
      <point x="505" y="0" type="line"/>
      <point x="505" y="113" type="line"/>
      <point x="189" y="113" type="line"/>
      <point x="495" y="572" type="line"/>
      <point x="495" y="680" type="line"/>
      <point x="54" y="680" type="line"/>
      <point x="54" y="567" type="line"/>
      <point x="347" y="567" type="line"/>
      <point x="42" y="108" type="line"/>
    </contour>
  </outline>
</glyph>
<glyph name="bracketleft" format="2">
  <advance width="294"/>
  <unicode hex="005B"/>
  <outline>
    <contour>
      <point x="54" y="665" type="line"/>
      <point x="54" y="-165" type="line"/>
      <point x="264" y="-165" type="line"/>
      <point x="264" y="-75" type="line"/>
      <point x="144" y="-75" type="line"/>
      <point x="144" y="575" type="line"/>
      <point x="264" y="575" type="line"/>
      <point x="264" y="665" type="line"/>
    </contour>
  </outline>
</glyph>
<glyph name="backslash" format="2">
  <advance width="342"/>
  <unicode hex="005C"/>
  <outline>
    <contour>
      <point x="373" y="-112" type="line"/>
      <point x="64" y="731" type="line"/>
      <point x="-31" y="731" type="line"/>
      <point x="278" y="-112" type="line"/>
    </contour>
  </outline>
</glyph>
<glyph name="bracketright" format="2">
  <advance width="294"/>
  <unicode hex="005D"/>
  <outline>
    <contour>
      <point x="240" y="665" type="line"/>
      <point x="30" y="665" type="line"/>
      <point x="30" y="575" type="line"/>
      <point x="150" y="575" type="line"/>
      <point x="150" y="-75" type="line"/>
      <point x="30" y="-75" type="line"/>
      <point x="30" y="-165" type="line"/>
      <point x="240" y="-165" type="line"/>
    </contour>
  </outline>
</glyph>
<glyph name="asciicircum" format="2">
  <advance width="500"/>
  <unicode hex="005E"/>
  <outline>
    <contour>
      <point x="173" y="552" type="line"/>
      <point x="43" y="112" type="line"/>
      <point x="148" y="112" type="line"/>
      <point x="250" y="436" type="line"/>
      <point x="352" y="122" type="line"/>
      <point x="467" y="122" type="line"/>
      <point x="327" y="552" type="line"/>
    </contour>
  </outline>
</glyph>
<glyph name="underscore" format="2">
  <advance width="607"/>
  <unicode hex="005F"/>
  <outline>
    <contour>
      <point x="0" y="-135" type="line"/>
      <point x="607" y="-120" type="line"/>
      <point x="607" y="-35" type="line"/>
      <point x="0" y="-50" type="line"/>
    </contour>
  </outline>
</glyph>
<glyph name="grave" format="2">
  <advance width="500"/>
  <unicode hex="0060"/>
  <anchor x="250.0" y="610.0" name="_top"/>
  <outline>
    <contour>
      <point x="300" y="870" type="line"/>
      <point x="116" y="870" type="line"/>
      <point x="230" y="730" type="line"/>
      <point x="330" y="730" type="line"/>
    </contour>
  </outline>
</glyph>
<glyph name="a" format="2">
  <advance width="558"/>
  <unicode hex="0061"/>
  <anchor x="494.0" y="0.0" name="bottom"/>
  <anchor x="258.0" y="430.0" name="top"/>
  <outline>
    <contour>
      <point x="472" y="147" type="curve" smooth="yes"/>
      <point x="472" y="351" type="line" smooth="yes"/>
      <point x="472" y="459"/>
      <point x="376" y="510"/>
      <point x="263" y="510" type="curve" smooth="yes"/>
      <point x="140" y="510"/>
      <point x="44" y="448"/>
      <point x="44" y="340" type="curve"/>
      <point x="166" y="340" type="line"/>
      <point x="166" y="399"/>
      <point x="198" y="430"/>
      <point x="260" y="430" type="curve"/>
      <point x="320" y="430"/>
      <point x="362" y="394"/>
      <point x="362" y="340" type="curve" smooth="yes"/>
      <point x="362" y="316" type="line"/>
      <point x="266" y="316" type="line" smooth="yes"/>
      <point x="128" y="316"/>
      <point x="32" y="270"/>
      <point x="32" y="156" type="curve" smooth="yes"/>
      <point x="32" y="68"/>
      <point x="116" y="-10"/>
      <point x="228" y="-10" type="curve" smooth="yes"/>
      <point x="316" y="-10"/>
      <point x="366" y="32"/>
      <point x="384" y="46" type="curve"/>
      <point x="407" y="7"/>
      <point x="436" y="-6"/>
      <point x="497" y="-6" type="curve" smooth="yes"/>
      <point x="515" y="-6"/>
      <point x="533" y="-5"/>
      <point x="568" y="0" type="curve"/>
      <point x="568" y="110" type="line"/>
      <point x="549" y="106"/>
      <point x="536" y="104"/>
      <point x="523" y="104" type="curve" smooth="yes"/>
      <point x="492" y="104"/>
      <point x="472" y="117"/>
    </contour>
    <contour>
      <point x="156" y="144" type="curve"/>
      <point x="156" y="198"/>
      <point x="188" y="238"/>
      <point x="362" y="230" type="curve"/>
      <point x="362" y="180" type="line" smooth="yes"/>
      <point x="362" y="140"/>
      <point x="326" y="70"/>
      <point x="244" y="70" type="curve" smooth="yes"/>
      <point x="190" y="70"/>
      <point x="156" y="104"/>
    </contour>
  </outline>
</glyph>
<glyph name="b" format="2">
  <advance width="572"/>
  <unicode hex="0062"/>
  <outline>
    <contour>
      <point x="60" y="0" type="line"/>
      <point x="166" y="0" type="line"/>
      <point x="166" y="44" type="line"/>
      <point x="188" y="28"/>
      <point x="232" y="-10"/>
      <point x="304" y="-10" type="curve"/>
      <point x="450" y="-10"/>
      <point x="532" y="118"/>
      <point x="532" y="246" type="curve" smooth="yes"/>
      <point x="532" y="390"/>
      <point x="454" y="510"/>
      <point x="308" y="510" type="curve"/>
      <point x="236" y="510"/>
      <point x="194" y="480"/>
      <point x="170" y="464" type="curve"/>
      <point x="170" y="680" type="line"/>
      <point x="60" y="680" type="line" smooth="yes"/>
    </contour>
    <contour>
      <point x="422" y="250" type="curve" smooth="yes"/>
      <point x="422" y="150"/>
      <point x="367" y="100"/>
      <point x="292" y="100" type="curve"/>
      <point x="217" y="100"/>
      <point x="166" y="150"/>
      <point x="166" y="250" type="curve" smooth="yes"/>
      <point x="166" y="350"/>
      <point x="219" y="400"/>
      <point x="292" y="400" type="curve"/>
      <point x="365" y="400"/>
      <point x="422" y="356"/>
    </contour>
  </outline>
</glyph>
<glyph name="c" format="2">
  <advance width="538"/>
  <unicode hex="0063"/>
  <anchor x="269.0" y="430.0" name="top"/>
  <anchor x="269.0" y="0.0" name="bottom"/>
  <outline>
    <contour>
      <point x="40" y="246" type="curve" smooth="yes"/>
      <point x="40" y="110"/>
      <point x="130" y="-10"/>
      <point x="268" y="-10" type="curve"/>
      <point x="426" y="-10"/>
      <point x="500" y="116"/>
      <point x="500" y="200" type="curve"/>
      <point x="396" y="200" type="line"/>
      <point x="378" y="154"/>
      <point x="354" y="100"/>
      <point x="278" y="100" type="curve" smooth="yes"/>
      <point x="211" y="100"/>
      <point x="150" y="144"/>
      <point x="150" y="250" type="curve" smooth="yes"/>
      <point x="150" y="350"/>
      <point x="205" y="400"/>
      <point x="270" y="400" type="curve" smooth="yes"/>
      <point x="345" y="400"/>
      <point x="376" y="352"/>
      <point x="386" y="290" type="curve"/>
      <point x="502" y="290" type="line"/>
      <point x="488" y="358"/>
      <point x="448" y="510"/>
      <point x="274" y="510" type="curve" smooth="yes"/>
      <point x="138" y="510"/>
      <point x="40" y="401"/>
    </contour>
  </outline>
</glyph>
<glyph name="e" format="2">
  <advance width="533"/>
  <unicode hex="0065"/>
  <anchor x="267.0" y="430.0" name="top"/>
  <anchor x="298.0" y="0.0" name="bottom"/>
  <outline>
    <contour>
      <point x="35" y="246" type="curve" smooth="yes"/>
      <point x="35" y="110"/>
      <point x="129" y="-10"/>
      <point x="275" y="-10" type="curve" smooth="yes"/>
      <point x="425" y="-10"/>
      <point x="489" y="102"/>
      <point x="495" y="170" type="curve"/>
      <point x="385" y="170" type="line"/>
      <point x="375" y="148"/>
      <point x="351" y="100"/>
      <point x="274" y="100" type="curve" smooth="yes"/>
      <point x="207" y="100"/>
      <point x="155" y="137"/>
      <point x="146" y="224" type="curve"/>
      <point x="501" y="224" type="line"/>
      <point x="494" y="410"/>
      <point x="407" y="510"/>
      <point x="267" y="510" type="curve" smooth="yes"/>
      <point x="127" y="510"/>
      <point x="35" y="381"/>
    </contour>
    <contour>
      <point x="271" y="420" type="curve" smooth="yes"/>
      <point x="335" y="420"/>
      <point x="376" y="385"/>
      <point x="383" y="324" type="curve"/>
      <point x="154" y="324" type="line"/>
      <point x="172" y="391"/>
      <point x="218" y="420"/>
    </contour>
  </outline>
</glyph>
<glyph name="f" format="2">
  <advance width="287"/>
  <unicode hex="0066"/>
  <outline>
    <contour>
      <point x="80" y="0" type="line"/>
      <point x="190" y="0" type="line"/>
      <point x="190" y="390" type="line"/>
      <point x="260" y="390" type="line"/>
      <point x="260" y="500" type="line"/>
      <point x="190" y="500" type="line"/>
      <point x="190" y="538" type="line" smooth="yes"/>
      <point x="190" y="568"/>
      <point x="210" y="576"/>
      <point x="230" y="576" type="curve" smooth="yes"/>
      <point x="248" y="576"/>
      <point x="260" y="574"/>
      <point x="267" y="574" type="curve"/>
      <point x="267" y="684" type="line"/>
      <point x="258" y="685"/>
      <point x="234" y="690"/>
      <point x="188" y="690" type="curve"/>
      <point x="112" y="690"/>
      <point x="80" y="630"/>
      <point x="80" y="582" type="curve" smooth="yes"/>
      <point x="80" y="500" type="line"/>
      <point x="20" y="500" type="line"/>
      <point x="20" y="390" type="line"/>
      <point x="80" y="390" type="line"/>
    </contour>
  </outline>
</glyph>
<glyph name="g" format="2">
  <advance width="560"/>
  <unicode hex="0067"/>
  <anchor x="290.0" y="430.0" name="top"/>
  <outline>
    <contour>
      <point x="390" y="0" type="line"/>
      <point x="390" y="-60"/>
      <point x="356" y="-100"/>
      <point x="276" y="-100" type="curve" smooth="yes"/>
      <point x="186" y="-100"/>
      <point x="170" y="-53"/>
      <point x="158" y="-20" type="curve"/>
      <point x="44" y="-20" type="line"/>
      <point x="44" y="-128"/>
      <point x="136" y="-190"/>
      <point x="278" y="-190" type="curve" smooth="yes"/>
      <point x="424" y="-190"/>
      <point x="500" y="-118"/>
      <point x="500" y="10" type="curve"/>
      <point x="500" y="500" type="line"/>
      <point x="394" y="500" type="line"/>
      <point x="394" y="464" type="line"/>
      <point x="372" y="482"/>
      <point x="330" y="510"/>
      <point x="256" y="510" type="curve" smooth="yes"/>
      <point x="128" y="510"/>
      <point x="40" y="391"/>
      <point x="40" y="256" type="curve" smooth="yes"/>
      <point x="40" y="130"/>
      <point x="116" y="20"/>
      <point x="262" y="20" type="curve" smooth="yes"/>
      <point x="323" y="20"/>
      <point x="366" y="43"/>
      <point x="390" y="62" type="curve"/>
    </contour>
    <contour>
      <point x="150" y="256" type="curve" smooth="yes"/>
      <point x="150" y="346"/>
      <point x="199" y="400"/>
      <point x="274" y="400" type="curve" smooth="yes"/>
      <point x="349" y="400"/>
      <point x="394" y="346"/>
      <point x="394" y="256" type="curve" smooth="yes"/>
      <point x="394" y="160"/>
      <point x="347" y="110"/>
      <point x="274" y="110" type="curve" smooth="yes"/>
      <point x="201" y="110"/>
      <point x="150" y="160"/>
    </contour>
  </outline>
</glyph>
<glyph name="h" format="2">
  <advance width="527"/>
  <unicode hex="0068"/>
  <anchor x="263.5" y="430.0" name="top"/>
  <anchor x="263.5" y="465.0" name="center"/>
  <outline>
    <contour>
      <point x="471" y="0" type="line"/>
      <point x="471" y="354" type="line" smooth="yes"/>
      <point x="471" y="464"/>
      <point x="397" y="510"/>
      <point x="310" y="510" type="curve" smooth="yes"/>
      <point x="230" y="510"/>
      <point x="184" y="478"/>
      <point x="166" y="460" type="curve"/>
      <point x="166" y="680" type="line"/>
      <point x="60" y="680" type="line"/>
      <point x="60" y="0" type="line"/>
      <point x="170" y="0" type="line"/>
      <point x="170" y="270" type="line" smooth="yes"/>
      <point x="170" y="330"/>
      <point x="189" y="416"/>
      <point x="270" y="416" type="curve" smooth="yes"/>
      <point x="319" y="416"/>
      <point x="357" y="386"/>
      <point x="357" y="330" type="curve" smooth="yes"/>
      <point x="357" y="0" type="line"/>
    </contour>
  </outline>
</glyph>
<glyph name="i" format="2">
  <advance width="234"/>
  <unicode hex="0069"/>
  <anchor x="117.0" y="0.0" name="bottom"/>
  <outline>
    <contour>
      <point x="60" y="690" type="line"/>
      <point x="60" y="570" type="line"/>
      <point x="174" y="570" type="line"/>
      <point x="174" y="690" type="line"/>
    </contour>
    <contour>
      <point x="60" y="500" type="line"/>
      <point x="60" y="0" type="line" smooth="yes"/>
      <point x="174" y="0" type="line"/>
      <point x="174" y="500" type="line"/>
    </contour>
  </outline>
</glyph>
<glyph name="k" format="2">
  <advance width="490"/>
  <unicode hex="006B"/>
  <anchor x="245.0" y="0.0" name="bottom"/>
  <outline>
    <contour>
      <point x="60" y="680" type="line"/>
      <point x="60" y="0" type="line"/>
      <point x="174" y="0" type="line"/>
      <point x="174" y="202" type="line"/>
      <point x="236" y="260" type="line"/>
      <point x="362" y="0" type="line"/>
      <point x="490" y="0" type="line"/>
      <point x="316" y="335" type="line"/>
      <point x="490" y="500" type="line"/>
      <point x="352" y="500" type="line"/>
      <point x="174" y="327" type="line"/>
      <point x="174" y="680" type="line"/>
    </contour>
  </outline>
</glyph>
<glyph name="l" format="2">
  <advance width="234"/>
  <unicode hex="006C"/>
  <anchor x="129.0" y="605.0" name="top"/>
  <anchor x="117.0" y="465.0" name="center"/>
  <anchor x="117.0" y="0.0" name="bottom"/>
  <outline>
    <contour>
      <point x="60" y="680" type="line"/>
      <point x="60" y="0" type="line"/>
      <point x="174" y="0" type="line"/>
      <point x="174" y="680" type="line"/>
    </contour>
  </outline>
</glyph>
<glyph name="m" format="2">
  <advance width="816"/>
  <unicode hex="006D"/>
  <outline>
    <contour>
      <point x="467" y="0" type="line"/>
      <point x="467" y="270" type="line" smooth="yes"/>
      <point x="467" y="324"/>
      <point x="482" y="405"/>
      <point x="563" y="405" type="curve" smooth="yes"/>
      <point x="612" y="405"/>
      <point x="646" y="377"/>
      <point x="646" y="330" type="curve" smooth="yes"/>
      <point x="646" y="0" type="line"/>
      <point x="760" y="0" type="line"/>
      <point x="760" y="354" type="line" smooth="yes"/>
      <point x="760" y="464"/>
      <point x="690" y="510"/>
      <point x="603" y="510" type="curve" smooth="yes"/>
      <point x="516" y="510"/>
      <point x="467" y="466"/>
      <point x="445" y="444" type="curve"/>
      <point x="418" y="490"/>
      <point x="368" y="510"/>
      <point x="310" y="510" type="curve" smooth="yes"/>
      <point x="230" y="510"/>
      <point x="188" y="474"/>
      <point x="170" y="460" type="curve"/>
      <point x="170" y="500" type="line"/>
      <point x="60" y="500" type="line"/>
      <point x="60" y="0" type="line"/>
      <point x="174" y="0" type="line"/>
      <point x="174" y="270" type="line" smooth="yes"/>
      <point x="174" y="324"/>
      <point x="189" y="405"/>
      <point x="270" y="405" type="curve" smooth="yes"/>
      <point x="319" y="405"/>
      <point x="353" y="377"/>
      <point x="353" y="330" type="curve" smooth="yes"/>
      <point x="353" y="0" type="line"/>
    </contour>
  </outline>
</glyph>
<glyph name="n" format="2">
  <advance width="531"/>
  <unicode hex="006E"/>
  <anchor x="265.5" y="430.0" name="top"/>
  <anchor x="265.5" y="0.0" name="bottom"/>
  <outline>
    <contour>
      <point x="475" y="0" type="line"/>
      <point x="475" y="354" type="line" smooth="yes"/>
      <point x="475" y="464"/>
      <point x="401" y="510"/>
      <point x="314" y="510" type="curve" smooth="yes"/>
      <point x="263" y="510"/>
      <point x="211" y="492"/>
      <point x="170" y="460" type="curve"/>
      <point x="170" y="500" type="line"/>
      <point x="60" y="500" type="line"/>
      <point x="60" y="0" type="line"/>
      <point x="174" y="0" type="line"/>
      <point x="174" y="280" type="line" smooth="yes"/>
      <point x="174" y="334"/>
      <point x="193" y="405"/>
      <point x="274" y="405" type="curve" smooth="yes"/>
      <point x="325" y="405"/>
      <point x="361" y="377"/>
      <point x="361" y="330" type="curve" smooth="yes"/>
      <point x="361" y="0" type="line"/>
    </contour>
  </outline>
</glyph>
<glyph name="o" format="2">
  <advance width="560"/>
  <unicode hex="006F"/>
  <anchor x="280.0" y="430.0" name="top"/>
  <outline>
    <contour>
      <point x="40" y="246" type="curve" smooth="yes"/>
      <point x="40" y="120"/>
      <point x="120" y="-10"/>
      <point x="280" y="-10" type="curve" smooth="yes"/>
      <point x="440" y="-10"/>
      <point x="520" y="120"/>
      <point x="520" y="246" type="curve" smooth="yes"/>
      <point x="520" y="381"/>
      <point x="430" y="510"/>
      <point x="280" y="510" type="curve" smooth="yes"/>
      <point x="130" y="510"/>
      <point x="40" y="381"/>
    </contour>
    <contour>
      <point x="410" y="250" type="curve" smooth="yes"/>
      <point x="410" y="154"/>
      <point x="357" y="100"/>
      <point x="280" y="100" type="curve" smooth="yes"/>
      <point x="203" y="100"/>
      <point x="150" y="154"/>
      <point x="150" y="250" type="curve" smooth="yes"/>
      <point x="150" y="340"/>
      <point x="201" y="400"/>
      <point x="280" y="400" type="curve" smooth="yes"/>
      <point x="359" y="400"/>
      <point x="410" y="340"/>
    </contour>
  </outline>
</glyph>
<glyph name="p" format="2">
  <advance width="572"/>
  <unicode hex="0070"/>
  <outline>
    <contour>
      <point x="60" y="500" type="line"/>
      <point x="60" y="-180" type="line" smooth="yes"/>
      <point x="170" y="-180" type="line"/>
      <point x="170" y="36" type="line"/>
      <point x="194" y="20"/>
      <point x="236" y="-10"/>
      <point x="308" y="-10" type="curve"/>
      <point x="454" y="-10"/>
      <point x="532" y="110"/>
      <point x="532" y="254" type="curve" smooth="yes"/>
      <point x="532" y="382"/>
      <point x="450" y="510"/>
      <point x="304" y="510" type="curve"/>
      <point x="232" y="510"/>
      <point x="188" y="472"/>
      <point x="166" y="456" type="curve"/>
      <point x="166" y="500" type="line"/>
    </contour>
    <contour>
      <point x="422" y="250" type="curve" smooth="yes"/>
      <point x="422" y="144"/>
      <point x="365" y="100"/>
      <point x="292" y="100" type="curve"/>
      <point x="219" y="100"/>
      <point x="166" y="150"/>
      <point x="166" y="250" type="curve" smooth="yes"/>
      <point x="166" y="350"/>
      <point x="217" y="400"/>
      <point x="292" y="400" type="curve"/>
      <point x="367" y="400"/>
      <point x="422" y="350"/>
    </contour>
  </outline>
</glyph>
<glyph name="q" format="2">
  <advance width="572"/>
  <unicode hex="0071"/>
  <outline>
    <contour>
      <point x="512" y="500" type="line"/>
      <point x="406" y="500" type="line"/>
      <point x="406" y="456" type="line"/>
      <point x="384" y="472"/>
      <point x="340" y="510"/>
      <point x="268" y="510" type="curve"/>
      <point x="122" y="510"/>
      <point x="40" y="382"/>
      <point x="40" y="254" type="curve" smooth="yes"/>
      <point x="40" y="110"/>
      <point x="118" y="-10"/>
      <point x="264" y="-10" type="curve"/>
      <point x="336" y="-10"/>
      <point x="378" y="20"/>
      <point x="402" y="36" type="curve"/>
      <point x="402" y="-180" type="line"/>
      <point x="512" y="-180" type="line" smooth="yes"/>
    </contour>
    <contour>
      <point x="150" y="250" type="curve" smooth="yes"/>
      <point x="150" y="350"/>
      <point x="205" y="400"/>
      <point x="280" y="400" type="curve"/>
      <point x="355" y="400"/>
      <point x="406" y="350"/>
      <point x="406" y="250" type="curve" smooth="yes"/>
      <point x="406" y="150"/>
      <point x="353" y="100"/>
      <point x="280" y="100" type="curve"/>
      <point x="207" y="100"/>
      <point x="150" y="144"/>
    </contour>
  </outline>
</glyph>
<glyph name="r" format="2">
  <advance width="379"/>
  <unicode hex="0072"/>
  <anchor x="189.5" y="430.0" name="top"/>
  <anchor x="120.0" y="0.0" name="bottom"/>
  <outline>
    <contour>
      <point x="370" y="384" type="curve"/>
      <point x="376" y="494" type="line"/>
      <point x="354" y="504"/>
      <point x="326" y="510"/>
      <point x="296" y="510" type="curve"/>
      <point x="232" y="510"/>
      <point x="198" y="478"/>
      <point x="170" y="444" type="curve"/>
      <point x="170" y="500" type="line"/>
      <point x="60" y="500" type="line"/>
      <point x="60" y="0" type="line"/>
      <point x="174" y="0" type="line"/>
      <point x="174" y="251" type="line" smooth="yes"/>
      <point x="174" y="372"/>
      <point x="217" y="402"/>
      <point x="290" y="402" type="curve"/>
      <point x="328" y="402"/>
      <point x="347" y="394"/>
    </contour>
  </outline>
</glyph>
<glyph name="s" format="2">
  <advance width="480"/>
  <unicode hex="0073"/>
  <anchor x="240.0" y="430.0" name="top"/>
  <anchor x="240.0" y="0.0" name="bottom"/>
  <outline>
    <contour>
      <point x="328" y="356" type="curve"/>
      <point x="442" y="356" type="line"/>
      <point x="442" y="406"/>
      <point x="400" y="510"/>
      <point x="242" y="510" type="curve" smooth="yes"/>
      <point x="96" y="510"/>
      <point x="44" y="436"/>
      <point x="44" y="358" type="curve" smooth="yes"/>
      <point x="44" y="168"/>
      <point x="340" y="242"/>
      <point x="340" y="143" type="curve" smooth="yes"/>
      <point x="340" y="101"/>
      <point x="308" y="80"/>
      <point x="253" y="80" type="curve" smooth="yes"/>
      <point x="178" y="80"/>
      <point x="152" y="121"/>
      <point x="144" y="160" type="curve"/>
      <point x="30" y="160" type="line"/>
      <point x="30" y="100"/>
      <point x="65" y="-10"/>
      <point x="244" y="-10" type="curve" smooth="yes"/>
      <point x="382" y="-10"/>
      <point x="450" y="63"/>
      <point x="450" y="157" type="curve" smooth="yes"/>
      <point x="450" y="351"/>
      <point x="154" y="289"/>
      <point x="154" y="373" type="curve" smooth="yes"/>
      <point x="154" y="399"/>
      <point x="174" y="425"/>
      <point x="232" y="425" type="curve" smooth="yes"/>
      <point x="292" y="425"/>
      <point x="330" y="401"/>
    </contour>
  </outline>
</glyph>
<glyph name="t" format="2">
  <advance width="297"/>
  <unicode hex="0074"/>
  <anchor x="148.5" y="465.0" name="center"/>
  <anchor x="148.5" y="0.0" name="bottom"/>
  <anchor x="247.0" y="603.0" name="top"/>
  <outline>
    <contour>
      <point x="80" y="680" type="line"/>
      <point x="80" y="500" type="line"/>
      <point x="20" y="500" type="line"/>
      <point x="20" y="390" type="line"/>
      <point x="80" y="390" type="line"/>
      <point x="80" y="84" type="line" smooth="yes"/>
      <point x="80" y="36"/>
      <point x="112" y="-10"/>
      <point x="188" y="-10" type="curve"/>
      <point x="234" y="-10"/>
      <point x="258" y="-1"/>
      <point x="267" y="2" type="curve"/>
      <point x="267" y="102" type="line"/>
      <point x="260" y="98"/>
      <point x="248" y="94"/>
      <point x="230" y="94" type="curve" smooth="yes"/>
      <point x="210" y="94"/>
      <point x="190" y="102"/>
      <point x="190" y="132" type="curve" smooth="yes"/>
      <point x="190" y="390" type="line"/>
      <point x="260" y="390" type="line"/>
      <point x="260" y="500" type="line"/>
      <point x="190" y="500" type="line"/>
      <point x="190" y="680" type="line"/>
    </contour>
  </outline>
</glyph>
<glyph name="u" format="2">
  <advance width="531"/>
  <unicode hex="0075"/>
  <anchor x="265.5" y="430.0" name="top"/>
  <anchor x="265.5" y="0.0" name="bottom"/>
  <outline>
    <contour>
      <point x="56" y="500" type="line"/>
      <point x="56" y="156" type="line" smooth="yes"/>
      <point x="56" y="46"/>
      <point x="131" y="-10"/>
      <point x="218" y="-10" type="curve" smooth="yes"/>
      <point x="298" y="-10"/>
      <point x="343" y="26"/>
      <point x="361" y="40" type="curve"/>
      <point x="361" y="0" type="line"/>
      <point x="471" y="0" type="line"/>
      <point x="471" y="500" type="line"/>
      <point x="357" y="500" type="line"/>
      <point x="357" y="220" type="line" smooth="yes"/>
      <point x="357" y="160"/>
      <point x="339" y="80"/>
      <point x="258" y="80" type="curve" smooth="yes"/>
      <point x="209" y="80"/>
      <point x="170" y="110"/>
      <point x="170" y="170" type="curve" smooth="yes"/>
      <point x="170" y="500" type="line"/>
    </contour>
  </outline>
</glyph>
<glyph name="w" format="2">
  <advance width="774"/>
  <unicode hex="0077"/>
  <anchor x="387.0" y="430.0" name="top"/>
  <outline>
    <contour>
      <point x="0" y="500" type="line"/>
      <point x="168" y="0" type="line"/>
      <point x="282" y="0" type="line"/>
      <point x="386" y="328" type="line"/>
      <point x="492" y="0" type="line"/>
      <point x="606" y="0" type="line"/>
      <point x="774" y="500" type="line"/>
      <point x="658" y="500" type="line"/>
      <point x="549" y="156" type="line"/>
      <point x="440" y="500" type="line"/>
      <point x="330" y="500" type="line"/>
      <point x="223" y="162" type="line"/>
      <point x="116" y="500" type="line"/>
    </contour>
  </outline>
</glyph>
<glyph name="x" format="2">
  <advance width="504"/>
  <unicode hex="0078"/>
  <outline>
    <contour>
      <point x="10" y="0" type="line"/>
      <point x="136" y="0" type="line"/>
      <point x="252" y="162" type="line"/>
      <point x="368" y="0" type="line" smooth="yes"/>
      <point x="494" y="0" type="line"/>
      <point x="315" y="250" type="line"/>
      <point x="494" y="500" type="line"/>
      <point x="368" y="500" type="line" smooth="yes"/>
      <point x="252" y="338" type="line"/>
      <point x="136" y="500" type="line"/>
      <point x="10" y="500" type="line"/>
      <point x="189" y="250" type="line"/>
    </contour>
  </outline>
</glyph>
<glyph name="y" format="2">
  <advance width="474"/>
  <unicode hex="0079"/>
  <anchor x="237.0" y="430.0" name="top"/>
  <outline>
    <contour>
      <point x="110" y="-84" type="curve" smooth="yes"/>
      <point x="72" y="-84"/>
      <point x="24" y="-82"/>
      <point x="0" y="-78" type="curve"/>
      <point x="0" y="-184" type="line"/>
      <point x="28" y="-188"/>
      <point x="56" y="-190"/>
      <point x="100" y="-190" type="curve" smooth="yes"/>
      <point x="174" y="-190"/>
      <point x="241" y="-141"/>
      <point x="264" y="-78" type="curve" smooth="yes"/>
      <point x="474" y="500" type="line"/>
      <point x="354" y="500" type="line"/>
      <point x="235" y="132" type="line"/>
      <point x="120" y="500" type="line"/>
      <point x="0" y="500" type="line"/>
      <point x="166" y="16" type="line" smooth="yes"/>
      <point x="171" y="2"/>
      <point x="174" y="-10"/>
      <point x="174" y="-20" type="curve" smooth="yes"/>
      <point x="174" y="-56"/>
      <point x="140" y="-84"/>
    </contour>
  </outline>
</glyph>
<glyph name="z" format="2">
  <advance width="464"/>
  <unicode hex="007A"/>
  <anchor x="232.0" y="430.0" name="top"/>
  <outline>
    <contour>
      <point x="30" y="0" type="line"/>
      <point x="434" y="0" type="line" smooth="yes"/>
      <point x="434" y="90" type="line"/>
      <point x="174" y="90" type="line"/>
      <point x="434" y="410" type="line"/>
      <point x="434" y="500" type="line"/>
      <point x="40" y="500" type="line"/>
      <point x="40" y="410" type="line"/>
      <point x="290" y="410" type="line" smooth="yes"/>
      <point x="30" y="90" type="line"/>
    </contour>
  </outline>
</glyph>
<glyph name="braceleft" format="2">
  <advance width="291"/>
  <unicode hex="007B"/>
  <outline>
    <contour>
      <point x="114" y="116" type="curve"/>
      <point x="114" y="48"/>
      <point x="85" y="11"/>
      <point x="85" y="-56" type="curve" smooth="yes"/>
      <point x="85" y="-103"/>
      <point x="104" y="-140"/>
      <point x="126" y="-166" type="curve"/>
      <point x="228" y="-166" type="line"/>
      <point x="203" y="-136"/>
      <point x="182" y="-99"/>
      <point x="182" y="-50" type="curve" smooth="yes"/>
      <point x="182" y="9"/>
      <point x="207" y="44"/>
      <point x="207" y="110" type="curve" smooth="yes"/>
      <point x="207" y="172"/>
      <point x="182" y="229"/>
      <point x="124" y="250" type="curve"/>
      <point x="182" y="271"/>
      <point x="207" y="328"/>
      <point x="207" y="390" type="curve" smooth="yes"/>
      <point x="207" y="456"/>
      <point x="182" y="491"/>
      <point x="182" y="550" type="curve" smooth="yes"/>
      <point x="182" y="599"/>
      <point x="203" y="636"/>
      <point x="228" y="666" type="curve"/>
      <point x="126" y="666" type="line"/>
      <point x="104" y="640"/>
      <point x="85" y="603"/>
      <point x="85" y="556" type="curve" smooth="yes"/>
      <point x="85" y="489"/>
      <point x="114" y="452"/>
      <point x="114" y="384" type="curve"/>
      <point x="114" y="326"/>
      <point x="84" y="305"/>
      <point x="50" y="305" type="curve"/>
      <point x="50" y="195" type="line"/>
      <point x="84" y="195"/>
      <point x="114" y="174"/>
    </contour>
  </outline>
</glyph>
<glyph name="bar" format="2">
  <advance width="218"/>
  <unicode hex="007C"/>
  <outline>
    <contour>
      <point x="64" y="0" type="line"/>
      <point x="154" y="0" type="line"/>
      <point x="154" y="680" type="line"/>
      <point x="64" y="680" type="line"/>
    </contour>
  </outline>
</glyph>
<glyph name="braceright" format="2">
  <advance width="291"/>
  <unicode hex="007D"/>
  <outline>
    <contour>
      <point x="177" y="116" type="curve"/>
      <point x="177" y="174"/>
      <point x="207" y="195"/>
      <point x="241" y="195" type="curve"/>
      <point x="241" y="305" type="line"/>
      <point x="207" y="305"/>
      <point x="177" y="326"/>
      <point x="177" y="384" type="curve"/>
      <point x="177" y="452"/>
      <point x="206" y="489"/>
      <point x="206" y="556" type="curve" smooth="yes"/>
      <point x="206" y="603"/>
      <point x="187" y="640"/>
      <point x="165" y="666" type="curve"/>
      <point x="63" y="666" type="line"/>
      <point x="88" y="636"/>
      <point x="109" y="599"/>
      <point x="109" y="550" type="curve" smooth="yes"/>
      <point x="109" y="491"/>
      <point x="84" y="456"/>
      <point x="84" y="390" type="curve" smooth="yes"/>
      <point x="84" y="328"/>
      <point x="109" y="271"/>
      <point x="167" y="250" type="curve"/>
      <point x="109" y="229"/>
      <point x="84" y="172"/>
      <point x="84" y="110" type="curve" smooth="yes"/>
      <point x="84" y="44"/>
      <point x="109" y="9"/>
      <point x="109" y="-50" type="curve" smooth="yes"/>
      <point x="109" y="-99"/>
      <point x="88" y="-136"/>
      <point x="63" y="-166" type="curve"/>
      <point x="165" y="-166" type="line"/>
      <point x="187" y="-140"/>
      <point x="206" y="-103"/>
      <point x="206" y="-56" type="curve" smooth="yes"/>
      <point x="206" y="11"/>
      <point x="177" y="48"/>
    </contour>
  </outline>
</glyph>
<glyph name="asciitilde" format="2">
  <advance width="688"/>
  <unicode hex="007E"/>
  <outline>
    <contour>
      <point x="71" y="250" type="curve"/>
      <point x="191" y="250" type="line"/>
      <point x="183" y="284"/>
      <point x="187" y="308"/>
      <point x="235" y="308" type="curve" smooth="yes"/>
      <point x="307" y="308"/>
      <point x="382" y="256"/>
      <point x="490" y="256" type="curve" smooth="yes"/>
      <point x="590" y="256"/>
      <point x="654" y="305"/>
      <point x="630" y="414" type="curve"/>
      <point x="510" y="414" type="line"/>
      <point x="524" y="378"/>
      <point x="505" y="356"/>
      <point x="457" y="356" type="curve" smooth="yes"/>
      <point x="385" y="356"/>
      <point x="319" y="408"/>
      <point x="211" y="408" type="curve" smooth="yes"/>
      <point x="111" y="408"/>
      <point x="54" y="343"/>
    </contour>
  </outline>
</glyph>
<glyph name="exclamdown" format="2">
  <advance width="250"/>
  <unicode hex="00A1"/>
  <outline>
    <contour>
      <point x="55" y="360" type="line"/>
      <point x="195" y="360" type="line"/>
      <point x="195" y="500" type="line"/>
      <point x="55" y="500" type="line"/>
    </contour>
    <contour>
      <point x="70" y="284" type="line"/>
      <point x="55" y="-180" type="line"/>
      <point x="195" y="-180" type="line"/>
      <point x="180" y="284" type="line"/>
    </contour>
  </outline>
</glyph>
<glyph name="cent" format="2">
  <advance width="646"/>
  <unicode hex="00A2"/>
  <outline>
    <contour>
      <point x="132" y="340" type="curve" smooth="yes"/>
      <point x="132" y="243"/>
      <point x="194" y="157"/>
      <point x="282" y="136" type="curve"/>
      <point x="282" y="0" type="line"/>
      <point x="372" y="0" type="line"/>
      <point x="372" y="137" type="line"/>
      <point x="465" y="159"/>
      <point x="515" y="243"/>
      <point x="515" y="302" type="curve"/>
      <point x="420" y="302" type="line"/>
      <point x="411" y="278"/>
      <point x="399" y="252"/>
      <point x="372" y="239" type="curve"/>
      <point x="372" y="442" type="line"/>
      <point x="396" y="429"/>
      <point x="407" y="404"/>
      <point x="412" y="376" type="curve"/>
      <point x="516" y="376" type="line"/>
      <point x="505" y="425"/>
      <point x="472" y="526"/>
      <point x="372" y="550" type="curve"/>
      <point x="372" y="680" type="line"/>
      <point x="282" y="680" type="line"/>
      <point x="282" y="550" type="line"/>
      <point x="196" y="529"/>
      <point x="132" y="448"/>
    </contour>
    <contour>
      <point x="232" y="342" type="curve" smooth="yes"/>
      <point x="232" y="397"/>
      <point x="251" y="430"/>
      <point x="282" y="445" type="curve"/>
      <point x="282" y="241" type="line"/>
      <point x="252" y="257"/>
      <point x="232" y="289"/>
    </contour>
  </outline>
</glyph>
<glyph name="sterling" format="2">
  <advance width="646"/>
  <unicode hex="00A3"/>
  <anchor x="302.0" y="750.0" name="top"/>
  <anchor x="288.0" y="-30.0" name="bottom"/>
  <outline>
    <contour>
      <point x="96" y="340" type="line"/>
      <point x="96" y="250" type="line"/>
      <point x="196" y="250" type="line"/>
      <point x="197" y="244"/>
      <point x="198" y="237"/>
      <point x="198" y="230" type="curve"/>
      <point x="198" y="170"/>
      <point x="162" y="128"/>
      <point x="100" y="98" type="curve"/>
      <point x="100" y="0" type="line"/>
      <point x="570" y="0" type="line"/>
      <point x="570" y="113" type="line"/>
      <point x="280" y="107" type="line"/>
      <point x="305" y="132"/>
      <point x="322" y="171"/>
      <point x="322" y="220" type="curve"/>
      <point x="322" y="231"/>
      <point x="321" y="241"/>
      <point x="320" y="250" type="curve"/>
      <point x="476" y="250" type="line"/>
      <point x="476" y="340" type="line"/>
      <point x="292" y="340" type="line"/>
      <point x="270" y="385"/>
      <point x="244" y="421"/>
      <point x="244" y="470" type="curve"/>
      <point x="244" y="536"/>
      <point x="278" y="570"/>
      <point x="340" y="571" type="curve"/>
      <point x="414" y="571"/>
      <point x="448" y="518"/>
      <point x="449" y="441" type="curve"/>
      <point x="583" y="441" type="line"/>
      <point x="578" y="585"/>
      <point x="498" y="690"/>
      <point x="345" y="690" type="curve"/>
      <point x="211" y="690"/>
      <point x="120" y="606"/>
      <point x="120" y="470" type="curve"/>
      <point x="120" y="413"/>
      <point x="138" y="374"/>
      <point x="156" y="340" type="curve"/>
    </contour>
  </outline>
</glyph>
<glyph name="currency" format="2">
  <advance width="519"/>
  <unicode hex="00A4"/>
  <guideline x="271" y="567" angle="0" identifier="7sjnnibnJ1"/>
  <guideline x="274" y="83" angle="0" identifier="PvcHE6oHzh"/>
  <outline>
    <contour>
      <point x="130" y="105" type="line"/>
      <point x="183" y="158" type="line"/>
      <point x="205" y="147"/>
      <point x="231" y="142"/>
      <point x="260" y="142" type="curve" smooth="yes"/>
      <point x="288" y="142"/>
      <point x="313" y="148"/>
      <point x="335" y="159" type="curve"/>
      <point x="389" y="105" type="line"/>
      <point x="453" y="169" type="line"/>
      <point x="400" y="222" type="line"/>
      <point x="413" y="245"/>
      <point x="420" y="272"/>
      <point x="420" y="301" type="curve" smooth="yes"/>
      <point x="420" y="331"/>
      <point x="414" y="357"/>
      <point x="404" y="379" type="curve"/>
      <point x="453" y="428" type="line"/>
      <point x="389" y="492" type="line"/>
      <point x="339" y="442" type="line"/>
      <point x="316" y="453"/>
      <point x="290" y="459"/>
      <point x="260" y="459" type="curve" smooth="yes"/>
      <point x="231" y="459"/>
      <point x="204" y="452"/>
      <point x="181" y="441" type="curve"/>
      <point x="130" y="492" type="line"/>
      <point x="66" y="428" type="line"/>
      <point x="118" y="376" type="line"/>
      <point x="106" y="354"/>
      <point x="100" y="329"/>
      <point x="100" y="301" type="curve" smooth="yes"/>
      <point x="100" y="270"/>
      <point x="106" y="243"/>
      <point x="118" y="221" type="curve"/>
      <point x="66" y="169" type="line"/>
    </contour>
    <contour>
      <point x="260" y="232" type="curve" smooth="yes"/>
      <point x="218" y="232"/>
      <point x="190" y="259"/>
      <point x="190" y="301" type="curve" smooth="yes"/>
      <point x="190" y="343"/>
      <point x="218" y="369"/>
      <point x="260" y="369" type="curve" smooth="yes"/>
      <point x="302" y="369"/>
      <point x="330" y="343"/>
      <point x="330" y="301" type="curve" smooth="yes"/>
      <point x="330" y="259"/>
      <point x="302" y="232"/>
    </contour>
  </outline>
</glyph>
<glyph name="brokenbar" format="2">
  <advance width="218"/>
  <unicode hex="00A6"/>
  <outline>
    <contour>
      <point x="64" y="430" type="line"/>
      <point x="154" y="430" type="line"/>
      <point x="154" y="680" type="line"/>
      <point x="64" y="680" type="line"/>
    </contour>
    <contour>
      <point x="64" y="0" type="line"/>
      <point x="154" y="0" type="line"/>
      <point x="154" y="250" type="line"/>
      <point x="64" y="250" type="line"/>
    </contour>
  </outline>
</glyph>
<glyph name="section" format="2">
  <advance width="480"/>
  <unicode hex="00A7"/>
  <outline>
    <contour>
      <point x="446" y="107" type="curve" smooth="yes"/>
      <point x="446" y="160"/>
      <point x="424" y="195"/>
      <point x="379" y="214" type="curve"/>
      <point x="428" y="240"/>
      <point x="450" y="278"/>
      <point x="450" y="337" type="curve" smooth="yes"/>
      <point x="450" y="511"/>
      <point x="164" y="469"/>
      <point x="164" y="553" type="curve" smooth="yes"/>
      <point x="164" y="579"/>
      <point x="184" y="605"/>
      <point x="242" y="605" type="curve" smooth="yes"/>
      <point x="302" y="605"/>
      <point x="340" y="581"/>
      <point x="338" y="536" type="curve"/>
      <point x="452" y="536" type="line"/>
      <point x="452" y="586"/>
      <point x="410" y="690"/>
      <point x="252" y="690" type="curve" smooth="yes"/>
      <point x="106" y="690"/>
      <point x="54" y="616"/>
      <point x="54" y="538" type="curve" smooth="yes"/>
      <point x="54" y="485"/>
      <point x="89" y="446"/>
      <point x="121" y="431" type="curve"/>
      <point x="69" y="407"/>
      <point x="44" y="367"/>
      <point x="44" y="308" type="curve" smooth="yes"/>
      <point x="44" y="134"/>
      <point x="336" y="176"/>
      <point x="336" y="92" type="curve" smooth="yes"/>
      <point x="336" y="66"/>
      <point x="316" y="40"/>
      <point x="258" y="40" type="curve" smooth="yes"/>
      <point x="198" y="40"/>
      <point x="160" y="64"/>
      <point x="162" y="109" type="curve"/>
      <point x="48" y="109" type="line"/>
      <point x="48" y="59"/>
      <point x="90" y="-45"/>
      <point x="248" y="-45" type="curve" smooth="yes"/>
      <point x="394" y="-45"/>
      <point x="446" y="29"/>
    </contour>
    <contour>
      <point x="149" y="322" type="curve" smooth="yes"/>
      <point x="149" y="364"/>
      <point x="183" y="386"/>
      <point x="241" y="386" type="curve" smooth="yes"/>
      <point x="300" y="386"/>
      <point x="345" y="361"/>
      <point x="345" y="323" type="curve" smooth="yes"/>
      <point x="345" y="281"/>
      <point x="309" y="260"/>
      <point x="248" y="260" type="curve" smooth="yes"/>
      <point x="192" y="260"/>
      <point x="149" y="284"/>
    </contour>
  </outline>
</glyph>
<glyph name="dieresis" format="2">
  <advance width="500"/>
  <unicode hex="00A8"/>
  <anchor x="250.0" y="610.0" name="_top"/>
  <outline>
    <contour>
      <point x="93" y="860" type="line"/>
      <point x="93" y="740" type="line"/>
      <point x="207" y="740" type="line"/>
      <point x="207" y="860" type="line"/>
    </contour>
    <contour>
      <point x="293" y="860" type="line"/>
      <point x="293" y="740" type="line"/>
      <point x="407" y="740" type="line"/>
      <point x="407" y="860" type="line"/>
    </contour>
  </outline>
</glyph>
<glyph name="copyright" format="2">
  <advance width="820"/>
  <unicode hex="00A9"/>
  <anchor x="399.0" y="386.0" name="top"/>
  <anchor x="399.0" y="166.0" name="bottom"/>
  <anchor x="406.0" y="392.0" name="top"/>
  <anchor x="406.0" y="146.0" name="bottom"/>
  <outline>
    <contour>
      <point x="410" y="-10" type="curve" smooth="yes"/>
      <point x="602" y="-10"/>
      <point x="760" y="137"/>
      <point x="760" y="340" type="curve" smooth="yes"/>
      <point x="760" y="541"/>
      <point x="602" y="690"/>
      <point x="410" y="690" type="curve" smooth="yes"/>
      <point x="218" y="690"/>
      <point x="60" y="541"/>
      <point x="60" y="340" type="curve" smooth="yes"/>
      <point x="60" y="137"/>
      <point x="218" y="-10"/>
    </contour>
    <contour>
      <point x="410" y="74" type="curve" smooth="yes"/>
      <point x="268" y="74"/>
      <point x="150" y="187"/>
      <point x="150" y="340" type="curve" smooth="yes"/>
      <point x="150" y="493"/>
      <point x="268" y="606"/>
      <point x="410" y="606" type="curve" smooth="yes"/>
      <point x="554" y="606"/>
      <point x="670" y="493"/>
      <point x="670" y="340" type="curve" smooth="yes"/>
      <point x="670" y="187"/>
      <point x="554" y="74"/>
    </contour>
    <contour>
      <point x="487" y="307" type="line"/>
      <point x="473" y="248"/>
      <point x="450" y="228"/>
      <point x="409" y="228" type="curve" smooth="yes"/>
      <point x="360" y="228"/>
      <point x="331" y="261"/>
      <point x="331" y="340" type="curve" smooth="yes"/>
      <point x="331" y="419"/>
      <point x="360" y="452"/>
      <point x="409" y="452" type="curve" smooth="yes"/>
      <point x="449" y="452"/>
      <point x="476" y="432"/>
      <point x="483" y="369" type="curve"/>
      <point x="579" y="369" type="line"/>
      <point x="571" y="480"/>
      <point x="507" y="540"/>
      <point x="412" y="540" type="curve" smooth="yes"/>
      <point x="316" y="540"/>
      <point x="240" y="473"/>
      <point x="240" y="340" type="curve" smooth="yes"/>
      <point x="240" y="208"/>
      <point x="321" y="140"/>
      <point x="412" y="140" type="curve" smooth="yes"/>
      <point x="509" y="140"/>
      <point x="575" y="206"/>
      <point x="579" y="307" type="curve"/>
    </contour>
  </outline>
</glyph>
<glyph name="ordfeminine" format="2">
  <advance width="522"/>
  <unicode hex="00AA"/>
  <outline>
    <contour>
      <point x="422" y="406" type="curve" smooth="yes"/>
      <point x="422" y="563" type="line" smooth="yes"/>
      <point x="422" y="649"/>
      <point x="342" y="690"/>
      <point x="248" y="690" type="curve" smooth="yes"/>
      <point x="146" y="690"/>
      <point x="67" y="640"/>
      <point x="67" y="554" type="curve"/>
      <point x="167" y="554" type="line"/>
      <point x="167" y="601"/>
      <point x="194" y="626"/>
      <point x="246" y="626" type="curve"/>
      <point x="296" y="626"/>
      <point x="332" y="597"/>
      <point x="332" y="554" type="curve" smooth="yes"/>
      <point x="332" y="535" type="line"/>
      <point x="251" y="535" type="line" smooth="yes"/>
      <point x="136" y="535"/>
      <point x="57" y="504"/>
      <point x="57" y="413" type="curve" smooth="yes"/>
      <point x="57" y="342"/>
      <point x="126" y="280"/>
      <point x="219" y="280" type="curve" smooth="yes"/>
      <point x="292" y="280"/>
      <point x="334" y="314"/>
      <point x="349" y="325" type="curve"/>
      <point x="368" y="294"/>
      <point x="392" y="283"/>
      <point x="443" y="283" type="curve" smooth="yes"/>
      <point x="457" y="283"/>
      <point x="472" y="284"/>
      <point x="501" y="288" type="curve"/>
      <point x="501" y="376" type="line"/>
      <point x="486" y="373"/>
      <point x="475" y="371"/>
      <point x="464" y="371" type="curve" smooth="yes"/>
      <point x="438" y="371"/>
      <point x="422" y="382"/>
    </contour>
    <contour>
      <point x="157" y="403" type="curve"/>
      <point x="157" y="446"/>
      <point x="188" y="472"/>
      <point x="332" y="466" type="curve"/>
      <point x="332" y="432" type="line" smooth="yes"/>
      <point x="332" y="400"/>
      <point x="301" y="344"/>
      <point x="233" y="344" type="curve" smooth="yes"/>
      <point x="188" y="344"/>
      <point x="157" y="371"/>
    </contour>
  </outline>
</glyph>
<glyph name="guillemotleft" format="2">
  <advance width="715"/>
  <unicode hex="00AB"/>
  <outline>
    <contour>
      <point x="650" y="487" type="line"/>
      <point x="358" y="301" type="line"/>
      <point x="358" y="199" type="line"/>
      <point x="650" y="13" type="line"/>
      <point x="650" y="131" type="line"/>
      <point x="470" y="250" type="line"/>
      <point x="650" y="369" type="line"/>
    </contour>
    <contour>
      <point x="350" y="487" type="line"/>
      <point x="58" y="301" type="line"/>
      <point x="58" y="199" type="line"/>
      <point x="350" y="13" type="line"/>
      <point x="350" y="131" type="line"/>
      <point x="170" y="250" type="line"/>
      <point x="350" y="369" type="line"/>
    </contour>
  </outline>
</glyph>
<glyph name="logicalnot" format="2">
  <advance width="688"/>
  <unicode hex="00AC"/>
  <outline>
    <contour>
      <point x="70" y="372" type="line"/>
      <point x="528" y="372" type="line"/>
      <point x="528" y="202" type="line"/>
      <point x="618" y="202" type="line"/>
      <point x="618" y="462" type="line"/>
      <point x="70" y="462" type="line"/>
    </contour>
  </outline>
</glyph>
<glyph name="registered" format="2">
  <advance width="820"/>
  <unicode hex="00AE"/>
  <anchor x="399.0" y="166.0" name="bottom"/>
  <anchor x="406.0" y="146.0" name="bottom"/>
  <anchor x="397.0" y="140.0" name="bottom"/>
  <outline>
    <contour>
      <point x="410" y="-10" type="curve" smooth="yes"/>
      <point x="602" y="-10"/>
      <point x="760" y="137"/>
      <point x="760" y="340" type="curve" smooth="yes"/>
      <point x="760" y="541"/>
      <point x="602" y="690"/>
      <point x="410" y="690" type="curve" smooth="yes"/>
      <point x="218" y="690"/>
      <point x="60" y="541"/>
      <point x="60" y="340" type="curve" smooth="yes"/>
      <point x="60" y="137"/>
      <point x="218" y="-10"/>
    </contour>
    <contour>
      <point x="268" y="140" type="line"/>
      <point x="358" y="140" type="line"/>
      <point x="358" y="303" type="line"/>
      <point x="388" y="303" type="line"/>
      <point x="423" y="303"/>
      <point x="434" y="279"/>
      <point x="440" y="248" type="curve" smooth="yes"/>
      <point x="447" y="213" type="line" smooth="yes"/>
      <point x="455" y="175"/>
      <point x="460" y="149"/>
      <point x="481" y="140" type="curve"/>
      <point x="584" y="140" type="line"/>
      <point x="538" y="98"/>
      <point x="477" y="74"/>
      <point x="410" y="74" type="curve" smooth="yes"/>
      <point x="268" y="74"/>
      <point x="150" y="187"/>
      <point x="150" y="340" type="curve" smooth="yes"/>
      <point x="150" y="493"/>
      <point x="268" y="606"/>
      <point x="410" y="606" type="curve" smooth="yes"/>
      <point x="554" y="606"/>
      <point x="670" y="493"/>
      <point x="670" y="340" type="curve" smooth="yes"/>
      <point x="670" y="261"/>
      <point x="639" y="192"/>
      <point x="588" y="144" type="curve"/>
      <point x="564" y="164"/>
      <point x="548" y="194"/>
      <point x="541" y="226" type="curve" smooth="yes"/>
      <point x="532" y="266" type="line" smooth="yes"/>
      <point x="527" y="288"/>
      <point x="518" y="309"/>
      <point x="497" y="322" type="curve"/>
      <point x="535" y="342"/>
      <point x="563" y="377"/>
      <point x="563" y="422" type="curve" smooth="yes"/>
      <point x="563" y="493"/>
      <point x="521" y="540"/>
      <point x="434" y="540" type="curve" smooth="yes"/>
      <point x="268" y="540" type="line"/>
    </contour>
    <contour>
      <point x="429" y="460" type="line" smooth="yes"/>
      <point x="453" y="460"/>
      <point x="469" y="444"/>
      <point x="469" y="422" type="curve" smooth="yes"/>
      <point x="469" y="400"/>
      <point x="456" y="384"/>
      <point x="429" y="384" type="curve" smooth="yes"/>
      <point x="358" y="384" type="line"/>
      <point x="358" y="460" type="line"/>
    </contour>
  </outline>
</glyph>
<glyph name="macron" format="2">
  <advance width="500"/>
  <unicode hex="00AF"/>
  <anchor x="250.0" y="778.0" name="_center"/>
  <anchor x="250.0" y="610.0" name="_top"/>
  <outline>
    <contour>
      <point x="82" y="748" type="line"/>
      <point x="418" y="748" type="line"/>
      <point x="418" y="833" type="line"/>
      <point x="82" y="833" type="line"/>
    </contour>
  </outline>
</glyph>
<glyph name="degree" format="2">
  <advance width="379"/>
  <unicode hex="00B0"/>
  <outline>
    <contour>
      <point x="30" y="531" type="curve" smooth="yes"/>
      <point x="30" y="453"/>
      <point x="85" y="372"/>
      <point x="190" y="372" type="curve" smooth="yes"/>
      <point x="297" y="372"/>
      <point x="350" y="453"/>
      <point x="350" y="531" type="curve" smooth="yes"/>
      <point x="350" y="614"/>
      <point x="290" y="690"/>
      <point x="190" y="690" type="curve" smooth="yes"/>
      <point x="91" y="690"/>
      <point x="30" y="614"/>
    </contour>
    <contour>
      <point x="260" y="531" type="curve" smooth="yes"/>
      <point x="260" y="494"/>
      <point x="232" y="462"/>
      <point x="190" y="462" type="curve" smooth="yes"/>
      <point x="148" y="462"/>
      <point x="120" y="489"/>
      <point x="120" y="531" type="curve" smooth="yes"/>
      <point x="120" y="568"/>
      <point x="148" y="600"/>
      <point x="190" y="600" type="curve" smooth="yes"/>
      <point x="232" y="600"/>
      <point x="260" y="568"/>
    </contour>
  </outline>
</glyph>
<glyph name="plusminus" format="2">
  <advance width="688"/>
  <unicode hex="00B1"/>
  <outline>
    <contour>
      <point x="70" y="0" type="line"/>
      <point x="618" y="0" type="line"/>
      <point x="618" y="100" type="line"/>
      <point x="394" y="100" type="line"/>
      <point x="394" y="281" type="line"/>
      <point x="618" y="281" type="line"/>
      <point x="618" y="381" type="line"/>
      <point x="394" y="381" type="line"/>
      <point x="394" y="605" type="line"/>
      <point x="294" y="605" type="line"/>
      <point x="294" y="381" type="line"/>
      <point x="70" y="381" type="line"/>
      <point x="70" y="281" type="line"/>
      <point x="294" y="281" type="line"/>
      <point x="294" y="100" type="line"/>
      <point x="70" y="100" type="line"/>
    </contour>
  </outline>
</glyph>
<glyph name="twosuperior" format="2">
  <advance width="420"/>
  <unicode hex="00B2"/>
  <outline>
    <contour>
      <point x="58" y="290" type="line"/>
      <point x="360" y="290" type="line"/>
      <point x="360" y="378" type="line"/>
      <point x="192" y="378" type="line"/>
      <point x="258" y="422" type="line" smooth="yes"/>
      <point x="313" y="459"/>
      <point x="354" y="492"/>
      <point x="354" y="564" type="curve" smooth="yes"/>
      <point x="354" y="628"/>
      <point x="310" y="690"/>
      <point x="212" y="690" type="curve" smooth="yes"/>
      <point x="118" y="690"/>
      <point x="50" y="632"/>
      <point x="59" y="532" type="curve"/>
      <point x="146" y="532" type="line"/>
      <point x="143" y="584"/>
      <point x="162" y="610"/>
      <point x="208" y="610" type="curve"/>
      <point x="249" y="610"/>
      <point x="266" y="588"/>
      <point x="266" y="556" type="curve" smooth="yes"/>
      <point x="266" y="516"/>
      <point x="245" y="500"/>
      <point x="192" y="462" type="curve" smooth="yes"/>
      <point x="58" y="365" type="line"/>
    </contour>
  </outline>
</glyph>
<glyph name="threesuperior" format="2">
  <advance width="420"/>
  <unicode hex="00B3"/>
  <outline>
    <contour>
      <point x="168" y="525" type="line"/>
      <point x="168" y="467" type="line"/>
      <point x="204" y="467" type="line" smooth="yes"/>
      <point x="247" y="467"/>
      <point x="266" y="446"/>
      <point x="266" y="412" type="curve"/>
      <point x="266" y="382"/>
      <point x="243" y="362"/>
      <point x="200" y="362" type="curve"/>
      <point x="152" y="362"/>
      <point x="129" y="391"/>
      <point x="131" y="426" type="curve"/>
      <point x="44" y="426" type="line"/>
      <point x="40" y="352"/>
      <point x="95" y="282"/>
      <point x="203" y="282" type="curve"/>
      <point x="305" y="282"/>
      <point x="361" y="339"/>
      <point x="361" y="402" type="curve" smooth="yes"/>
      <point x="361" y="451"/>
      <point x="340" y="482"/>
      <point x="299" y="499" type="curve"/>
      <point x="334" y="516"/>
      <point x="352" y="544"/>
      <point x="352" y="578" type="curve" smooth="yes"/>
      <point x="352" y="637"/>
      <point x="305" y="690"/>
      <point x="206" y="690" type="curve"/>
      <point x="101" y="690"/>
      <point x="44" y="620"/>
      <point x="51" y="555" type="curve"/>
      <point x="137" y="555" type="line"/>
      <point x="138" y="586"/>
      <point x="155" y="609"/>
      <point x="202" y="609" type="curve"/>
      <point x="241" y="609"/>
      <point x="260" y="590"/>
      <point x="260" y="566" type="curve"/>
      <point x="260" y="542"/>
      <point x="243" y="525"/>
      <point x="204" y="525" type="curve" smooth="yes"/>
    </contour>
  </outline>
</glyph>
<glyph name="acute" format="2">
  <advance width="500"/>
  <unicode hex="00B4"/>
  <anchor x="250.0" y="610.0" name="_top"/>
  <outline>
    <contour>
      <point x="216" y="870" type="line"/>
      <point x="186" y="730" type="line"/>
      <point x="286" y="730" type="line"/>
      <point x="400" y="870" type="line"/>
    </contour>
  </outline>
</glyph>
<glyph name="mu.math" format="2">
  <advance width="520"/>
  <unicode hex="00B5"/>
  <anchor x="330.0" y="560.0" name="top"/>
  <anchor x="564.0" y="0.0" name="right"/>
  <anchor x="330.0" y="-30.0" name="bottom"/>
  <outline>
    <contour>
      <point x="80" y="500" type="line"/>
      <point x="80" y="-200" type="line"/>
      <point x="170" y="-200" type="line"/>
      <point x="170" y="6" type="line"/>
      <point x="189" y="-4"/>
      <point x="212" y="-10"/>
      <point x="240" y="-10" type="curve" smooth="yes"/>
      <point x="289" y="-10"/>
      <point x="324" y="2"/>
      <point x="350" y="29" type="curve"/>
      <point x="350" y="0" type="line"/>
      <point x="440" y="0" type="line"/>
      <point x="440" y="500" type="line"/>
      <point x="350" y="500" type="line"/>
      <point x="350" y="160" type="line"/>
      <point x="350" y="100"/>
      <point x="320" y="70"/>
      <point x="260" y="70" type="curve" smooth="yes"/>
      <point x="200" y="70"/>
      <point x="170" y="100"/>
      <point x="170" y="160" type="curve"/>
      <point x="170" y="500" type="line"/>
    </contour>
  </outline>
</glyph>
<glyph name="paragraph" format="2">
  <advance width="500"/>
  <unicode hex="00B6"/>
  <outline>
    <contour>
      <point x="270" y="0" type="line"/>
      <point x="270" y="680" type="line"/>
      <point x="160" y="680" type="line"/>
      <point x="60" y="680"/>
      <point x="0" y="600"/>
      <point x="0" y="510" type="curve" smooth="yes"/>
      <point x="0" y="420"/>
      <point x="60" y="340"/>
      <point x="160" y="340" type="curve"/>
      <point x="180" y="340" type="line"/>
      <point x="180" y="0" type="line"/>
    </contour>
    <contour>
      <point x="440" y="0" type="line"/>
      <point x="440" y="680" type="line"/>
      <point x="350" y="680" type="line"/>
      <point x="350" y="0" type="line"/>
    </contour>
  </outline>
</glyph>
<glyph name="periodcentered" format="2">
  <advance width="500"/>
  <unicode hex="00B7"/>
  <anchor x="250.0" y="444.0" name="_center"/>
  <outline>
    <contour>
      <point x="193" y="310" type="line"/>
      <point x="193" y="190" type="line"/>
      <point x="307" y="190" type="line"/>
      <point x="307" y="310" type="line"/>
    </contour>
  </outline>
</glyph>
<glyph name="cedilla" format="2">
  <advance width="500"/>
  <unicode hex="00B8"/>
  <anchor x="250.0" y="0.0" name="_bottom"/>
  <outline>
    <contour>
      <point x="195" y="-157" type="line"/>
      <point x="206" y="-139"/>
      <point x="226" y="-122"/>
      <point x="262" y="-122" type="curve" smooth="yes"/>
      <point x="292" y="-122"/>
      <point x="316" y="-142"/>
      <point x="316" y="-172" type="curve" smooth="yes"/>
      <point x="316" y="-204"/>
      <point x="296" y="-224"/>
      <point x="260" y="-224" type="curve" smooth="yes"/>
      <point x="225" y="-224"/>
      <point x="203" y="-209"/>
      <point x="206" y="-182" type="curve"/>
      <point x="122" y="-182" type="line"/>
      <point x="118" y="-256"/>
      <point x="183" y="-298"/>
      <point x="258" y="-298" type="curve" smooth="yes"/>
      <point x="341" y="-298"/>
      <point x="404" y="-243"/>
      <point x="404" y="-174" type="curve" smooth="yes"/>
      <point x="404" y="-105"/>
      <point x="352" y="-55"/>
      <point x="279" y="-55" type="curve" smooth="yes"/>
      <point x="270" y="-55"/>
      <point x="262" y="-56"/>
      <point x="254" y="-58" type="curve"/>
      <point x="300" y="4" type="line"/>
      <point x="224" y="8" type="line"/>
      <point x="138" y="-136" type="line"/>
    </contour>
  </outline>
</glyph>
<glyph name="onesuperior" format="2">
  <advance width="420"/>
  <unicode hex="00B9"/>
  <outline>
    <contour>
      <point x="90" y="290" type="line"/>
      <point x="353" y="290" type="line"/>
      <point x="353" y="362" type="line"/>
      <point x="267" y="362" type="line"/>
      <point x="267" y="680" type="line"/>
      <point x="200" y="680" type="line"/>
      <point x="192" y="648"/>
      <point x="181" y="617"/>
      <point x="88" y="610" type="curve"/>
      <point x="88" y="550" type="line"/>
      <point x="182" y="550" type="line"/>
      <point x="182" y="362" type="line"/>
      <point x="90" y="362" type="line"/>
    </contour>
  </outline>
</glyph>
<glyph name="guillemotright" format="2">
  <advance width="715"/>
  <unicode hex="00BB"/>
  <outline>
    <contour>
      <point x="65" y="487" type="line"/>
      <point x="65" y="369" type="line"/>
      <point x="245" y="250" type="line"/>
      <point x="65" y="131" type="line"/>
      <point x="65" y="13" type="line"/>
      <point x="357" y="199" type="line"/>
      <point x="357" y="301" type="line"/>
    </contour>
    <contour>
      <point x="365" y="487" type="line"/>
      <point x="365" y="369" type="line"/>
      <point x="545" y="250" type="line"/>
      <point x="365" y="131" type="line"/>
      <point x="365" y="13" type="line"/>
      <point x="657" y="199" type="line"/>
      <point x="657" y="301" type="line"/>
    </contour>
  </outline>
</glyph>
<glyph name="questiondown" format="2">
  <advance width="499"/>
  <unicode hex="00BF"/>
  <outline>
    <contour>
      <point x="317" y="360" type="line"/>
      <point x="317" y="500" type="line"/>
      <point x="177" y="500" type="line"/>
      <point x="177" y="360" type="line"/>
    </contour>
    <contour>
      <point x="313" y="284" type="line"/>
      <point x="171" y="284" type="line"/>
      <point x="174" y="268" type="line" smooth="yes"/>
      <point x="188" y="195"/>
      <point x="25" y="140"/>
      <point x="25" y="-8" type="curve" smooth="yes"/>
      <point x="25" y="-107"/>
      <point x="111" y="-190"/>
      <point x="256" y="-190" type="curve" smooth="yes"/>
      <point x="393" y="-190"/>
      <point x="475" y="-116"/>
      <point x="487" y="19" type="curve"/>
      <point x="351" y="48" type="line"/>
      <point x="353" y="-35"/>
      <point x="324" y="-78"/>
      <point x="261" y="-78" type="curve" smooth="yes"/>
      <point x="200" y="-78"/>
      <point x="169" y="-44"/>
      <point x="169" y="14" type="curve" smooth="yes"/>
      <point x="169" y="125"/>
      <point x="313" y="177"/>
      <point x="313" y="270" type="curve" smooth="yes"/>
    </contour>
  </outline>
</glyph>
<glyph name="AE" format="2">
  <advance width="658"/>
  <unicode hex="00C6"/>
  <outline>
    <contour>
      <point x="286" y="0" type="line"/>
      <point x="602" y="0" type="line"/>
      <point x="602" y="113" type="line"/>
      <point x="405" y="113" type="line"/>
      <point x="405" y="315" type="line"/>
      <point x="586" y="315" type="line"/>
      <point x="586" y="428" type="line"/>
      <point x="405" y="428" type="line"/>
      <point x="405" y="567" type="line"/>
      <point x="602" y="567" type="line"/>
      <point x="602" y="680" type="line"/>
      <point x="207" y="680" type="line"/>
      <point x="-3" y="0" type="line"/>
      <point x="123" y="0" type="line"/>
      <point x="163" y="137" type="line"/>
      <point x="286" y="137" type="line"/>
    </contour>
    <contour>
      <point x="283" y="547" type="line"/>
      <point x="286" y="547" type="line"/>
      <point x="286" y="247" type="line"/>
      <point x="195" y="247" type="line"/>
    </contour>
  </outline>
</glyph>
<glyph name="Ccedilla" format="2">
  <advance width="682"/>
  <unicode hex="00C7"/>
  <outline>
    <contour>
      <point x="286" y="-157" type="line"/>
      <point x="297" y="-139"/>
      <point x="317" y="-122"/>
      <point x="353" y="-122" type="curve" smooth="yes"/>
      <point x="383" y="-122"/>
      <point x="407" y="-142"/>
      <point x="407" y="-172" type="curve" smooth="yes"/>
      <point x="407" y="-204"/>
      <point x="387" y="-224"/>
      <point x="351" y="-224" type="curve" smooth="yes"/>
      <point x="316" y="-224"/>
      <point x="294" y="-209"/>
      <point x="297" y="-182" type="curve"/>
      <point x="213" y="-182" type="line"/>
      <point x="209" y="-256"/>
      <point x="274" y="-298"/>
      <point x="349" y="-298" type="curve" smooth="yes"/>
      <point x="432" y="-298"/>
      <point x="495" y="-243"/>
      <point x="495" y="-174" type="curve" smooth="yes"/>
      <point x="495" y="-105"/>
      <point x="443" y="-55"/>
      <point x="370" y="-55" type="curve" smooth="yes"/>
      <point x="361" y="-55"/>
      <point x="353" y="-56"/>
      <point x="345" y="-58" type="curve"/>
      <point x="382" y="-9" type="line"/>
      <point x="536" y="4"/>
      <point x="637" y="116"/>
      <point x="644" y="282" type="curve"/>
      <point x="519" y="282" type="line"/>
      <point x="479" y="153"/>
      <point x="435" y="109"/>
      <point x="346" y="109" type="curve" smooth="yes"/>
      <point x="243" y="109"/>
      <point x="174" y="184"/>
      <point x="174" y="340" type="curve" smooth="yes"/>
      <point x="174" y="496"/>
      <point x="242" y="571"/>
      <point x="346" y="571" type="curve" smooth="yes"/>
      <point x="434" y="571"/>
      <point x="499" y="518"/>
      <point x="510" y="391" type="curve"/>
      <point x="644" y="391" type="line"/>
      <point x="629" y="585"/>
      <point x="519" y="690"/>
      <point x="351" y="690" type="curve" smooth="yes"/>
      <point x="183" y="690"/>
      <point x="50" y="572"/>
      <point x="50" y="340" type="curve" smooth="yes"/>
      <point x="50" y="130"/>
      <point x="166" y="13"/>
      <point x="306" y="-7" type="curve"/>
      <point x="229" y="-136" type="line"/>
    </contour>
  </outline>
</glyph>
<glyph name="Egrave" format="2">
  <advance width="558"/>
  <unicode hex="00C8"/>
  <outline>
    <contour>
      <point x="330" y="870" type="line"/>
      <point x="146" y="870" type="line"/>
      <point x="260" y="730" type="line"/>
      <point x="360" y="730" type="line"/>
    </contour>
    <contour>
      <point x="86" y="0" type="line"/>
      <point x="502" y="0" type="line"/>
      <point x="502" y="113" type="line"/>
      <point x="205" y="113" type="line"/>
      <point x="205" y="315" type="line"/>
      <point x="486" y="315" type="line"/>
      <point x="486" y="428" type="line"/>
      <point x="205" y="428" type="line"/>
      <point x="205" y="567" type="line"/>
      <point x="502" y="567" type="line"/>
      <point x="502" y="680" type="line"/>
      <point x="86" y="680" type="line"/>
    </contour>
  </outline>
</glyph>
<glyph name="multiply" format="2">
  <advance width="688"/>
  <unicode hex="00D7"/>
  <outline>
    <contour>
      <point x="108" y="483" type="line"/>
      <point x="259" y="332" type="line"/>
      <point x="108" y="181" type="line"/>
      <point x="192" y="97" type="line"/>
      <point x="343" y="248" type="line"/>
      <point x="495" y="96" type="line"/>
      <point x="579" y="180" type="line"/>
      <point x="427" y="332" type="line"/>
      <point x="579" y="484" type="line"/>
      <point x="495" y="568" type="line"/>
      <point x="343" y="416" type="line"/>
      <point x="192" y="567" type="line"/>
    </contour>
  </outline>
</glyph>
<glyph name="Oslash" format="2">
  <advance width="705"/>
  <unicode hex="00D8"/>
  <outline>
    <contour>
      <point x="51" y="-10" type="line"/>
      <point x="146" y="76" type="line"/>
      <point x="200" y="21"/>
      <point x="272" y="-10"/>
      <point x="352" y="-10" type="curve" smooth="yes"/>
      <point x="521" y="-10"/>
      <point x="656" y="125"/>
      <point x="656" y="340" type="curve" smooth="yes"/>
      <point x="656" y="404"/>
      <point x="644" y="460"/>
      <point x="623" y="509" type="curve"/>
      <point x="659" y="541" type="line"/>
      <point x="659" y="690" type="line"/>
      <point x="562" y="602" type="line"/>
      <point x="508" y="659"/>
      <point x="434" y="690"/>
      <point x="352" y="690" type="curve" smooth="yes"/>
      <point x="183" y="690"/>
      <point x="50" y="555"/>
      <point x="50" y="340" type="curve" smooth="yes"/>
      <point x="50" y="275"/>
      <point x="62" y="218"/>
      <point x="84" y="169" type="curve"/>
      <point x="51" y="139" type="line"/>
    </contour>
    <contour>
      <point x="174" y="340" type="curve" smooth="yes"/>
      <point x="174" y="485"/>
      <point x="247" y="571"/>
      <point x="352" y="571" type="curve" smooth="yes"/>
      <point x="400" y="571"/>
      <point x="441" y="553"/>
      <point x="472" y="520" type="curve"/>
      <point x="183" y="258" type="line"/>
      <point x="177" y="283"/>
      <point x="174" y="310"/>
    </contour>
    <contour>
      <point x="352" y="109" type="curve" smooth="yes"/>
      <point x="306" y="109"/>
      <point x="266" y="126"/>
      <point x="235" y="157" type="curve"/>
      <point x="523" y="418" type="line"/>
      <point x="528" y="394"/>
      <point x="531" y="368"/>
      <point x="531" y="340" type="curve" smooth="yes"/>
      <point x="531" y="195"/>
      <point x="457" y="109"/>
    </contour>
  </outline>
</glyph>
<glyph name="Thorn" format="2">
  <advance width="557"/>
  <unicode hex="00DE"/>
  <outline>
    <contour>
      <point x="86" y="0" type="line"/>
      <point x="211" y="0" type="line"/>
      <point x="206" y="14"/>
      <point x="205" y="34"/>
      <point x="205" y="58" type="curve" smooth="yes"/>
      <point x="205" y="166" type="line"/>
      <point x="315" y="166" type="line" smooth="yes"/>
      <point x="461" y="166"/>
      <point x="532" y="242"/>
      <point x="532" y="366" type="curve" smooth="yes"/>
      <point x="532" y="490"/>
      <point x="462" y="565"/>
      <point x="314" y="565" type="curve" smooth="yes"/>
      <point x="205" y="565" type="line"/>
      <point x="205" y="680" type="line"/>
      <point x="86" y="680" type="line"/>
    </contour>
    <contour>
      <point x="314" y="452" type="line" smooth="yes"/>
      <point x="373" y="452"/>
      <point x="408" y="421"/>
      <point x="408" y="366" type="curve" smooth="yes"/>
      <point x="408" y="311"/>
      <point x="379" y="279"/>
      <point x="311" y="279" type="curve" smooth="yes"/>
      <point x="205" y="279" type="line"/>
      <point x="205" y="452" type="line"/>
    </contour>
  </outline>
</glyph>
<glyph name="germandbls" format="2">
  <advance width="518"/>
  <unicode hex="00DF"/>
  <anchor x="360.0" y="430.0" name="top"/>
  <outline>
    <contour>
      <point x="246" y="314" type="line"/>
      <point x="251" y="315"/>
      <point x="261" y="316"/>
      <point x="268" y="316" type="curve" smooth="yes"/>
      <point x="332" y="316"/>
      <point x="378" y="278"/>
      <point x="378" y="206" type="curve" smooth="yes"/>
      <point x="378" y="140"/>
      <point x="338" y="100"/>
      <point x="276" y="100" type="curve"/>
      <point x="247" y="100"/>
      <point x="229" y="108"/>
      <point x="216" y="118" type="curve"/>
      <point x="216" y="8" type="line"/>
      <point x="228" y="-2"/>
      <point x="248" y="-10"/>
      <point x="284" y="-10" type="curve"/>
      <point x="406" y="-10"/>
      <point x="488" y="82"/>
      <point x="488" y="198" type="curve" smooth="yes"/>
      <point x="488" y="279"/>
      <point x="454" y="350"/>
      <point x="386" y="389" type="curve"/>
      <point x="415" y="420"/>
      <point x="432" y="461"/>
      <point x="432" y="510" type="curve"/>
      <point x="432" y="608"/>
      <point x="366" y="690"/>
      <point x="246" y="690" type="curve"/>
      <point x="134" y="690"/>
      <point x="60" y="608"/>
      <point x="60" y="510" type="curve" smooth="yes"/>
      <point x="60" y="0" type="line"/>
      <point x="170" y="0" type="line"/>
      <point x="170" y="500" type="line"/>
      <point x="170" y="548"/>
      <point x="198" y="578"/>
      <point x="246" y="578" type="curve" smooth="yes"/>
      <point x="294" y="578"/>
      <point x="322" y="550"/>
      <point x="322" y="502" type="curve"/>
      <point x="322" y="454"/>
      <point x="295" y="425"/>
      <point x="246" y="424" type="curve"/>
    </contour>
  </outline>
</glyph>
<glyph name="ae" format="2">
  <advance width="778"/>
  <unicode hex="00E6"/>
  <outline>
    <contour>
      <point x="740" y="170" type="curve"/>
      <point x="630" y="170" type="line"/>
      <point x="618" y="142"/>
      <point x="602" y="82"/>
      <point x="539" y="82" type="curve" smooth="yes"/>
      <point x="481" y="82"/>
      <point x="436" y="128"/>
      <point x="433" y="238" type="curve"/>
      <point x="746" y="238" type="line"/>
      <point x="742" y="381"/>
      <point x="696" y="510"/>
      <point x="536" y="510" type="curve" smooth="yes"/>
      <point x="482" y="510"/>
      <point x="436" y="484"/>
      <point x="401" y="444" type="curve"/>
      <point x="369" y="489"/>
      <point x="312" y="510"/>
      <point x="248" y="510" type="curve" smooth="yes"/>
      <point x="134" y="510"/>
      <point x="44" y="448"/>
      <point x="44" y="340" type="curve"/>
      <point x="166" y="340" type="line"/>
      <point x="166" y="393"/>
      <point x="191" y="421"/>
      <point x="240" y="421" type="curve" smooth="yes"/>
      <point x="294" y="421"/>
      <point x="332" y="389"/>
      <point x="332" y="340" type="curve" smooth="yes"/>
      <point x="332" y="321" type="line"/>
      <point x="251" y="321" type="line" smooth="yes"/>
      <point x="122" y="321"/>
      <point x="32" y="267"/>
      <point x="32" y="156" type="curve" smooth="yes"/>
      <point x="32" y="68"/>
      <point x="117" y="-10"/>
      <point x="219" y="-10" type="curve" smooth="yes"/>
      <point x="291" y="-10"/>
      <point x="347" y="17"/>
      <point x="395" y="60" type="curve"/>
      <point x="431" y="17"/>
      <point x="480" y="-10"/>
      <point x="540" y="-10" type="curve" smooth="yes"/>
      <point x="677" y="-10"/>
      <point x="734" y="102"/>
    </contour>
    <contour>
      <point x="536" y="420" type="curve" smooth="yes"/>
      <point x="595" y="420"/>
      <point x="622" y="377"/>
      <point x="628" y="322" type="curve"/>
      <point x="440" y="322" type="line"/>
      <point x="455" y="390"/>
      <point x="492" y="420"/>
    </contour>
    <contour>
      <point x="156" y="140" type="curve" smooth="yes"/>
      <point x="156" y="198"/>
      <point x="180" y="240"/>
      <point x="332" y="240" type="curve"/>
      <point x="332" y="180" type="line" smooth="yes"/>
      <point x="332" y="144"/>
      <point x="303" y="81"/>
      <point x="234" y="81" type="curve" smooth="yes"/>
      <point x="186" y="81"/>
      <point x="156" y="110"/>
    </contour>
  </outline>
</glyph>
<glyph name="ccedilla" format="2">
  <advance width="538"/>
  <unicode hex="00E7"/>
  <outline>
    <contour>
      <point x="40" y="246" type="curve" smooth="yes"/>
      <point x="40" y="122"/>
      <point x="115" y="11"/>
      <point x="234" y="-7" type="curve"/>
      <point x="157" y="-136" type="line"/>
      <point x="214" y="-157" type="line"/>
      <point x="225" y="-139"/>
      <point x="245" y="-122"/>
      <point x="281" y="-122" type="curve" smooth="yes"/>
      <point x="311" y="-122"/>
      <point x="335" y="-142"/>
      <point x="335" y="-172" type="curve" smooth="yes"/>
      <point x="335" y="-204"/>
      <point x="315" y="-224"/>
      <point x="279" y="-224" type="curve" smooth="yes"/>
      <point x="244" y="-224"/>
      <point x="222" y="-209"/>
      <point x="225" y="-182" type="curve"/>
      <point x="141" y="-182" type="line"/>
      <point x="137" y="-256"/>
      <point x="202" y="-298"/>
      <point x="277" y="-298" type="curve" smooth="yes"/>
      <point x="360" y="-298"/>
      <point x="423" y="-243"/>
      <point x="423" y="-174" type="curve" smooth="yes"/>
      <point x="423" y="-105"/>
      <point x="371" y="-55"/>
      <point x="298" y="-55" type="curve" smooth="yes"/>
      <point x="289" y="-55"/>
      <point x="281" y="-56"/>
      <point x="273" y="-58" type="curve"/>
      <point x="311" y="-7" type="line"/>
      <point x="439" y="14"/>
      <point x="500" y="124"/>
      <point x="500" y="200" type="curve"/>
      <point x="396" y="200" type="line"/>
      <point x="378" y="154"/>
      <point x="354" y="100"/>
      <point x="278" y="100" type="curve" smooth="yes"/>
      <point x="211" y="100"/>
      <point x="150" y="144"/>
      <point x="150" y="250" type="curve" smooth="yes"/>
      <point x="150" y="350"/>
      <point x="205" y="400"/>
      <point x="270" y="400" type="curve" smooth="yes"/>
      <point x="345" y="400"/>
      <point x="376" y="352"/>
      <point x="386" y="290" type="curve"/>
      <point x="502" y="290" type="line"/>
      <point x="488" y="358"/>
      <point x="448" y="510"/>
      <point x="274" y="510" type="curve" smooth="yes"/>
      <point x="138" y="510"/>
      <point x="40" y="401"/>
    </contour>
  </outline>
</glyph>
<glyph name="eth" format="2">
  <advance width="545"/>
  <unicode hex="00F0"/>
  <outline>
    <contour>
      <point x="35" y="221" type="curve" smooth="yes"/>
      <point x="35" y="107"/>
      <point x="115" y="-10"/>
      <point x="275" y="-10" type="curve" smooth="yes"/>
      <point x="435" y="-10"/>
      <point x="515" y="107"/>
      <point x="515" y="259" type="curve" smooth="yes"/>
      <point x="515" y="361"/>
      <point x="480" y="460"/>
      <point x="425" y="555" type="curve"/>
      <point x="514" y="574" type="line"/>
      <point x="501" y="631" type="line"/>
      <point x="392" y="607" type="line"/>
      <point x="376" y="632"/>
      <point x="358" y="656"/>
      <point x="339" y="680" type="curve"/>
      <point x="213" y="680" type="line"/>
      <point x="238" y="649"/>
      <point x="263" y="618"/>
      <point x="286" y="584" type="curve"/>
      <point x="164" y="558" type="line"/>
      <point x="177" y="501" type="line"/>
      <point x="320" y="532" type="line"/>
      <point x="337" y="503"/>
      <point x="353" y="473"/>
      <point x="368" y="442" type="curve"/>
      <point x="327" y="458"/>
      <point x="295" y="460"/>
      <point x="263" y="460" type="curve" smooth="yes"/>
      <point x="125" y="460"/>
      <point x="35" y="343"/>
    </contour>
    <contour>
      <point x="405" y="225" type="curve" smooth="yes"/>
      <point x="405" y="145"/>
      <point x="352" y="100"/>
      <point x="275" y="100" type="curve" smooth="yes"/>
      <point x="198" y="100"/>
      <point x="145" y="145"/>
      <point x="145" y="225" type="curve" smooth="yes"/>
      <point x="145" y="300"/>
      <point x="196" y="350"/>
      <point x="275" y="350" type="curve" smooth="yes"/>
      <point x="354" y="350"/>
      <point x="405" y="300"/>
    </contour>
  </outline>
</glyph>
<glyph name="divide" format="2">
  <advance width="688"/>
  <unicode hex="00F7"/>
  <outline>
    <contour>
      <point x="284" y="601" type="line"/>
      <point x="284" y="461" type="line"/>
      <point x="424" y="461" type="line"/>
      <point x="424" y="601" type="line"/>
    </contour>
    <contour>
      <point x="70" y="277" type="line"/>
      <point x="618" y="287" type="line"/>
      <point x="618" y="387" type="line"/>
      <point x="70" y="377" type="line"/>
    </contour>
    <contour>
      <point x="264" y="202" type="line"/>
      <point x="264" y="62" type="line"/>
      <point x="404" y="62" type="line"/>
      <point x="404" y="202" type="line"/>
    </contour>
  </outline>
</glyph>
<glyph name="oslash" format="2">
  <advance width="560"/>
  <unicode hex="00F8"/>
  <outline>
    <contour>
      <point x="44" y="-10" type="line"/>
      <point x="117" y="52" type="line"/>
      <point x="156" y="14"/>
      <point x="211" y="-10"/>
      <point x="280" y="-10" type="curve" smooth="yes"/>
      <point x="440" y="-10"/>
      <point x="520" y="120"/>
      <point x="520" y="246" type="curve" smooth="yes"/>
      <point x="520" y="291"/>
      <point x="510" y="335"/>
      <point x="492" y="373" type="curve"/>
      <point x="519" y="397" type="line"/>
      <point x="519" y="506" type="line"/>
      <point x="444" y="442" type="line"/>
      <point x="404" y="483"/>
      <point x="348" y="510"/>
      <point x="280" y="510" type="curve" smooth="yes"/>
      <point x="130" y="510"/>
      <point x="40" y="381"/>
      <point x="40" y="246" type="curve" smooth="yes"/>
      <point x="40" y="203"/>
      <point x="49" y="159"/>
      <point x="68" y="120" type="curve"/>
      <point x="44" y="99" type="line"/>
    </contour>
    <contour>
      <point x="150" y="250" type="curve" smooth="yes"/>
      <point x="150" y="340"/>
      <point x="201" y="400"/>
      <point x="280" y="400" type="curve" smooth="yes"/>
      <point x="313" y="400"/>
      <point x="340" y="390"/>
      <point x="362" y="371" type="curve"/>
      <point x="157" y="196" type="line"/>
      <point x="152" y="212"/>
      <point x="150" y="230"/>
    </contour>
    <contour>
      <point x="410" y="250" type="curve" smooth="yes"/>
      <point x="410" y="154"/>
      <point x="357" y="100"/>
      <point x="280" y="100" type="curve" smooth="yes"/>
      <point x="249" y="100"/>
      <point x="223" y="109"/>
      <point x="201" y="125" type="curve"/>
      <point x="404" y="299" type="line"/>
      <point x="408" y="284"/>
      <point x="410" y="267"/>
    </contour>
  </outline>
</glyph>
<glyph name="Aogonek" format="2">
  <advance width="616"/>
  <unicode hex="0104"/>
  <outline>
    <contour>
      <point x="626" y="-166" type="curve"/>
      <point x="619" y="-81" type="line"/>
      <point x="603" y="-99"/>
      <point x="591" y="-104"/>
      <point x="574" y="-104" type="curve" smooth="yes"/>
      <point x="554" y="-104"/>
      <point x="547" y="-88"/>
      <point x="547" y="-69" type="curve" smooth="yes"/>
      <point x="547" y="-44"/>
      <point x="565" y="-5"/>
      <point x="600" y="0" type="curve"/>
      <point x="619" y="0" type="line"/>
      <point x="359" y="680" type="line"/>
      <point x="257" y="680" type="line"/>
      <point x="-3" y="0" type="line"/>
      <point x="123" y="0" type="line"/>
      <point x="196" y="187" type="line"/>
      <point x="420" y="187" type="line"/>
      <point x="491" y="5" type="line"/>
      <point x="465" y="-27"/>
      <point x="456" y="-58"/>
      <point x="456" y="-94" type="curve" smooth="yes"/>
      <point x="456" y="-137"/>
      <point x="493" y="-190"/>
      <point x="554" y="-190" type="curve" smooth="yes"/>
      <point x="583" y="-190"/>
      <point x="608" y="-181"/>
    </contour>
    <contour>
      <point x="238" y="297" type="line"/>
      <point x="308" y="476" type="line"/>
      <point x="378" y="297" type="line"/>
    </contour>
  </outline>
</glyph>
<glyph name="aogonek" format="2">
  <advance width="558"/>
  <unicode hex="0105"/>
  <outline>
    <contour>
      <point x="472" y="147" type="curve" smooth="yes"/>
      <point x="472" y="351" type="line" smooth="yes"/>
      <point x="472" y="459"/>
      <point x="376" y="510"/>
      <point x="263" y="510" type="curve" smooth="yes"/>
      <point x="140" y="510"/>
      <point x="44" y="448"/>
      <point x="44" y="340" type="curve"/>
      <point x="166" y="340" type="line"/>
      <point x="166" y="399"/>
      <point x="198" y="430"/>
      <point x="260" y="430" type="curve"/>
      <point x="320" y="430"/>
      <point x="362" y="394"/>
      <point x="362" y="340" type="curve" smooth="yes"/>
      <point x="362" y="316" type="line"/>
      <point x="266" y="316" type="line" smooth="yes"/>
      <point x="128" y="316"/>
      <point x="32" y="270"/>
      <point x="32" y="156" type="curve" smooth="yes"/>
      <point x="32" y="68"/>
      <point x="116" y="-10"/>
      <point x="228" y="-10" type="curve" smooth="yes"/>
      <point x="316" y="-10"/>
      <point x="366" y="32"/>
      <point x="384" y="46" type="curve"/>
      <point x="397" y="24"/>
      <point x="412" y="10"/>
      <point x="433" y="3" type="curve"/>
      <point x="409" y="-28"/>
      <point x="400" y="-59"/>
      <point x="400" y="-94" type="curve" smooth="yes"/>
      <point x="400" y="-137"/>
      <point x="437" y="-190"/>
      <point x="498" y="-190" type="curve" smooth="yes"/>
      <point x="527" y="-190"/>
      <point x="552" y="-181"/>
      <point x="570" y="-166" type="curve"/>
      <point x="563" y="-81" type="line"/>
      <point x="547" y="-99"/>
      <point x="535" y="-104"/>
      <point x="518" y="-104" type="curve" smooth="yes"/>
      <point x="498" y="-104"/>
      <point x="491" y="-88"/>
      <point x="491" y="-69" type="curve" smooth="yes"/>
      <point x="491" y="-48"/>
      <point x="504" y="-17"/>
      <point x="529" y="-5" type="curve"/>
      <point x="539" y="-4"/>
      <point x="552" y="-2"/>
      <point x="568" y="0" type="curve"/>
      <point x="568" y="110" type="line"/>
      <point x="549" y="106"/>
      <point x="536" y="104"/>
      <point x="523" y="104" type="curve" smooth="yes"/>
      <point x="492" y="104"/>
      <point x="472" y="117"/>
    </contour>
    <contour>
      <point x="156" y="144" type="curve"/>
      <point x="156" y="198"/>
      <point x="188" y="238"/>
      <point x="362" y="230" type="curve"/>
      <point x="362" y="180" type="line" smooth="yes"/>
      <point x="362" y="140"/>
      <point x="326" y="70"/>
      <point x="244" y="70" type="curve" smooth="yes"/>
      <point x="190" y="70"/>
      <point x="156" y="104"/>
    </contour>
  </outline>
</glyph>
<glyph name="dcroat" format="2">
  <advance width="572"/>
  <unicode hex="0111"/>
  <outline>
    <contour>
      <point x="512" y="0" type="line"/>
      <point x="512" y="544" type="line"/>
      <point x="583" y="544" type="line"/>
      <point x="583" y="629" type="line"/>
      <point x="512" y="629" type="line"/>
      <point x="512" y="680" type="line" smooth="yes"/>
      <point x="402" y="680" type="line"/>
      <point x="402" y="629" type="line"/>
      <point x="247" y="629" type="line"/>
      <point x="247" y="544" type="line"/>
      <point x="402" y="544" type="line"/>
      <point x="402" y="464" type="line"/>
      <point x="378" y="480"/>
      <point x="336" y="510"/>
      <point x="264" y="510" type="curve"/>
      <point x="118" y="510"/>
      <point x="40" y="390"/>
      <point x="40" y="246" type="curve" smooth="yes"/>
      <point x="40" y="118"/>
      <point x="122" y="-10"/>
      <point x="268" y="-10" type="curve"/>
      <point x="340" y="-10"/>
      <point x="384" y="28"/>
      <point x="406" y="44" type="curve"/>
      <point x="406" y="0" type="line"/>
    </contour>
    <contour>
      <point x="150" y="250" type="curve" smooth="yes"/>
      <point x="150" y="356"/>
      <point x="207" y="400"/>
      <point x="280" y="400" type="curve"/>
      <point x="353" y="400"/>
      <point x="406" y="350"/>
      <point x="406" y="250" type="curve" smooth="yes"/>
      <point x="406" y="150"/>
      <point x="355" y="100"/>
      <point x="280" y="100" type="curve"/>
      <point x="205" y="100"/>
      <point x="150" y="150"/>
    </contour>
  </outline>
</glyph>
<glyph name="Eogonek" format="2">
  <advance width="558"/>
  <unicode hex="0118"/>
  <outline>
    <contour>
      <point x="86" y="0" type="line"/>
      <point x="386" y="0" type="line"/>
      <point x="363" y="-30"/>
      <point x="355" y="-60"/>
      <point x="355" y="-94" type="curve" smooth="yes"/>
      <point x="355" y="-137"/>
      <point x="392" y="-190"/>
      <point x="453" y="-190" type="curve" smooth="yes"/>
      <point x="482" y="-190"/>
      <point x="507" y="-181"/>
      <point x="525" y="-166" type="curve"/>
      <point x="518" y="-81" type="line"/>
      <point x="502" y="-99"/>
      <point x="490" y="-104"/>
      <point x="473" y="-104" type="curve" smooth="yes"/>
      <point x="453" y="-104"/>
      <point x="446" y="-88"/>
      <point x="446" y="-69" type="curve" smooth="yes"/>
      <point x="446" y="-44"/>
      <point x="464" y="-5"/>
      <point x="499" y="0" type="curve"/>
      <point x="502" y="0" type="line"/>
      <point x="502" y="113" type="line"/>
      <point x="205" y="113" type="line"/>
      <point x="205" y="315" type="line"/>
      <point x="486" y="315" type="line"/>
      <point x="486" y="428" type="line"/>
      <point x="205" y="428" type="line"/>
      <point x="205" y="567" type="line"/>
      <point x="502" y="567" type="line"/>
      <point x="502" y="680" type="line"/>
      <point x="86" y="680" type="line"/>
    </contour>
  </outline>
</glyph>
<glyph name="eogonek" format="2">
  <advance width="533"/>
  <unicode hex="0119"/>
  <outline>
    <contour>
      <point x="35" y="246" type="curve" smooth="yes"/>
      <point x="35" y="124"/>
      <point x="110" y="15"/>
      <point x="231" y="-6" type="curve"/>
      <point x="211" y="-34"/>
      <point x="204" y="-62"/>
      <point x="204" y="-94" type="curve" smooth="yes"/>
      <point x="204" y="-137"/>
      <point x="241" y="-190"/>
      <point x="302" y="-190" type="curve" smooth="yes"/>
      <point x="331" y="-190"/>
      <point x="356" y="-181"/>
      <point x="374" y="-166" type="curve"/>
      <point x="367" y="-81" type="line"/>
      <point x="351" y="-99"/>
      <point x="339" y="-104"/>
      <point x="322" y="-104" type="curve" smooth="yes"/>
      <point x="302" y="-104"/>
      <point x="295" y="-88"/>
      <point x="295" y="-69" type="curve" smooth="yes"/>
      <point x="295" y="-47"/>
      <point x="309" y="-13"/>
      <point x="337" y="-3" type="curve"/>
      <point x="341" y="-2"/>
      <point x="344" y="-1"/>
      <point x="347" y="0" type="curve"/>
      <point x="348" y="0" type="line"/>
      <point x="348" y="0" type="line"/>
      <point x="446" y="29"/>
      <point x="490" y="114"/>
      <point x="495" y="170" type="curve"/>
      <point x="385" y="170" type="line"/>
      <point x="375" y="148"/>
      <point x="351" y="100"/>
      <point x="274" y="100" type="curve" smooth="yes"/>
      <point x="207" y="100"/>
      <point x="155" y="137"/>
      <point x="146" y="224" type="curve"/>
      <point x="501" y="224" type="line"/>
      <point x="494" y="410"/>
      <point x="407" y="510"/>
      <point x="267" y="510" type="curve" smooth="yes"/>
      <point x="127" y="510"/>
      <point x="35" y="381"/>
    </contour>
    <contour>
      <point x="271" y="420" type="curve" smooth="yes"/>
      <point x="335" y="420"/>
      <point x="376" y="385"/>
      <point x="383" y="324" type="curve"/>
      <point x="154" y="324" type="line"/>
      <point x="172" y="391"/>
      <point x="218" y="420"/>
    </contour>
  </outline>
</glyph>
<glyph name="Hbar" format="2">
  <advance width="676"/>
  <unicode hex="0126"/>
  <outline>
    <contour>
      <point x="86" y="0" type="line"/>
      <point x="205" y="0" type="line"/>
      <point x="205" y="292" type="line"/>
      <point x="471" y="292" type="line"/>
      <point x="471" y="0" type="line"/>
      <point x="590" y="0" type="line"/>
      <point x="590" y="515" type="line"/>
      <point x="644" y="515" type="line"/>
      <point x="644" y="600" type="line"/>
      <point x="590" y="600" type="line"/>
      <point x="590" y="680" type="line"/>
      <point x="471" y="680" type="line"/>
      <point x="471" y="600" type="line"/>
      <point x="205" y="600" type="line"/>
      <point x="205" y="680" type="line"/>
      <point x="86" y="680" type="line"/>
      <point x="86" y="600" type="line"/>
      <point x="32" y="600" type="line"/>
      <point x="32" y="515" type="line"/>
      <point x="86" y="515" type="line"/>
    </contour>
    <contour>
      <point x="205" y="410" type="line"/>
      <point x="205" y="515" type="line"/>
      <point x="471" y="515" type="line"/>
      <point x="471" y="410" type="line"/>
    </contour>
  </outline>
</glyph>
<glyph name="hbar" format="2">
  <advance width="527"/>
  <unicode hex="0127"/>
  <outline>
    <contour>
      <point x="471" y="0" type="line"/>
      <point x="471" y="354" type="line" smooth="yes"/>
      <point x="471" y="464"/>
      <point x="397" y="510"/>
      <point x="310" y="510" type="curve" smooth="yes"/>
      <point x="230" y="510"/>
      <point x="184" y="478"/>
      <point x="166" y="460" type="curve"/>
      <point x="166" y="544" type="line"/>
      <point x="325" y="544" type="line"/>
      <point x="325" y="629" type="line"/>
      <point x="166" y="629" type="line"/>
      <point x="166" y="680" type="line"/>
      <point x="60" y="680" type="line"/>
      <point x="60" y="629" type="line"/>
      <point x="-11" y="629" type="line"/>
      <point x="-11" y="544" type="line"/>
      <point x="60" y="544" type="line"/>
      <point x="60" y="0" type="line"/>
      <point x="170" y="0" type="line"/>
      <point x="170" y="270" type="line" smooth="yes"/>
      <point x="170" y="330"/>
      <point x="189" y="416"/>
      <point x="270" y="416" type="curve" smooth="yes"/>
      <point x="319" y="416"/>
      <point x="357" y="386"/>
      <point x="357" y="330" type="curve" smooth="yes"/>
      <point x="357" y="0" type="line"/>
    </contour>
  </outline>
</glyph>
<glyph name="Iogonek" format="2">
  <advance width="291"/>
  <unicode hex="012E"/>
  <outline>
    <contour>
      <point x="222" y="-166" type="curve"/>
      <point x="215" y="-81" type="line"/>
      <point x="199" y="-99"/>
      <point x="187" y="-104"/>
      <point x="170" y="-104" type="curve" smooth="yes"/>
      <point x="150" y="-104"/>
      <point x="143" y="-88"/>
      <point x="143" y="-69" type="curve" smooth="yes"/>
      <point x="143" y="-44"/>
      <point x="161" y="-5"/>
      <point x="196" y="0" type="curve"/>
      <point x="205" y="0" type="line"/>
      <point x="205" y="680" type="line"/>
      <point x="86" y="680" type="line"/>
      <point x="86" y="4" type="line"/>
      <point x="60" y="-27"/>
      <point x="51" y="-58"/>
      <point x="52" y="-94" type="curve" smooth="yes"/>
      <point x="52" y="-137"/>
      <point x="89" y="-190"/>
      <point x="150" y="-190" type="curve" smooth="yes"/>
      <point x="179" y="-190"/>
      <point x="204" y="-181"/>
    </contour>
  </outline>
</glyph>
<glyph name="iogonek" format="2">
  <advance width="234"/>
  <unicode hex="012F"/>
  <outline>
    <contour>
      <point x="60" y="690" type="line"/>
      <point x="60" y="570" type="line"/>
      <point x="174" y="570" type="line"/>
      <point x="174" y="690" type="line"/>
    </contour>
    <contour>
      <point x="60" y="500" type="line"/>
      <point x="60" y="7" type="line"/>
      <point x="32" y="-25"/>
      <point x="23" y="-57"/>
      <point x="23" y="-94" type="curve" smooth="yes"/>
      <point x="23" y="-137"/>
      <point x="60" y="-190"/>
      <point x="121" y="-190" type="curve" smooth="yes"/>
      <point x="150" y="-190"/>
      <point x="175" y="-181"/>
      <point x="193" y="-166" type="curve"/>
      <point x="186" y="-81" type="line"/>
      <point x="170" y="-99"/>
      <point x="158" y="-104"/>
      <point x="141" y="-104" type="curve" smooth="yes"/>
      <point x="121" y="-104"/>
      <point x="114" y="-88"/>
      <point x="114" y="-69" type="curve" smooth="yes"/>
      <point x="114" y="-44"/>
      <point x="132" y="-5"/>
      <point x="167" y="0" type="curve"/>
      <point x="174" y="0" type="line"/>
      <point x="174" y="500" type="line"/>
    </contour>
  </outline>
</glyph>
<glyph name="dotlessi" format="2">
  <advance width="234"/>
  <unicode hex="0131"/>
  <anchor x="117.0" y="430.0" name="top"/>
  <outline>
    <contour>
      <point x="60" y="500" type="line"/>
      <point x="60" y="0" type="line" smooth="yes"/>
      <point x="174" y="0" type="line"/>
      <point x="174" y="500" type="line"/>
    </contour>
  </outline>
</glyph>
<glyph name="Lslash" format="2">
  <advance width="524"/>
  <unicode hex="0141"/>
  <outline>
    <contour>
      <point x="86" y="0" type="line"/>
      <point x="475" y="0" type="line"/>
      <point x="475" y="113" type="line"/>
      <point x="205" y="113" type="line"/>
      <point x="205" y="333" type="line"/>
      <point x="324" y="369" type="line"/>
      <point x="324" y="478" type="line"/>
      <point x="205" y="442" type="line"/>
      <point x="205" y="680" type="line"/>
      <point x="86" y="680" type="line"/>
      <point x="86" y="406" type="line"/>
      <point x="4" y="381" type="line"/>
      <point x="4" y="272" type="line"/>
      <point x="86" y="297" type="line"/>
    </contour>
  </outline>
</glyph>
<glyph name="lslash" format="2">
  <advance width="234"/>
  <unicode hex="0142"/>
  <outline>
    <contour>
      <point x="-13" y="292" type="line"/>
      <point x="60" y="313" type="line"/>
      <point x="60" y="0" type="line"/>
      <point x="174" y="0" type="line"/>
      <point x="174" y="345" type="line"/>
      <point x="247" y="366" type="line"/>
      <point x="247" y="475" type="line"/>
      <point x="174" y="454" type="line"/>
      <point x="174" y="680" type="line"/>
      <point x="60" y="680" type="line"/>
      <point x="60" y="422" type="line"/>
      <point x="-13" y="401" type="line"/>
    </contour>
  </outline>
</glyph>
<glyph name="Eng" format="2">
  <advance width="661"/>
  <unicode hex="014A"/>
  <outline>
    <contour>
      <point x="86" y="0" type="line"/>
      <point x="201" y="0" type="line"/>
      <point x="201" y="443" type="line"/>
      <point x="445" y="0" type="line"/>
      <point x="465" y="0" type="line"/>
      <point x="465" y="-48" type="line" smooth="yes"/>
      <point x="465" y="-78"/>
      <point x="445" y="-86"/>
      <point x="425" y="-86" type="curve" smooth="yes"/>
      <point x="407" y="-86"/>
      <point x="395" y="-82"/>
      <point x="388" y="-78" type="curve"/>
      <point x="388" y="-178" type="line"/>
      <point x="397" y="-181"/>
      <point x="421" y="-190"/>
      <point x="467" y="-190" type="curve"/>
      <point x="543" y="-190"/>
      <point x="575" y="-130"/>
      <point x="575" y="-82" type="curve" smooth="yes"/>
      <point x="575" y="680" type="line"/>
      <point x="460" y="680" type="line"/>
      <point x="460" y="237" type="line"/>
      <point x="216" y="680" type="line"/>
      <point x="86" y="680" type="line"/>
    </contour>
  </outline>
</glyph>
<glyph name="eng" format="2">
  <advance width="531"/>
  <unicode hex="014B"/>
  <outline>
    <contour>
      <point x="314" y="510" type="curve" smooth="yes"/>
      <point x="263" y="510"/>
      <point x="211" y="492"/>
      <point x="170" y="460" type="curve"/>
      <point x="170" y="500" type="line"/>
      <point x="60" y="500" type="line"/>
      <point x="60" y="0" type="line"/>
      <point x="174" y="0" type="line"/>
      <point x="174" y="280" type="line" smooth="yes"/>
      <point x="174" y="334"/>
      <point x="193" y="405"/>
      <point x="274" y="405" type="curve" smooth="yes"/>
      <point x="325" y="405"/>
      <point x="361" y="377"/>
      <point x="361" y="330" type="curve" smooth="yes"/>
      <point x="361" y="-48" type="line" smooth="yes"/>
      <point x="361" y="-78"/>
      <point x="345" y="-86"/>
      <point x="325" y="-86" type="curve" smooth="yes"/>
      <point x="307" y="-86"/>
      <point x="295" y="-82"/>
      <point x="288" y="-78" type="curve"/>
      <point x="288" y="-178" type="line"/>
      <point x="297" y="-181"/>
      <point x="321" y="-190"/>
      <point x="367" y="-190" type="curve"/>
      <point x="443" y="-190"/>
      <point x="475" y="-130"/>
      <point x="475" y="-82" type="curve" smooth="yes"/>
      <point x="475" y="354" type="line" smooth="yes"/>
      <point x="475" y="464"/>
      <point x="401" y="510"/>
    </contour>
  </outline>
</glyph>
<glyph name="OE" format="2">
  <advance width="845"/>
  <unicode hex="0152"/>
  <outline>
    <contour>
      <point x="50" y="340" type="curve" smooth="yes"/>
      <point x="50" y="129"/>
      <point x="186" y="0"/>
      <point x="389" y="0" type="curve" smooth="yes"/>
      <point x="789" y="0" type="line"/>
      <point x="789" y="113" type="line"/>
      <point x="547" y="113" type="line"/>
      <point x="547" y="315" type="line"/>
      <point x="773" y="315" type="line"/>
      <point x="773" y="428" type="line"/>
      <point x="547" y="428" type="line"/>
      <point x="547" y="567" type="line"/>
      <point x="789" y="567" type="line"/>
      <point x="789" y="680" type="line"/>
      <point x="389" y="680" type="line" smooth="yes"/>
      <point x="186" y="680"/>
      <point x="50" y="550"/>
    </contour>
    <contour>
      <point x="396" y="562" type="curve" smooth="yes"/>
      <point x="423" y="562" type="line"/>
      <point x="423" y="118" type="line"/>
      <point x="396" y="118" type="line" smooth="yes"/>
      <point x="257" y="118"/>
      <point x="179" y="192"/>
      <point x="179" y="340" type="curve" smooth="yes"/>
      <point x="179" y="488"/>
      <point x="257" y="562"/>
    </contour>
  </outline>
</glyph>
<glyph name="oe" format="2">
  <advance width="825"/>
  <unicode hex="0153"/>
  <outline>
    <contour>
      <point x="40" y="246" type="curve" smooth="yes"/>
      <point x="40" y="120"/>
      <point x="113" y="-10"/>
      <point x="260" y="-10" type="curve" smooth="yes"/>
      <point x="337" y="-10"/>
      <point x="393" y="25"/>
      <point x="430" y="77" type="curve"/>
      <point x="466" y="24"/>
      <point x="520" y="-10"/>
      <point x="587" y="-10" type="curve" smooth="yes"/>
      <point x="690" y="-10"/>
      <point x="778" y="69"/>
      <point x="787" y="170" type="curve"/>
      <point x="677" y="170" type="line"/>
      <point x="653" y="111"/>
      <point x="627" y="87"/>
      <point x="586" y="87" type="curve" smooth="yes"/>
      <point x="528" y="87"/>
      <point x="483" y="131"/>
      <point x="480" y="238" type="curve"/>
      <point x="793" y="238" type="line"/>
      <point x="789" y="381"/>
      <point x="743" y="510"/>
      <point x="583" y="510" type="curve" smooth="yes"/>
      <point x="518" y="510"/>
      <point x="465" y="473"/>
      <point x="429" y="418" type="curve"/>
      <point x="391" y="473"/>
      <point x="334" y="510"/>
      <point x="260" y="510" type="curve" smooth="yes"/>
      <point x="123" y="510"/>
      <point x="40" y="381"/>
    </contour>
    <contour>
      <point x="583" y="415" type="curve" smooth="yes"/>
      <point x="642" y="415"/>
      <point x="669" y="374"/>
      <point x="675" y="322" type="curve"/>
      <point x="487" y="322" type="line"/>
      <point x="503" y="387"/>
      <point x="540" y="415"/>
    </contour>
    <contour>
      <point x="375" y="250" type="curve" smooth="yes"/>
      <point x="375" y="151"/>
      <point x="328" y="95"/>
      <point x="260" y="95" type="curve" smooth="yes"/>
      <point x="192" y="95"/>
      <point x="145" y="151"/>
      <point x="145" y="250" type="curve" smooth="yes"/>
      <point x="145" y="343"/>
      <point x="190" y="405"/>
      <point x="260" y="405" type="curve" smooth="yes"/>
      <point x="330" y="405"/>
      <point x="375" y="343"/>
    </contour>
  </outline>
</glyph>
<glyph name="Scedilla" format="2">
  <advance width="588"/>
  <unicode hex="015E"/>
  <outline>
    <contour>
      <point x="239" y="-157" type="line"/>
      <point x="250" y="-139"/>
      <point x="270" y="-122"/>
      <point x="306" y="-122" type="curve" smooth="yes"/>
      <point x="336" y="-122"/>
      <point x="360" y="-142"/>
      <point x="360" y="-172" type="curve" smooth="yes"/>
      <point x="360" y="-204"/>
      <point x="340" y="-224"/>
      <point x="304" y="-224" type="curve" smooth="yes"/>
      <point x="269" y="-224"/>
      <point x="247" y="-209"/>
      <point x="250" y="-182" type="curve"/>
      <point x="166" y="-182" type="line"/>
      <point x="162" y="-256"/>
      <point x="227" y="-298"/>
      <point x="302" y="-298" type="curve" smooth="yes"/>
      <point x="385" y="-298"/>
      <point x="448" y="-243"/>
      <point x="448" y="-174" type="curve" smooth="yes"/>
      <point x="448" y="-105"/>
      <point x="396" y="-55"/>
      <point x="323" y="-55" type="curve" smooth="yes"/>
      <point x="314" y="-55"/>
      <point x="306" y="-56"/>
      <point x="298" y="-58" type="curve"/>
      <point x="335" y="-8" type="line"/>
      <point x="466" y="6"/>
      <point x="554" y="85"/>
      <point x="554" y="210" type="curve" smooth="yes"/>
      <point x="554" y="507"/>
      <point x="175" y="342"/>
      <point x="175" y="506" type="curve" smooth="yes"/>
      <point x="175" y="560"/>
      <point x="213" y="600"/>
      <point x="293" y="600" type="curve" smooth="yes"/>
      <point x="402" y="600"/>
      <point x="416" y="524"/>
      <point x="422" y="465" type="curve"/>
      <point x="542" y="465" type="line"/>
      <point x="552" y="594"/>
      <point x="475" y="690"/>
      <point x="290" y="690" type="curve" smooth="yes"/>
      <point x="144" y="690"/>
      <point x="49" y="604"/>
      <point x="49" y="490" type="curve" smooth="yes"/>
      <point x="49" y="193"/>
      <point x="429" y="353"/>
      <point x="429" y="180" type="curve" smooth="yes"/>
      <point x="429" y="128"/>
      <point x="395" y="80"/>
      <point x="297" y="80" type="curve" smooth="yes"/>
      <point x="177" y="80"/>
      <point x="167" y="146"/>
      <point x="162" y="223" type="curve"/>
      <point x="36" y="223" type="line"/>
      <point x="21" y="116"/>
      <point x="91" y="5"/>
      <point x="258" y="-9" type="curve"/>
      <point x="182" y="-136" type="line"/>
    </contour>
  </outline>
</glyph>
<glyph name="scedilla" format="2">
  <advance width="480"/>
  <unicode hex="015F"/>
  <outline>
    <contour>
      <point x="185" y="-157" type="line"/>
      <point x="196" y="-139"/>
      <point x="216" y="-122"/>
      <point x="252" y="-122" type="curve" smooth="yes"/>
      <point x="282" y="-122"/>
      <point x="306" y="-142"/>
      <point x="306" y="-172" type="curve" smooth="yes"/>
      <point x="306" y="-204"/>
      <point x="286" y="-224"/>
      <point x="250" y="-224" type="curve" smooth="yes"/>
      <point x="215" y="-224"/>
      <point x="193" y="-209"/>
      <point x="196" y="-182" type="curve"/>
      <point x="112" y="-182" type="line"/>
      <point x="108" y="-256"/>
      <point x="173" y="-298"/>
      <point x="248" y="-298" type="curve" smooth="yes"/>
      <point x="331" y="-298"/>
      <point x="394" y="-243"/>
      <point x="394" y="-174" type="curve" smooth="yes"/>
      <point x="394" y="-105"/>
      <point x="342" y="-55"/>
      <point x="269" y="-55" type="curve" smooth="yes"/>
      <point x="260" y="-55"/>
      <point x="252" y="-56"/>
      <point x="244" y="-58" type="curve"/>
      <point x="281" y="-8" type="line"/>
      <point x="394" y="4"/>
      <point x="450" y="72"/>
      <point x="450" y="157" type="curve" smooth="yes"/>
      <point x="450" y="351"/>
      <point x="154" y="289"/>
      <point x="154" y="373" type="curve" smooth="yes"/>
      <point x="154" y="399"/>
      <point x="174" y="425"/>
      <point x="232" y="425" type="curve" smooth="yes"/>
      <point x="292" y="425"/>
      <point x="330" y="401"/>
      <point x="328" y="356" type="curve"/>
      <point x="442" y="356" type="line"/>
      <point x="442" y="406"/>
      <point x="400" y="510"/>
      <point x="242" y="510" type="curve" smooth="yes"/>
      <point x="96" y="510"/>
      <point x="44" y="436"/>
      <point x="44" y="358" type="curve" smooth="yes"/>
      <point x="44" y="168"/>
      <point x="340" y="242"/>
      <point x="340" y="143" type="curve" smooth="yes"/>
      <point x="340" y="101"/>
      <point x="308" y="80"/>
      <point x="253" y="80" type="curve" smooth="yes"/>
      <point x="178" y="80"/>
      <point x="152" y="121"/>
      <point x="144" y="160" type="curve"/>
      <point x="30" y="160" type="line"/>
      <point x="30" y="105"/>
      <point x="60" y="7"/>
      <point x="204" y="-8" type="curve"/>
      <point x="128" y="-136" type="line"/>
    </contour>
  </outline>
</glyph>
<glyph name="Tbar" format="2">
  <advance width="542"/>
  <unicode hex="0166"/>
  <outline>
    <contour>
      <point x="211" y="0" type="line"/>
      <point x="331" y="0" type="line"/>
      <point x="331" y="321" type="line"/>
      <point x="439" y="321" type="line"/>
      <point x="439" y="406" type="line"/>
      <point x="331" y="406" type="line"/>
      <point x="331" y="560" type="line"/>
      <point x="509" y="560" type="line"/>
      <point x="509" y="680" type="line"/>
      <point x="33" y="680" type="line"/>
      <point x="33" y="560" type="line"/>
      <point x="211" y="560" type="line"/>
      <point x="211" y="406" type="line"/>
      <point x="103" y="406" type="line"/>
      <point x="103" y="321" type="line"/>
      <point x="211" y="321" type="line"/>
    </contour>
  </outline>
</glyph>
<glyph name="tbar" format="2">
  <advance width="297"/>
  <unicode hex="0167"/>
  <outline>
    <contour>
      <point x="-20" y="250" type="line"/>
      <point x="80" y="250" type="line"/>
      <point x="80" y="84" type="line" smooth="yes"/>
      <point x="80" y="36"/>
      <point x="112" y="-10"/>
      <point x="188" y="-10" type="curve"/>
      <point x="234" y="-10"/>
      <point x="258" y="-1"/>
      <point x="267" y="2" type="curve"/>
      <point x="267" y="102" type="line"/>
      <point x="260" y="98"/>
      <point x="248" y="94"/>
      <point x="230" y="94" type="curve" smooth="yes"/>
      <point x="210" y="94"/>
      <point x="190" y="102"/>
      <point x="190" y="132" type="curve" smooth="yes"/>
      <point x="190" y="250" type="line"/>
      <point x="316" y="250" type="line"/>
      <point x="316" y="335" type="line"/>
      <point x="190" y="335" type="line"/>
      <point x="190" y="390" type="line"/>
      <point x="260" y="390" type="line"/>
      <point x="260" y="500" type="line"/>
      <point x="190" y="500" type="line"/>
      <point x="190" y="680" type="line"/>
      <point x="80" y="680" type="line"/>
      <point x="80" y="500" type="line"/>
      <point x="20" y="500" type="line"/>
      <point x="20" y="390" type="line"/>
      <point x="80" y="390" type="line"/>
      <point x="80" y="335" type="line"/>
      <point x="-20" y="335" type="line"/>
    </contour>
  </outline>
</glyph>
<glyph name="Uogonek" format="2">
  <advance width="637"/>
  <unicode hex="0172"/>
  <outline>
    <contour>
      <point x="557" y="680" type="line"/>
      <point x="438" y="680" type="line"/>
      <point x="438" y="203" type="line" smooth="yes"/>
      <point x="438" y="141"/>
      <point x="388" y="110"/>
      <point x="318" y="110" type="curve" smooth="yes"/>
      <point x="238" y="110"/>
      <point x="199" y="153"/>
      <point x="199" y="215" type="curve" smooth="yes"/>
      <point x="199" y="680" type="line"/>
      <point x="81" y="680" type="line"/>
      <point x="81" y="208" type="line" smooth="yes"/>
      <point x="81" y="103"/>
      <point x="147" y="13"/>
      <point x="267" y="-6" type="curve"/>
      <point x="247" y="-34"/>
      <point x="240" y="-62"/>
      <point x="240" y="-94" type="curve" smooth="yes"/>
      <point x="240" y="-137"/>
      <point x="277" y="-190"/>
      <point x="338" y="-190" type="curve" smooth="yes"/>
      <point x="367" y="-190"/>
      <point x="392" y="-181"/>
      <point x="410" y="-166" type="curve"/>
      <point x="403" y="-81" type="line"/>
      <point x="387" y="-99"/>
      <point x="375" y="-104"/>
      <point x="358" y="-104" type="curve" smooth="yes"/>
      <point x="338" y="-104"/>
      <point x="331" y="-88"/>
      <point x="331" y="-69" type="curve" smooth="yes"/>
      <point x="331" y="-49"/>
      <point x="343" y="-20"/>
      <point x="365" y="-7" type="curve"/>
      <point x="481" y="11"/>
      <point x="557" y="90"/>
      <point x="557" y="198" type="curve" smooth="yes"/>
    </contour>
  </outline>
</glyph>
<glyph name="uogonek" format="2">
  <advance width="531"/>
  <unicode hex="0173"/>
  <outline>
    <contour>
      <point x="56" y="500" type="line"/>
      <point x="56" y="156" type="line" smooth="yes"/>
      <point x="56" y="46"/>
      <point x="131" y="-10"/>
      <point x="218" y="-10" type="curve" smooth="yes"/>
      <point x="298" y="-10"/>
      <point x="343" y="26"/>
      <point x="361" y="40" type="curve"/>
      <point x="361" y="5" type="line"/>
      <point x="316" y="-36"/>
      <point x="304" y="-65"/>
      <point x="304" y="-108" type="curve" smooth="yes"/>
      <point x="304" y="-145"/>
      <point x="337" y="-190"/>
      <point x="392" y="-190" type="curve" smooth="yes"/>
      <point x="427" y="-190"/>
      <point x="463" y="-175"/>
      <point x="477" y="-159" type="curve"/>
      <point x="471" y="-67" type="line"/>
      <point x="450" y="-90"/>
      <point x="437" y="-99"/>
      <point x="418" y="-99" type="curve" smooth="yes"/>
      <point x="394" y="-99"/>
      <point x="385" y="-85"/>
      <point x="385" y="-69" type="curve" smooth="yes"/>
      <point x="385" y="-44"/>
      <point x="413" y="-8"/>
      <point x="469" y="0" type="curve"/>
      <point x="471" y="0" type="line"/>
      <point x="471" y="500" type="line"/>
      <point x="357" y="500" type="line"/>
      <point x="357" y="220" type="line" smooth="yes"/>
      <point x="357" y="160"/>
      <point x="339" y="80"/>
      <point x="258" y="80" type="curve" smooth="yes"/>
      <point x="209" y="80"/>
      <point x="170" y="110"/>
      <point x="170" y="170" type="curve" smooth="yes"/>
      <point x="170" y="500" type="line"/>
    </contour>
  </outline>
</glyph>
<glyph name="Schwa" format="2">
  <advance width="682"/>
  <unicode hex="018F"/>
  <outline>
    <contour>
      <point x="175" y="398" type="line"/>
      <point x="215" y="527"/>
      <point x="259" y="571"/>
      <point x="348" y="571" type="curve" smooth="yes"/>
      <point x="449" y="571"/>
      <point x="517" y="499"/>
      <point x="520" y="349" type="curve"/>
      <point x="50" y="349" type="line"/>
      <point x="50" y="289" type="line"/>
      <point x="50" y="108"/>
      <point x="175" y="-10"/>
      <point x="343" y="-10" type="curve" smooth="yes"/>
      <point x="511" y="-10"/>
      <point x="644" y="108"/>
      <point x="644" y="340" type="curve" smooth="yes"/>
      <point x="644" y="572"/>
      <point x="503" y="690"/>
      <point x="343" y="690" type="curve" smooth="yes"/>
      <point x="172" y="690"/>
      <point x="57" y="575"/>
      <point x="50" y="398" type="curve"/>
    </contour>
    <contour>
      <point x="348" y="109" type="curve" smooth="yes"/>
      <point x="260" y="109"/>
      <point x="184" y="162"/>
      <point x="184" y="259" type="curve"/>
      <point x="513" y="259" type="line"/>
      <point x="493" y="158"/>
      <point x="432" y="109"/>
    </contour>
  </outline>
</glyph>
<glyph name="florin" format="2">
  <advance width="646"/>
  <unicode hex="0192"/>
  <outline>
    <contour>
      <point x="263" y="152" type="line" smooth="yes"/>
      <point x="263" y="122"/>
      <point x="243" y="104"/>
      <point x="203" y="104" type="curve"/>
      <point x="185" y="104"/>
      <point x="171" y="106"/>
      <point x="146" y="116" type="curve"/>
      <point x="146" y="6" type="line"/>
      <point x="182" y="-6"/>
      <point x="209" y="-10"/>
      <point x="245" y="-10" type="curve"/>
      <point x="341" y="-10"/>
      <point x="373" y="60"/>
      <point x="373" y="108" type="curve" smooth="yes"/>
      <point x="373" y="294" type="line"/>
      <point x="543" y="294" type="line"/>
      <point x="543" y="384" type="line"/>
      <point x="373" y="384" type="line"/>
      <point x="373" y="528" type="line" smooth="yes"/>
      <point x="373" y="558"/>
      <point x="393" y="576"/>
      <point x="433" y="576" type="curve"/>
      <point x="451" y="576"/>
      <point x="471" y="573"/>
      <point x="490" y="564" type="curve"/>
      <point x="490" y="674" type="line"/>
      <point x="455" y="686"/>
      <point x="427" y="690"/>
      <point x="391" y="690" type="curve"/>
      <point x="295" y="690"/>
      <point x="263" y="620"/>
      <point x="263" y="572" type="curve" smooth="yes"/>
      <point x="263" y="384" type="line"/>
      <point x="103" y="384" type="line"/>
      <point x="103" y="294" type="line"/>
      <point x="263" y="294" type="line"/>
    </contour>
  </outline>
</glyph>
<glyph name="aringacute" format="2">
  <advance width="558"/>
  <unicode hex="01FB"/>
  <outline>
    <contour>
      <point x="238" y="988" type="line"/>
      <point x="208" y="848" type="line"/>
      <point x="308" y="848" type="line"/>
      <point x="422" y="988" type="line"/>
    </contour>
    <contour>
      <point x="258" y="550" type="curve" smooth="yes"/>
      <point x="325" y="550"/>
      <point x="381" y="607"/>
      <point x="381" y="675" type="curve" smooth="yes"/>
      <point x="381" y="743"/>
      <point x="325" y="799"/>
      <point x="258" y="799" type="curve" smooth="yes"/>
      <point x="190" y="799"/>
      <point x="136" y="743"/>
      <point x="136" y="675" type="curve" smooth="yes"/>
      <point x="136" y="607"/>
      <point x="190" y="550"/>
    </contour>
    <contour>
      <point x="255" y="620" type="curve" smooth="yes"/>
      <point x="226" y="620"/>
      <point x="201" y="645"/>
      <point x="201" y="675" type="curve" smooth="yes"/>
      <point x="201" y="704"/>
      <point x="226" y="727"/>
      <point x="255" y="727" type="curve" smooth="yes"/>
      <point x="285" y="727"/>
      <point x="309" y="704"/>
      <point x="309" y="675" type="curve" smooth="yes"/>
      <point x="309" y="645"/>
      <point x="285" y="620"/>
    </contour>
    <contour>
      <point x="472" y="147" type="curve" smooth="yes"/>
      <point x="472" y="351" type="line" smooth="yes"/>
      <point x="472" y="459"/>
      <point x="376" y="510"/>
      <point x="263" y="510" type="curve" smooth="yes"/>
      <point x="140" y="510"/>
      <point x="44" y="448"/>
      <point x="44" y="340" type="curve"/>
      <point x="166" y="340" type="line"/>
      <point x="166" y="399"/>
      <point x="198" y="430"/>
      <point x="260" y="430" type="curve"/>
      <point x="320" y="430"/>
      <point x="362" y="394"/>
      <point x="362" y="340" type="curve" smooth="yes"/>
      <point x="362" y="316" type="line"/>
      <point x="266" y="316" type="line" smooth="yes"/>
      <point x="128" y="316"/>
      <point x="32" y="270"/>
      <point x="32" y="156" type="curve" smooth="yes"/>
      <point x="32" y="68"/>
      <point x="116" y="-10"/>
      <point x="228" y="-10" type="curve" smooth="yes"/>
      <point x="316" y="-10"/>
      <point x="366" y="32"/>
      <point x="384" y="46" type="curve"/>
      <point x="407" y="7"/>
      <point x="436" y="-6"/>
      <point x="497" y="-6" type="curve" smooth="yes"/>
      <point x="515" y="-6"/>
      <point x="533" y="-5"/>
      <point x="568" y="0" type="curve"/>
      <point x="568" y="110" type="line"/>
      <point x="549" y="106"/>
      <point x="536" y="104"/>
      <point x="523" y="104" type="curve" smooth="yes"/>
      <point x="492" y="104"/>
      <point x="472" y="117"/>
    </contour>
    <contour>
      <point x="156" y="144" type="curve"/>
      <point x="156" y="198"/>
      <point x="188" y="238"/>
      <point x="362" y="230" type="curve"/>
      <point x="362" y="180" type="line" smooth="yes"/>
      <point x="362" y="140"/>
      <point x="326" y="70"/>
      <point x="244" y="70" type="curve" smooth="yes"/>
      <point x="190" y="70"/>
      <point x="156" y="104"/>
    </contour>
  </outline>
</glyph>
<glyph name="dotlessj" format="2">
  <advance width="230"/>
  <unicode hex="0237"/>
  <anchor x="115.0" y="430.0" name="top"/>
  <outline>
    <contour>
      <point x="170" y="500" type="line"/>
      <point x="60" y="500" type="line"/>
      <point x="60" y="-48" type="line" smooth="yes"/>
      <point x="60" y="-78"/>
      <point x="40" y="-86"/>
      <point x="20" y="-86" type="curve" smooth="yes"/>
      <point x="2" y="-86"/>
      <point x="-10" y="-82"/>
      <point x="-17" y="-78" type="curve"/>
      <point x="-17" y="-178" type="line"/>
      <point x="-8" y="-181"/>
      <point x="16" y="-190"/>
      <point x="62" y="-190" type="curve"/>
      <point x="138" y="-190"/>
      <point x="170" y="-130"/>
      <point x="170" y="-82" type="curve" smooth="yes"/>
    </contour>
  </outline>
</glyph>
<glyph name="circumflex" format="2">
  <advance width="500"/>
  <unicode hex="02C6"/>
  <anchor x="250.0" y="610.0" name="_top"/>
  <outline>
    <contour>
      <point x="173" y="870" type="line"/>
      <point x="93" y="730" type="line"/>
      <point x="193" y="730" type="line"/>
      <point x="250" y="800" type="line"/>
      <point x="307" y="730" type="line"/>
      <point x="407" y="730" type="line"/>
      <point x="327" y="870" type="line"/>
    </contour>
  </outline>
</glyph>
<glyph name="caron" format="2">
  <advance width="500"/>
  <unicode hex="02C7"/>
  <anchor x="250.0" y="610.0" name="_top"/>
  <outline>
    <contour>
      <point x="173" y="730" type="line"/>
      <point x="327" y="730" type="line"/>
      <point x="407" y="870" type="line"/>
      <point x="307" y="870" type="line"/>
      <point x="250" y="800" type="line"/>
      <point x="193" y="870" type="line"/>
      <point x="93" y="870" type="line"/>
    </contour>
  </outline>
</glyph>
<glyph name="dotaccent" format="2">
  <advance width="500"/>
  <unicode hex="02D9"/>
  <anchor x="250.0" y="610.0" name="_top"/>
  <outline>
    <contour>
      <point x="193" y="860" type="line"/>
      <point x="193" y="740" type="line"/>
      <point x="307" y="740" type="line"/>
      <point x="307" y="860" type="line"/>
    </contour>
  </outline>
</glyph>
<glyph name="ring" format="2">
  <advance width="500"/>
  <unicode hex="02DA"/>
  <anchor x="250.0" y="610.0" name="_top"/>
  <outline>
    <contour>
      <point x="250" y="730" type="curve" smooth="yes"/>
      <point x="317" y="730"/>
      <point x="373" y="787"/>
      <point x="373" y="855" type="curve" smooth="yes"/>
      <point x="373" y="923"/>
      <point x="317" y="979"/>
      <point x="250" y="979" type="curve" smooth="yes"/>
      <point x="182" y="979"/>
      <point x="128" y="923"/>
      <point x="128" y="855" type="curve" smooth="yes"/>
      <point x="128" y="787"/>
      <point x="182" y="730"/>
    </contour>
    <contour>
      <point x="247" y="800" type="curve" smooth="yes"/>
      <point x="218" y="800"/>
      <point x="193" y="825"/>
      <point x="193" y="855" type="curve" smooth="yes"/>
      <point x="193" y="884"/>
      <point x="218" y="907"/>
      <point x="247" y="907" type="curve" smooth="yes"/>
      <point x="277" y="907"/>
      <point x="301" y="884"/>
      <point x="301" y="855" type="curve" smooth="yes"/>
      <point x="301" y="825"/>
      <point x="277" y="800"/>
    </contour>
  </outline>
</glyph>
<glyph name="ogonek" format="2">
  <advance width="500"/>
  <unicode hex="02DB"/>
  <anchor x="250.0" y="0.0" name="_bottom"/>
  <outline>
    <contour>
      <point x="247" y="56" type="line"/>
      <point x="177" y="4"/>
      <point x="156" y="-39"/>
      <point x="156" y="-94" type="curve" smooth="yes"/>
      <point x="156" y="-137"/>
      <point x="193" y="-190"/>
      <point x="254" y="-190" type="curve" smooth="yes"/>
      <point x="283" y="-190"/>
      <point x="308" y="-181"/>
      <point x="326" y="-166" type="curve"/>
      <point x="319" y="-81" type="line"/>
      <point x="303" y="-99"/>
      <point x="291" y="-104"/>
      <point x="274" y="-104" type="curve" smooth="yes"/>
      <point x="254" y="-104"/>
      <point x="247" y="-88"/>
      <point x="247" y="-69" type="curve" smooth="yes"/>
      <point x="247" y="-44"/>
      <point x="265" y="-5"/>
      <point x="300" y="0" type="curve"/>
      <point x="300" y="33" type="line"/>
    </contour>
  </outline>
</glyph>
<glyph name="tilde" format="2">
  <advance width="500"/>
  <unicode hex="02DC"/>
  <anchor x="250.0" y="610.0" name="_top"/>
  <outline>
    <contour>
      <point x="74" y="742" type="curve"/>
      <point x="162" y="742" type="line"/>
      <point x="158" y="767"/>
      <point x="171" y="778"/>
      <point x="190" y="778" type="curve" smooth="yes"/>
      <point x="222" y="778"/>
      <point x="276" y="730"/>
      <point x="331" y="730" type="curve" smooth="yes"/>
      <point x="387" y="730"/>
      <point x="441" y="764"/>
      <point x="434" y="863" type="curve"/>
      <point x="352" y="873" type="line"/>
      <point x="358" y="845"/>
      <point x="347" y="820"/>
      <point x="316" y="820" type="curve" smooth="yes"/>
      <point x="281" y="820"/>
      <point x="241" y="870"/>
      <point x="181" y="870" type="curve" smooth="yes"/>
      <point x="104" y="870"/>
      <point x="65" y="819"/>
    </contour>
  </outline>
</glyph>
<glyph name="hungarumlaut" format="2">
  <advance width="500"/>
  <unicode hex="02DD"/>
  <anchor x="250.0" y="610.0" name="_top"/>
  <outline>
    <contour>
      <point x="301" y="870" type="line"/>
      <point x="271" y="730" type="line"/>
      <point x="361" y="730" type="line"/>
      <point x="465" y="870" type="line"/>
    </contour>
    <contour>
      <point x="101" y="870" type="line"/>
      <point x="71" y="730" type="line"/>
      <point x="161" y="730" type="line"/>
      <point x="265" y="870" type="line"/>
    </contour>
  </outline>
</glyph>
<glyph name="pi" format="2">
  <advance width="564"/>
  <unicode hex="03C0"/>
  <outline>
    <contour>
      <point x="237" y="0" type="line"/>
      <point x="237" y="410" type="line"/>
      <point x="327" y="410" type="line"/>
      <point x="327" y="90" type="line" smooth="yes"/>
      <point x="327" y="22"/>
      <point x="362" y="0"/>
      <point x="417" y="0" type="curve" smooth="yes"/>
      <point x="514" y="0" type="line"/>
      <point x="514" y="90" type="line"/>
      <point x="459" y="90" type="line" smooth="yes"/>
      <point x="425" y="90"/>
      <point x="417" y="104"/>
      <point x="417" y="134" type="curve" smooth="yes"/>
      <point x="417" y="410" type="line"/>
      <point x="514" y="410" type="line"/>
      <point x="514" y="500" type="line"/>
      <point x="50" y="500" type="line"/>
      <point x="50" y="410" type="line"/>
      <point x="147" y="410" type="line"/>
      <point x="147" y="0" type="line"/>
    </contour>
  </outline>
</glyph>
<glyph name="endash" format="2">
  <advance width="544"/>
  <unicode hex="2013"/>
  <outline>
    <contour>
      <point x="22" y="205" type="line"/>
      <point x="522" y="205" type="line"/>
      <point x="522" y="295" type="line"/>
      <point x="22" y="295" type="line"/>
    </contour>
  </outline>
</glyph>
<glyph name="emdash" format="2">
  <advance width="1044"/>
  <unicode hex="2014"/>
  <outline>
    <contour>
      <point x="22" y="205" type="line"/>
      <point x="1022" y="205" type="line"/>
      <point x="1022" y="295" type="line"/>
      <point x="22" y="295" type="line"/>
    </contour>
  </outline>
</glyph>
<glyph name="quoteleft" format="2">
  <advance width="230"/>
  <unicode hex="2018"/>
  <outline>
    <contour>
      <point x="183" y="400" type="line"/>
      <point x="183" y="540" type="line"/>
      <point x="113" y="540" type="line"/>
      <point x="113" y="580"/>
      <point x="138" y="610"/>
      <point x="184" y="610" type="curve"/>
      <point x="184" y="680" type="line"/>
      <point x="88" y="680"/>
      <point x="43" y="640"/>
      <point x="43" y="538" type="curve" smooth="yes"/>
      <point x="43" y="400" type="line"/>
    </contour>
  </outline>
</glyph>
<glyph name="quoteright" format="2">
  <advance width="230"/>
  <unicode hex="2019"/>
  <outline>
    <contour>
      <point x="47" y="680" type="line"/>
      <point x="47" y="540" type="line"/>
      <point x="117" y="540" type="line"/>
      <point x="117" y="500"/>
      <point x="92" y="470"/>
      <point x="46" y="470" type="curve"/>
      <point x="46" y="400" type="line"/>
      <point x="142" y="400"/>
      <point x="187" y="440"/>
      <point x="187" y="542" type="curve" smooth="yes"/>
      <point x="187" y="680" type="line"/>
    </contour>
  </outline>
</glyph>
<glyph name="quotesinglbase" format="2">
  <advance width="230"/>
  <unicode hex="201A"/>
  <outline>
    <contour>
      <point x="47" y="180" type="line"/>
      <point x="47" y="40" type="line"/>
      <point x="117" y="40" type="line"/>
      <point x="117" y="0"/>
      <point x="92" y="-30"/>
      <point x="46" y="-30" type="curve"/>
      <point x="46" y="-100" type="line"/>
      <point x="142" y="-100"/>
      <point x="187" y="-60"/>
      <point x="187" y="42" type="curve" smooth="yes"/>
      <point x="187" y="180" type="line"/>
    </contour>
  </outline>
</glyph>
<glyph name="quotedblleft" format="2">
  <advance width="430"/>
  <unicode hex="201C"/>
  <outline>
    <contour>
      <point x="383" y="400" type="line"/>
      <point x="383" y="540" type="line"/>
      <point x="313" y="540" type="line"/>
      <point x="313" y="580"/>
      <point x="338" y="610"/>
      <point x="384" y="610" type="curve"/>
      <point x="384" y="680" type="line"/>
      <point x="288" y="680"/>
      <point x="243" y="640"/>
      <point x="243" y="538" type="curve" smooth="yes"/>
      <point x="243" y="400" type="line"/>
    </contour>
    <contour>
      <point x="183" y="400" type="line"/>
      <point x="183" y="540" type="line"/>
      <point x="113" y="540" type="line"/>
      <point x="113" y="580"/>
      <point x="138" y="610"/>
      <point x="184" y="610" type="curve"/>
      <point x="184" y="680" type="line"/>
      <point x="88" y="680"/>
      <point x="43" y="640"/>
      <point x="43" y="538" type="curve" smooth="yes"/>
      <point x="43" y="400" type="line"/>
    </contour>
  </outline>
</glyph>
<glyph name="quotedblright" format="2">
  <advance width="430"/>
  <unicode hex="201D"/>
  <outline>
    <contour>
      <point x="47" y="680" type="line"/>
      <point x="47" y="540" type="line"/>
      <point x="117" y="540" type="line"/>
      <point x="117" y="500"/>
      <point x="92" y="470"/>
      <point x="46" y="470" type="curve"/>
      <point x="46" y="400" type="line"/>
      <point x="142" y="400"/>
      <point x="187" y="440"/>
      <point x="187" y="542" type="curve" smooth="yes"/>
      <point x="187" y="680" type="line"/>
    </contour>
    <contour>
      <point x="247" y="680" type="line"/>
      <point x="247" y="540" type="line"/>
      <point x="317" y="540" type="line"/>
      <point x="317" y="500"/>
      <point x="292" y="470"/>
      <point x="246" y="470" type="curve"/>
      <point x="246" y="400" type="line"/>
      <point x="342" y="400"/>
      <point x="387" y="440"/>
      <point x="387" y="542" type="curve" smooth="yes"/>
      <point x="387" y="680" type="line"/>
    </contour>
  </outline>
</glyph>
<glyph name="quotedblbase" format="2">
  <advance width="430"/>
  <unicode hex="201E"/>
  <outline>
    <contour>
      <point x="47" y="180" type="line"/>
      <point x="47" y="40" type="line"/>
      <point x="117" y="40" type="line"/>
      <point x="117" y="0"/>
      <point x="92" y="-30"/>
      <point x="46" y="-30" type="curve"/>
      <point x="46" y="-100" type="line"/>
      <point x="142" y="-100"/>
      <point x="187" y="-60"/>
      <point x="187" y="42" type="curve" smooth="yes"/>
      <point x="187" y="180" type="line"/>
    </contour>
    <contour>
      <point x="247" y="180" type="line"/>
      <point x="247" y="40" type="line"/>
      <point x="317" y="40" type="line"/>
      <point x="317" y="0"/>
      <point x="292" y="-30"/>
      <point x="246" y="-30" type="curve"/>
      <point x="246" y="-100" type="line"/>
      <point x="342" y="-100"/>
      <point x="387" y="-60"/>
      <point x="387" y="42" type="curve" smooth="yes"/>
      <point x="387" y="180" type="line"/>
    </contour>
  </outline>
</glyph>
<glyph name="dagger" format="2">
  <advance width="374"/>
  <unicode hex="2020"/>
  <outline>
    <contour>
      <point x="132" y="0" type="line"/>
      <point x="242" y="0" type="line"/>
      <point x="242" y="392" type="line"/>
      <point x="354" y="392" type="line"/>
      <point x="354" y="500" type="line"/>
      <point x="242" y="500" type="line"/>
      <point x="242" y="680" type="line"/>
      <point x="132" y="680" type="line"/>
      <point x="132" y="500" type="line"/>
      <point x="20" y="500" type="line"/>
      <point x="20" y="392" type="line"/>
      <point x="132" y="392" type="line"/>
    </contour>
  </outline>
</glyph>
<glyph name="bullet" format="2">
  <advance width="358"/>
  <unicode hex="2022"/>
  <outline>
    <contour>
      <point x="55" y="176" type="line"/>
      <point x="303" y="176" type="line"/>
      <point x="303" y="424" type="line"/>
      <point x="55" y="424" type="line"/>
    </contour>
  </outline>
</glyph>
<glyph name="ellipsis" format="2">
  <advance width="880"/>
  <unicode hex="2026"/>
  <outline>
    <contour>
      <point x="45" y="140" type="line"/>
      <point x="45" y="0" type="line"/>
      <point x="185" y="0" type="line"/>
      <point x="185" y="140" type="line"/>
    </contour>
    <contour>
      <point x="370" y="140" type="line"/>
      <point x="370" y="0" type="line"/>
      <point x="510" y="0" type="line"/>
      <point x="510" y="140" type="line"/>
    </contour>
    <contour>
      <point x="695" y="140" type="line"/>
      <point x="695" y="0" type="line"/>
      <point x="835" y="0" type="line"/>
      <point x="835" y="140" type="line"/>
    </contour>
  </outline>
</glyph>
<glyph name="perthousand" format="2">
  <advance width="1276"/>
  <unicode hex="2030"/>
  <outline>
    <contour>
      <point x="199" y="280" type="curve" smooth="yes"/>
      <point x="295" y="280"/>
      <point x="376" y="354"/>
      <point x="376" y="485" type="curve" smooth="yes"/>
      <point x="376" y="616"/>
      <point x="296" y="690"/>
      <point x="199" y="690" type="curve" smooth="yes"/>
      <point x="103" y="690"/>
      <point x="24" y="616"/>
      <point x="24" y="485" type="curve" smooth="yes"/>
      <point x="24" y="354"/>
      <point x="104" y="280"/>
    </contour>
    <contour>
      <point x="190" y="0" type="line"/>
      <point x="290" y="0" type="line"/>
      <point x="696" y="680" type="line"/>
      <point x="596" y="680" type="line"/>
    </contour>
    <contour>
      <point x="199" y="369" type="curve" smooth="yes"/>
      <point x="138" y="369"/>
      <point x="114" y="422"/>
      <point x="114" y="485" type="curve" smooth="yes"/>
      <point x="114" y="548"/>
      <point x="138" y="601"/>
      <point x="199" y="601" type="curve" smooth="yes"/>
      <point x="260" y="601"/>
      <point x="285" y="548"/>
      <point x="285" y="485" type="curve" smooth="yes"/>
      <point x="285" y="422"/>
      <point x="260" y="369"/>
    </contour>
    <contour>
      <point x="685" y="-10" type="curve" smooth="yes"/>
      <point x="781" y="-10"/>
      <point x="862" y="64"/>
      <point x="862" y="195" type="curve" smooth="yes"/>
      <point x="862" y="326"/>
      <point x="782" y="400"/>
      <point x="685" y="400" type="curve" smooth="yes"/>
      <point x="589" y="400"/>
      <point x="510" y="326"/>
      <point x="510" y="195" type="curve" smooth="yes"/>
      <point x="510" y="64"/>
      <point x="590" y="-10"/>
    </contour>
    <contour>
      <point x="1075" y="-10" type="curve" smooth="yes"/>
      <point x="1171" y="-10"/>
      <point x="1252" y="64"/>
      <point x="1252" y="195" type="curve" smooth="yes"/>
      <point x="1252" y="326"/>
      <point x="1172" y="400"/>
      <point x="1075" y="400" type="curve" smooth="yes"/>
      <point x="979" y="400"/>
      <point x="900" y="326"/>
      <point x="900" y="195" type="curve" smooth="yes"/>
      <point x="900" y="64"/>
      <point x="980" y="-10"/>
    </contour>
    <contour>
      <point x="685" y="79" type="curve" smooth="yes"/>
      <point x="624" y="79"/>
      <point x="600" y="132"/>
      <point x="600" y="195" type="curve" smooth="yes"/>
      <point x="600" y="258"/>
      <point x="624" y="311"/>
      <point x="685" y="311" type="curve" smooth="yes"/>
      <point x="746" y="311"/>
      <point x="771" y="258"/>
      <point x="771" y="195" type="curve" smooth="yes"/>
      <point x="771" y="132"/>
      <point x="746" y="79"/>
    </contour>
    <contour>
      <point x="1075" y="79" type="curve" smooth="yes"/>
      <point x="1014" y="79"/>
      <point x="990" y="132"/>
      <point x="990" y="195" type="curve" smooth="yes"/>
      <point x="990" y="258"/>
      <point x="1014" y="311"/>
      <point x="1075" y="311" type="curve" smooth="yes"/>
      <point x="1136" y="311"/>
      <point x="1161" y="258"/>
      <point x="1161" y="195" type="curve" smooth="yes"/>
      <point x="1161" y="132"/>
      <point x="1136" y="79"/>
    </contour>
  </outline>
</glyph>
<glyph name="guilsinglleft" format="2">
  <advance width="500"/>
  <unicode hex="2039"/>
  <outline>
    <contour>
      <point x="400" y="487" type="line"/>
      <point x="58" y="301" type="line"/>
      <point x="58" y="199" type="line"/>
      <point x="400" y="13" type="line"/>
      <point x="400" y="131" type="line"/>
      <point x="178" y="250" type="line"/>
      <point x="400" y="369" type="line"/>
    </contour>
  </outline>
</glyph>
<glyph name="guilsinglright" format="2">
  <advance width="500"/>
  <unicode hex="203A"/>
  <outline>
    <contour>
      <point x="100" y="487" type="line"/>
      <point x="100" y="369" type="line"/>
      <point x="322" y="250" type="line"/>
      <point x="100" y="131" type="line"/>
      <point x="100" y="13" type="line"/>
      <point x="442" y="199" type="line"/>
      <point x="442" y="301" type="line"/>
    </contour>
  </outline>
</glyph>
<glyph name="fraction" format="2">
  <advance width="886"/>
  <unicode hex="2044"/>
  <outline>
    <contour>
      <point x="190" y="0" type="line"/>
      <point x="290" y="0" type="line"/>
      <point x="696" y="680" type="line"/>
      <point x="596" y="680" type="line"/>
    </contour>
  </outline>
</glyph>
<glyph name="Euro" format="2">
  <advance width="646"/>
  <unicode hex="20AC"/>
  <outline>
    <contour>
      <point x="18" y="222" type="line"/>
      <point x="112" y="222" type="line"/>
      <point x="140" y="63"/>
      <point x="230" y="-10"/>
      <point x="348" y="-10" type="curve"/>
      <point x="485" y="-10"/>
      <point x="588" y="94"/>
      <point x="606" y="262" type="curve"/>
      <point x="481" y="262" type="line"/>
      <point x="460" y="158"/>
      <point x="419" y="109"/>
      <point x="353" y="109" type="curve" smooth="yes"/>
      <point x="298" y="109"/>
      <point x="258" y="146"/>
      <point x="239" y="222" type="curve"/>
      <point x="346" y="222" type="line"/>
      <point x="370" y="312" type="line"/>
      <point x="227" y="312" type="line"/>
      <point x="226" y="321"/>
      <point x="226" y="330"/>
      <point x="226" y="340" type="curve" smooth="yes"/>
      <point x="226" y="363" type="line"/>
      <point x="389" y="363" type="line"/>
      <point x="413" y="453" type="line"/>
      <point x="238" y="453" type="line"/>
      <point x="258" y="532"/>
      <point x="300" y="571"/>
      <point x="357" y="571" type="curve" smooth="yes"/>
      <point x="421" y="571"/>
      <point x="465" y="528"/>
      <point x="472" y="411" type="curve"/>
      <point x="606" y="411" type="line"/>
      <point x="591" y="595"/>
      <point x="501" y="690"/>
      <point x="358" y="690" type="curve" smooth="yes"/>
      <point x="240" y="690"/>
      <point x="143" y="610"/>
      <point x="112" y="453" type="curve"/>
      <point x="59" y="453" type="line"/>
      <point x="35" y="363" type="line"/>
      <point x="102" y="363" type="line"/>
      <point x="102" y="312" type="line"/>
      <point x="42" y="312" type="line"/>
    </contour>
  </outline>
</glyph>
<glyph name="uni2117" format="2">
  <advance width="820"/>
  <unicode hex="2117"/>
  <anchor x="399.0" y="166.0" name="bottom"/>
  <anchor x="406.0" y="146.0" name="bottom"/>
  <anchor x="397.0" y="140.0" name="bottom"/>
  <outline>
    <contour>
      <point x="410" y="-10" type="curve" smooth="yes"/>
      <point x="602" y="-10"/>
      <point x="760" y="137"/>
      <point x="760" y="340" type="curve" smooth="yes"/>
      <point x="760" y="541"/>
      <point x="602" y="690"/>
      <point x="410" y="690" type="curve" smooth="yes"/>
      <point x="218" y="690"/>
      <point x="60" y="541"/>
      <point x="60" y="340" type="curve" smooth="yes"/>
      <point x="60" y="137"/>
      <point x="218" y="-10"/>
    </contour>
    <contour>
      <point x="410" y="74" type="curve" smooth="yes"/>
      <point x="268" y="74"/>
      <point x="150" y="187"/>
      <point x="150" y="340" type="curve" smooth="yes"/>
      <point x="150" y="493"/>
      <point x="268" y="606"/>
      <point x="410" y="606" type="curve" smooth="yes"/>
      <point x="554" y="606"/>
      <point x="670" y="493"/>
      <point x="670" y="340" type="curve" smooth="yes"/>
      <point x="670" y="187"/>
      <point x="554" y="74"/>
    </contour>
    <contour>
      <point x="282" y="140" type="line"/>
      <point x="378" y="140" type="line"/>
      <point x="373" y="152"/>
      <point x="372" y="176"/>
      <point x="372" y="190" type="curve" smooth="yes"/>
      <point x="372" y="296" type="line"/>
      <point x="449" y="296" type="line" smooth="yes"/>
      <point x="527" y="296"/>
      <point x="578" y="348"/>
      <point x="578" y="418" type="curve" smooth="yes"/>
      <point x="578" y="488"/>
      <point x="527" y="540"/>
      <point x="449" y="540" type="curve" smooth="yes"/>
      <point x="282" y="540" type="line"/>
    </contour>
    <contour>
      <point x="440" y="460" type="line" smooth="yes"/>
      <point x="468" y="460"/>
      <point x="484" y="442"/>
      <point x="484" y="418" type="curve" smooth="yes"/>
      <point x="484" y="394"/>
      <point x="471" y="376"/>
      <point x="440" y="376" type="curve" smooth="yes"/>
      <point x="372" y="376" type="line"/>
      <point x="372" y="460" type="line"/>
    </contour>
  </outline>
</glyph>
<glyph name="trademark" format="2">
  <advance width="763"/>
  <unicode hex="2122"/>
  <outline>
    <contour>
      <point x="111" y="290" type="line"/>
      <point x="201" y="290" type="line"/>
      <point x="201" y="590" type="line"/>
      <point x="303" y="590" type="line"/>
      <point x="303" y="290" type="line"/>
      <point x="389" y="290" type="line"/>
      <point x="389" y="579" type="line"/>
      <point x="478" y="290" type="line"/>
      <point x="534" y="290" type="line"/>
      <point x="623" y="569" type="line"/>
      <point x="623" y="290" type="line"/>
      <point x="703" y="290" type="line"/>
      <point x="703" y="680" type="line"/>
      <point x="570" y="680" type="line"/>
      <point x="508" y="489" type="line"/>
      <point x="449" y="680" type="line"/>
      <point x="20" y="680" type="line"/>
      <point x="20" y="590" type="line"/>
      <point x="111" y="590" type="line"/>
    </contour>
  </outline>
</glyph>
<glyph name="estimated" format="2">
  <advance width="712"/>
  <unicode hex="212E"/>
  <outline>
    <contour>
      <point x="662" y="257" type="line"/>
      <point x="662" y="264" type="line" smooth="yes"/>
      <point x="662" y="417"/>
      <point x="525" y="541"/>
      <point x="356" y="541" type="curve" smooth="yes"/>
      <point x="187" y="541"/>
      <point x="50" y="417"/>
      <point x="50" y="264" type="curve" smooth="yes"/>
      <point x="50" y="112"/>
      <point x="187" y="-11"/>
      <point x="356" y="-11" type="curve" smooth="yes"/>
      <point x="455" y="-11"/>
      <point x="543" y="32"/>
      <point x="598" y="96" type="curve"/>
      <point x="554" y="96" type="line"/>
      <point x="506" y="41"/>
      <point x="437" y="6"/>
      <point x="357" y="6" type="curve" smooth="yes"/>
      <point x="283" y="6"/>
      <point x="217" y="38"/>
      <point x="169" y="86" type="curve" smooth="yes"/>
      <point x="164" y="91"/>
      <point x="162" y="97"/>
      <point x="162" y="104" type="curve" smooth="yes"/>
      <point x="162" y="254" type="line" smooth="yes"/>
      <point x="162" y="256"/>
      <point x="164" y="257"/>
      <point x="166" y="257" type="curve" smooth="yes"/>
    </contour>
    <contour>
      <point x="550" y="276" type="line" smooth="yes"/>
      <point x="550" y="274"/>
      <point x="549" y="272"/>
      <point x="547" y="272" type="curve" smooth="yes"/>
      <point x="166" y="272" type="line" smooth="yes"/>
      <point x="164" y="272"/>
      <point x="162" y="274"/>
      <point x="162" y="276" type="curve" smooth="yes"/>
      <point x="162" y="424" type="line" smooth="yes"/>
      <point x="162" y="432"/>
      <point x="165" y="438"/>
      <point x="170" y="443" type="curve" smooth="yes"/>
      <point x="219" y="492"/>
      <point x="284" y="524"/>
      <point x="357" y="524" type="curve" smooth="yes"/>
      <point x="430" y="524"/>
      <point x="495" y="494"/>
      <point x="542" y="446" type="curve" smooth="yes"/>
      <point x="547" y="441"/>
      <point x="550" y="435"/>
      <point x="550" y="427" type="curve" smooth="yes"/>
    </contour>
  </outline>
</glyph>
<glyph name="arrowleft" format="2">
  <advance width="499"/>
  <unicode hex="2190"/>
  <outline>
    <contour>
      <point x="459" y="680" type="line"/>
      <point x="369" y="680" type="line"/>
      <point x="20" y="340" type="line"/>
      <point x="369" y="0" type="line"/>
      <point x="459" y="0" type="line"/>
      <point x="230" y="340" type="line"/>
    </contour>
  </outline>
</glyph>
<glyph name="arrowup" format="2">
  <advance width="720"/>
  <unicode hex="2191"/>
  <outline>
    <contour>
      <point x="700" y="121" type="line"/>
      <point x="700" y="211" type="line"/>
      <point x="360" y="560" type="line"/>
      <point x="20" y="211" type="line"/>
      <point x="20" y="121" type="line"/>
      <point x="360" y="350" type="line"/>
    </contour>
  </outline>
</glyph>
<glyph name="arrowright" format="2">
  <advance width="499"/>
  <unicode hex="2192"/>
  <outline>
    <contour>
      <point x="40" y="680" type="line"/>
      <point x="269" y="340" type="line"/>
      <point x="40" y="0" type="line"/>
      <point x="130" y="0" type="line"/>
      <point x="479" y="340" type="line"/>
      <point x="130" y="680" type="line"/>
    </contour>
  </outline>
</glyph>
<glyph name="arrowdown" format="2">
  <advance width="720"/>
  <unicode hex="2193"/>
  <outline>
    <contour>
      <point x="700" y="560" type="line"/>
      <point x="360" y="331" type="line"/>
      <point x="20" y="560" type="line"/>
      <point x="20" y="470" type="line"/>
      <point x="360" y="121" type="line"/>
      <point x="700" y="470" type="line"/>
    </contour>
  </outline>
</glyph>
<glyph name="partialdiff" format="2">
  <advance width="564"/>
  <unicode hex="2202"/>
  <outline>
    <contour>
      <point x="478" y="300" type="curve"/>
      <point x="478" y="548"/>
      <point x="334" y="660"/>
      <point x="288" y="700" type="curve"/>
      <point x="178" y="700" type="line"/>
      <point x="223" y="668"/>
      <point x="330" y="589"/>
      <point x="371" y="432" type="curve"/>
      <point x="345" y="451"/>
      <point x="310" y="460"/>
      <point x="268" y="460" type="curve"/>
      <point x="142" y="460"/>
      <point x="50" y="360"/>
      <point x="50" y="204" type="curve"/>
      <point x="50" y="78"/>
      <point x="132" y="-10"/>
      <point x="244" y="-10" type="curve"/>
      <point x="366" y="-10"/>
      <point x="478" y="80"/>
    </contour>
    <contour>
      <point x="140" y="210" type="curve"/>
      <point x="140" y="310"/>
      <point x="188" y="370"/>
      <point x="276" y="370" type="curve"/>
      <point x="325" y="370"/>
      <point x="360" y="357"/>
      <point x="387" y="334" type="curve"/>
      <point x="388" y="323"/>
      <point x="388" y="312"/>
      <point x="388" y="300" type="curve"/>
      <point x="388" y="168"/>
      <point x="345" y="80"/>
      <point x="250" y="80" type="curve"/>
      <point x="186" y="80"/>
      <point x="140" y="128"/>
    </contour>
  </outline>
</glyph>
<glyph name="product" format="2">
  <advance width="564"/>
  <unicode hex="220F"/>
  <outline>
    <contour>
      <point x="215" y="590" type="line"/>
      <point x="349" y="590" type="line"/>
      <point x="349" y="0" type="line"/>
      <point x="439" y="0" type="line"/>
      <point x="439" y="590" type="line"/>
      <point x="534" y="590" type="line"/>
      <point x="534" y="680" type="line"/>
      <point x="30" y="680" type="line"/>
      <point x="30" y="590" type="line"/>
      <point x="125" y="590" type="line"/>
      <point x="125" y="0" type="line"/>
      <point x="215" y="0" type="line"/>
    </contour>
  </outline>
</glyph>
<glyph name="summation" format="2">
  <advance width="564"/>
  <unicode hex="2211"/>
  <outline>
    <contour>
      <point x="30" y="-86" type="line"/>
      <point x="30" y="-180" type="line"/>
      <point x="534" y="-180" type="line"/>
      <point x="534" y="-90" type="line"/>
      <point x="144" y="-90" type="line"/>
      <point x="400" y="250" type="line"/>
      <point x="144" y="590" type="line"/>
      <point x="534" y="590" type="line"/>
      <point x="534" y="680" type="line"/>
      <point x="30" y="680" type="line"/>
      <point x="30" y="586" type="line"/>
      <point x="282" y="250" type="line"/>
    </contour>
  </outline>
</glyph>
<glyph name="minus" format="2">
  <advance width="688"/>
  <unicode hex="2212"/>
  <outline>
    <contour>
      <point x="70" y="282" type="line"/>
      <point x="618" y="282" type="line"/>
      <point x="618" y="382" type="line"/>
      <point x="70" y="382" type="line"/>
    </contour>
  </outline>
</glyph>
